%TF.GenerationSoftware,KiCad,Pcbnew,(5.1.10)-1*%
%TF.CreationDate,2021-09-08T20:08:48+02:00*%
%TF.ProjectId,uklad,756b6c61-642e-46b6-9963-61645f706362,rev?*%
%TF.SameCoordinates,Original*%
%TF.FileFunction,Copper,L1,Top*%
%TF.FilePolarity,Positive*%
%FSLAX46Y46*%
G04 Gerber Fmt 4.6, Leading zero omitted, Abs format (unit mm)*
G04 Created by KiCad (PCBNEW (5.1.10)-1) date 2021-09-08 20:08:48*
%MOMM*%
%LPD*%
G01*
G04 APERTURE LIST*
%TA.AperFunction,SMDPad,CuDef*%
%ADD10R,2.500000X2.500000*%
%TD*%
%TA.AperFunction,ComponentPad*%
%ADD11O,1.600000X1.600000*%
%TD*%
%TA.AperFunction,ComponentPad*%
%ADD12C,1.600000*%
%TD*%
%TA.AperFunction,SMDPad,CuDef*%
%ADD13R,4.000000X4.000000*%
%TD*%
%TA.AperFunction,SMDPad,CuDef*%
%ADD14R,2.000000X2.000000*%
%TD*%
%TA.AperFunction,ComponentPad*%
%ADD15O,2.000000X3.600000*%
%TD*%
%TA.AperFunction,ComponentPad*%
%ADD16R,1.600000X1.600000*%
%TD*%
%TA.AperFunction,ComponentPad*%
%ADD17R,1.500000X1.050000*%
%TD*%
%TA.AperFunction,ComponentPad*%
%ADD18O,1.500000X1.050000*%
%TD*%
%TA.AperFunction,ComponentPad*%
%ADD19O,3.600000X2.000000*%
%TD*%
%TA.AperFunction,Conductor*%
%ADD20C,1.000000*%
%TD*%
%TA.AperFunction,Conductor*%
%ADD21C,0.250000*%
%TD*%
%TA.AperFunction,Conductor*%
%ADD22C,0.500000*%
%TD*%
%TA.AperFunction,Conductor*%
%ADD23C,0.254000*%
%TD*%
%TA.AperFunction,Conductor*%
%ADD24C,0.100000*%
%TD*%
G04 APERTURE END LIST*
D10*
%TO.P,GND_dzielnik,1*%
%TO.N,N/C*%
X130810000Y-97790000D03*
%TD*%
D11*
%TO.P,1M,2*%
%TO.N,Net-(C2-Pad2)*%
X137160000Y-107950000D03*
D12*
%TO.P,1M,1*%
%TO.N,Net-(R11-Pad2)*%
X137160000Y-118110000D03*
%TD*%
D13*
%TO.P,GND,1*%
%TO.N,N/C*%
X105410000Y-95250000D03*
%TD*%
D14*
%TO.P,+5V,1*%
%TO.N,N/C*%
X127000000Y-60960000D03*
%TD*%
%TO.P,Ard_A0,1*%
%TO.N,N/C*%
X148590000Y-96520000D03*
%TD*%
%TO.P,DP A4,1*%
%TO.N,N/C*%
X160020000Y-71120000D03*
%TD*%
%TO.P,GL A3,1*%
%TO.N,N/C*%
X106680000Y-71120000D03*
%TD*%
%TO.P,DL A2,1*%
%TO.N,N/C*%
X142240000Y-71120000D03*
%TD*%
%TO.P,GP A5,1*%
%TO.N,N/C*%
X124460000Y-71120000D03*
%TD*%
%TO.P,Ard_D9,1*%
%TO.N,N/C*%
X110490000Y-101600000D03*
%TD*%
%TO.P,Ard_D10,1*%
%TO.N,N/C*%
X114300000Y-97790000D03*
%TD*%
%TO.P,Ard_D8,1*%
%TO.N,N/C*%
X110490000Y-111760000D03*
%TD*%
%TO.P,Ard_Vin,1*%
%TO.N,N/C*%
X114300000Y-115570000D03*
%TD*%
%TO.P,Ard_D7,1*%
%TO.N,N/C*%
X157480000Y-116840000D03*
%TD*%
D15*
%TO.P,Solar,2*%
%TO.N,Net-(C2-Pad2)*%
X149780000Y-109220000D03*
%TO.P,Solar,1*%
%TO.N,Net-(A1-Pad13)*%
%TA.AperFunction,ComponentPad*%
G36*
G01*
X143780000Y-110770000D02*
X143780000Y-107670000D01*
G75*
G02*
X144030000Y-107420000I250000J0D01*
G01*
X145530000Y-107420000D01*
G75*
G02*
X145780000Y-107670000I0J-250000D01*
G01*
X145780000Y-110770000D01*
G75*
G02*
X145530000Y-111020000I-250000J0D01*
G01*
X144030000Y-111020000D01*
G75*
G02*
X143780000Y-110770000I0J250000D01*
G01*
G37*
%TD.AperFunction*%
%TD*%
D11*
%TO.P,L293D,16*%
%TO.N,+5V*%
X127000000Y-97790000D03*
%TO.P,L293D,8*%
%TO.N,+9V*%
X119380000Y-115570000D03*
%TO.P,L293D,15*%
%TO.N,Net-(U3-Pad15)*%
X127000000Y-100330000D03*
%TO.P,L293D,7*%
%TO.N,Net-(A1-Pad24)*%
X119380000Y-113030000D03*
%TO.P,L293D,14*%
%TO.N,Net-(U3-Pad14)*%
X127000000Y-102870000D03*
%TO.P,L293D,6*%
%TO.N,Net-(M2-Pad2)*%
X119380000Y-110490000D03*
%TO.P,L293D,13*%
%TO.N,GND*%
X127000000Y-105410000D03*
%TO.P,L293D,5*%
X119380000Y-107950000D03*
%TO.P,L293D,12*%
X127000000Y-107950000D03*
%TO.P,L293D,4*%
X119380000Y-105410000D03*
%TO.P,L293D,11*%
%TO.N,Net-(U3-Pad11)*%
X127000000Y-110490000D03*
%TO.P,L293D,3*%
%TO.N,Net-(M2-Pad1)*%
X119380000Y-102870000D03*
%TO.P,L293D,10*%
%TO.N,Net-(U3-Pad10)*%
X127000000Y-113030000D03*
%TO.P,L293D,2*%
%TO.N,Net-(A1-Pad23)*%
X119380000Y-100330000D03*
%TO.P,L293D,9*%
%TO.N,Net-(U3-Pad9)*%
X127000000Y-115570000D03*
D16*
%TO.P,L293D,1*%
%TO.N,Net-(A1-Pad25)*%
X119380000Y-97790000D03*
%TD*%
D17*
%TO.P,DS18B20,1*%
%TO.N,GND*%
X163830000Y-107950000D03*
D18*
%TO.P,DS18B20,3*%
%TO.N,+5V*%
X163830000Y-105410000D03*
%TO.P,DS18B20,2*%
%TO.N,Net-(A1-Pad22)*%
X163830000Y-106680000D03*
%TD*%
D15*
%TO.P,Photo DP,2*%
%TO.N,GND*%
X159940000Y-81280000D03*
%TO.P,Photo DP,1*%
%TO.N,Net-(A1-Pad12)*%
%TA.AperFunction,ComponentPad*%
G36*
G01*
X153940000Y-82830000D02*
X153940000Y-79730000D01*
G75*
G02*
X154190000Y-79480000I250000J0D01*
G01*
X155690000Y-79480000D01*
G75*
G02*
X155940000Y-79730000I0J-250000D01*
G01*
X155940000Y-82830000D01*
G75*
G02*
X155690000Y-83080000I-250000J0D01*
G01*
X154190000Y-83080000D01*
G75*
G02*
X153940000Y-82830000I0J250000D01*
G01*
G37*
%TD.AperFunction*%
%TD*%
D11*
%TO.P,310R,2*%
%TO.N,Net-(A1-Pad12)*%
X153670000Y-76200000D03*
D12*
%TO.P,310R,1*%
%TO.N,+5V*%
X153670000Y-66040000D03*
%TD*%
D15*
%TO.P,Photo DL,2*%
%TO.N,GND*%
X142160000Y-81280000D03*
%TO.P,Photo DL,1*%
%TO.N,Net-(A1-Pad11)*%
%TA.AperFunction,ComponentPad*%
G36*
G01*
X136160000Y-82830000D02*
X136160000Y-79730000D01*
G75*
G02*
X136410000Y-79480000I250000J0D01*
G01*
X137910000Y-79480000D01*
G75*
G02*
X138160000Y-79730000I0J-250000D01*
G01*
X138160000Y-82830000D01*
G75*
G02*
X137910000Y-83080000I-250000J0D01*
G01*
X136410000Y-83080000D01*
G75*
G02*
X136160000Y-82830000I0J250000D01*
G01*
G37*
%TD.AperFunction*%
%TD*%
D11*
%TO.P,310R,2*%
%TO.N,Net-(A1-Pad11)*%
X135890000Y-76200000D03*
D12*
%TO.P,310R,1*%
%TO.N,+5V*%
X135890000Y-66040000D03*
%TD*%
D11*
%TO.P,1M,2*%
%TO.N,Net-(R11-Pad2)*%
X132080000Y-118110000D03*
D12*
%TO.P,1M,1*%
%TO.N,GND*%
X132080000Y-107950000D03*
%TD*%
D11*
%TO.P,1M,2*%
%TO.N,GND*%
X130810000Y-101600000D03*
D12*
%TO.P,1M,1*%
%TO.N,Net-(A1-Pad13)*%
X140970000Y-101600000D03*
%TD*%
D15*
%TO.P,Photo GP,2*%
%TO.N,GND*%
X124380000Y-81280000D03*
%TO.P,Photo GP,1*%
%TO.N,Net-(A1-Pad10)*%
%TA.AperFunction,ComponentPad*%
G36*
G01*
X118380000Y-82830000D02*
X118380000Y-79730000D01*
G75*
G02*
X118630000Y-79480000I250000J0D01*
G01*
X120130000Y-79480000D01*
G75*
G02*
X120380000Y-79730000I0J-250000D01*
G01*
X120380000Y-82830000D01*
G75*
G02*
X120130000Y-83080000I-250000J0D01*
G01*
X118630000Y-83080000D01*
G75*
G02*
X118380000Y-82830000I0J250000D01*
G01*
G37*
%TD.AperFunction*%
%TD*%
D11*
%TO.P,310R,2*%
%TO.N,Net-(A1-Pad10)*%
X118110000Y-76200000D03*
D12*
%TO.P,310R,1*%
%TO.N,+5V*%
X118110000Y-66040000D03*
%TD*%
D19*
%TO.P,Photo GL,2*%
%TO.N,GND*%
X107950000Y-87550000D03*
%TO.P,Photo GL,1*%
%TO.N,Net-(A1-Pad9)*%
%TA.AperFunction,ComponentPad*%
G36*
G01*
X106400000Y-81550000D02*
X109500000Y-81550000D01*
G75*
G02*
X109750000Y-81800000I0J-250000D01*
G01*
X109750000Y-83300000D01*
G75*
G02*
X109500000Y-83550000I-250000J0D01*
G01*
X106400000Y-83550000D01*
G75*
G02*
X106150000Y-83300000I0J250000D01*
G01*
X106150000Y-81800000D01*
G75*
G02*
X106400000Y-81550000I250000J0D01*
G01*
G37*
%TD.AperFunction*%
%TD*%
D11*
%TO.P,310R,2*%
%TO.N,Net-(A1-Pad9)*%
X100330000Y-76200000D03*
D12*
%TO.P,310R,1*%
%TO.N,+5V*%
X100330000Y-66040000D03*
%TD*%
D11*
%TO.P,4\u002C7k,2*%
%TO.N,Net-(A1-Pad22)*%
X157480000Y-111760000D03*
D12*
%TO.P,4\u002C7k,1*%
%TO.N,+5V*%
X157480000Y-101600000D03*
%TD*%
D19*
%TO.P,DC_Motor,2*%
%TO.N,Net-(M2-Pad2)*%
X104140000Y-109140000D03*
%TO.P,DC_Motor,1*%
%TO.N,Net-(M2-Pad1)*%
%TA.AperFunction,ComponentPad*%
G36*
G01*
X102590000Y-103140000D02*
X105690000Y-103140000D01*
G75*
G02*
X105940000Y-103390000I0J-250000D01*
G01*
X105940000Y-104890000D01*
G75*
G02*
X105690000Y-105140000I-250000J0D01*
G01*
X102590000Y-105140000D01*
G75*
G02*
X102340000Y-104890000I0J250000D01*
G01*
X102340000Y-103390000D01*
G75*
G02*
X102590000Y-103140000I250000J0D01*
G01*
G37*
%TD.AperFunction*%
%TD*%
D12*
%TO.P,100nF,2*%
%TO.N,Net-(C2-Pad2)*%
X152400000Y-102830000D03*
%TO.P,100nF,1*%
%TO.N,Net-(A1-Pad13)*%
X152400000Y-100330000D03*
%TD*%
%TO.P,220uF,2*%
%TO.N,Net-(C2-Pad2)*%
X146050000Y-102830000D03*
D16*
%TO.P,220uF,1*%
%TO.N,Net-(A1-Pad13)*%
X146050000Y-100330000D03*
%TD*%
D20*
%TO.N,GND*%
X124380000Y-81280000D02*
X118110000Y-87550000D01*
X126880010Y-83780010D02*
X139659990Y-83780010D01*
X139659990Y-83780010D02*
X142160000Y-81280000D01*
X124380000Y-81280000D02*
X126880010Y-83780010D01*
X157439990Y-83780010D02*
X159940000Y-81280000D01*
X144660010Y-83780010D02*
X157439990Y-83780010D01*
X142160000Y-81280000D02*
X144660010Y-83780010D01*
X112950000Y-87550000D02*
X112950000Y-92630000D01*
X118110000Y-87550000D02*
X112950000Y-87550000D01*
X112950000Y-87550000D02*
X107950000Y-87550000D01*
X119380000Y-107950000D02*
X119380000Y-105410000D01*
X127000000Y-107950000D02*
X127000000Y-105410000D01*
X119380000Y-105410000D02*
X123190000Y-101600000D01*
X123190000Y-98739998D02*
X118350002Y-93900000D01*
X123190000Y-101600000D02*
X123190000Y-98739998D01*
X130810000Y-106680000D02*
X132080000Y-107950000D01*
X112950000Y-92630000D02*
X112950000Y-93900000D01*
X118350002Y-93900000D02*
X112950000Y-93900000D01*
X112950000Y-93900000D02*
X110570000Y-93900000D01*
X110570000Y-93900000D02*
X109220000Y-95250000D01*
X109220000Y-95250000D02*
X104140000Y-95250000D01*
X130810000Y-105410000D02*
X130810000Y-106680000D01*
X130810000Y-101600000D02*
X130810000Y-105410000D01*
X123190000Y-118110000D02*
X123190000Y-105410000D01*
X127000000Y-121920000D02*
X123190000Y-118110000D01*
X157480000Y-121920000D02*
X127000000Y-121920000D01*
X163830000Y-115570000D02*
X157480000Y-121920000D01*
X163830000Y-107950000D02*
X163830000Y-115570000D01*
X119380000Y-105410000D02*
X123190000Y-105410000D01*
X123190000Y-105410000D02*
X127000000Y-105410000D01*
X130810000Y-101600000D02*
X130810000Y-97790000D01*
D21*
%TO.N,Net-(A1-Pad13)*%
X144780000Y-101600000D02*
X146050000Y-100330000D01*
X140970000Y-101600000D02*
X144780000Y-101600000D01*
X148590000Y-100330000D02*
X148590000Y-96520000D01*
X146050000Y-100330000D02*
X148590000Y-100330000D01*
X148590000Y-100330000D02*
X152400000Y-100330000D01*
X134620000Y-105410000D02*
X138430000Y-101600000D01*
X134620000Y-111760000D02*
X134620000Y-105410000D01*
X135890000Y-113030000D02*
X134620000Y-111760000D01*
X138430000Y-101600000D02*
X140970000Y-101600000D01*
X137160000Y-113030000D02*
X135890000Y-113030000D01*
X140970000Y-109220000D02*
X137160000Y-113030000D01*
X144780000Y-109220000D02*
X140970000Y-109220000D01*
%TO.N,Net-(A1-Pad12)*%
X153670000Y-80010000D02*
X154940000Y-81280000D01*
X153670000Y-76200000D02*
X153670000Y-80010000D01*
X153670000Y-76200000D02*
X157480000Y-76200000D01*
X157480000Y-76200000D02*
X160020000Y-73660000D01*
X160020000Y-73660000D02*
X160020000Y-71120000D01*
%TO.N,Net-(A1-Pad11)*%
X135890000Y-80010000D02*
X137160000Y-81280000D01*
X135890000Y-76200000D02*
X135890000Y-80010000D01*
X135890000Y-76200000D02*
X139700000Y-76200000D01*
X139700000Y-76200000D02*
X142240000Y-73660000D01*
X142240000Y-73660000D02*
X142240000Y-71120000D01*
%TO.N,Net-(A1-Pad10)*%
X118110000Y-80010000D02*
X119380000Y-81280000D01*
X118110000Y-76200000D02*
X118110000Y-80010000D01*
X118110000Y-76200000D02*
X121920000Y-76200000D01*
X121920000Y-76200000D02*
X124460000Y-73660000D01*
X124460000Y-73660000D02*
X124460000Y-71120000D01*
%TO.N,Net-(A1-Pad25)*%
X119380000Y-97790000D02*
X114300000Y-97790000D01*
%TO.N,Net-(A1-Pad9)*%
X107950000Y-80010000D02*
X107950000Y-82550000D01*
X107950000Y-77470000D02*
X107950000Y-80010000D01*
X106680000Y-76200000D02*
X107950000Y-77470000D01*
X100330000Y-76200000D02*
X106680000Y-76200000D01*
X106680000Y-76200000D02*
X106680000Y-71120000D01*
%TO.N,Net-(A1-Pad24)*%
X119380000Y-113030000D02*
X114300000Y-113030000D01*
X114300000Y-113030000D02*
X113030000Y-111760000D01*
X113030000Y-111760000D02*
X110490000Y-111760000D01*
%TO.N,+9V*%
X119380000Y-115570000D02*
X114300000Y-115570000D01*
%TO.N,Net-(A1-Pad23)*%
X119380000Y-100330000D02*
X114300000Y-100330000D01*
X114300000Y-100330000D02*
X113030000Y-101600000D01*
X113030000Y-101600000D02*
X110490000Y-101600000D01*
%TO.N,Net-(A1-Pad22)*%
X157480000Y-111760000D02*
X157480000Y-116840000D01*
X157480000Y-107950000D02*
X157480000Y-111760000D01*
X158750000Y-106680000D02*
X157480000Y-107950000D01*
X163830000Y-106680000D02*
X158750000Y-106680000D01*
%TO.N,+5V*%
X100330000Y-66040000D02*
X118110000Y-66040000D01*
X135890000Y-66040000D02*
X153670000Y-66040000D01*
X118110000Y-66040000D02*
X127000000Y-66040000D01*
X127000000Y-66040000D02*
X135890000Y-66040000D01*
X153670000Y-66040000D02*
X161290000Y-66040000D01*
X161290000Y-66040000D02*
X166370000Y-71120000D01*
X166370000Y-71120000D02*
X166370000Y-92710000D01*
X166370000Y-92710000D02*
X165100000Y-93980000D01*
X128270000Y-93980000D02*
X127000000Y-95250000D01*
X127000000Y-95250000D02*
X127000000Y-97790000D01*
X165100000Y-93980000D02*
X128270000Y-93980000D01*
X163830000Y-105410000D02*
X163830000Y-95250000D01*
X163830000Y-95250000D02*
X157480000Y-101600000D01*
X165100000Y-93980000D02*
X163830000Y-95250000D01*
X127000000Y-66040000D02*
X127000000Y-60960000D01*
%TO.N,Net-(C2-Pad2)*%
X152400000Y-102830000D02*
X146050000Y-102830000D01*
X146050000Y-102830000D02*
X142280000Y-102830000D01*
X142280000Y-102830000D02*
X142240000Y-102870000D01*
X145970000Y-105410000D02*
X139700000Y-105410000D01*
X149780000Y-109220000D02*
X145970000Y-105410000D01*
X139700000Y-105410000D02*
X137160000Y-107950000D01*
X142240000Y-102870000D02*
X139700000Y-105410000D01*
D22*
%TO.N,Net-(M2-Pad2)*%
X118090001Y-109200001D02*
X119380000Y-110490000D01*
X104200001Y-109200001D02*
X118090001Y-109200001D01*
X104140000Y-109140000D02*
X104200001Y-109200001D01*
%TO.N,Net-(M2-Pad1)*%
X118110000Y-104140000D02*
X119380000Y-102870000D01*
X104140000Y-104140000D02*
X118110000Y-104140000D01*
D21*
%TO.N,Net-(R11-Pad2)*%
X132080000Y-118110000D02*
X137160000Y-118110000D01*
%TD*%
D23*
%TO.N,GND*%
X168783000Y-92583000D02*
X167130000Y-92583000D01*
X167130000Y-71157323D01*
X167133676Y-71120000D01*
X167130000Y-71082677D01*
X167130000Y-71082667D01*
X167119003Y-70971014D01*
X167075546Y-70827753D01*
X167004975Y-70695725D01*
X167004974Y-70695723D01*
X166933799Y-70608997D01*
X166910001Y-70579999D01*
X166881004Y-70556202D01*
X161853804Y-65529003D01*
X161830001Y-65499999D01*
X161714276Y-65405026D01*
X161582247Y-65334454D01*
X161438986Y-65290997D01*
X161327333Y-65280000D01*
X161327322Y-65280000D01*
X161290000Y-65276324D01*
X161252678Y-65280000D01*
X154888043Y-65280000D01*
X154784637Y-65125241D01*
X154584759Y-64925363D01*
X154349727Y-64768320D01*
X154088574Y-64660147D01*
X153811335Y-64605000D01*
X153528665Y-64605000D01*
X153251426Y-64660147D01*
X152990273Y-64768320D01*
X152755241Y-64925363D01*
X152555363Y-65125241D01*
X152451957Y-65280000D01*
X137108043Y-65280000D01*
X137004637Y-65125241D01*
X136804759Y-64925363D01*
X136569727Y-64768320D01*
X136308574Y-64660147D01*
X136031335Y-64605000D01*
X135748665Y-64605000D01*
X135471426Y-64660147D01*
X135210273Y-64768320D01*
X134975241Y-64925363D01*
X134775363Y-65125241D01*
X134671957Y-65280000D01*
X127760000Y-65280000D01*
X127760000Y-62598072D01*
X128000000Y-62598072D01*
X128124482Y-62585812D01*
X128244180Y-62549502D01*
X128354494Y-62490537D01*
X128451185Y-62411185D01*
X128530537Y-62314494D01*
X128589502Y-62204180D01*
X128625812Y-62084482D01*
X128630735Y-62034495D01*
X163115000Y-62034495D01*
X163115000Y-62425505D01*
X163191282Y-62809003D01*
X163340915Y-63170250D01*
X163558149Y-63495364D01*
X163834636Y-63771851D01*
X164159750Y-63989085D01*
X164520997Y-64138718D01*
X164904495Y-64215000D01*
X165295505Y-64215000D01*
X165679003Y-64138718D01*
X166040250Y-63989085D01*
X166365364Y-63771851D01*
X166641851Y-63495364D01*
X166859085Y-63170250D01*
X167008718Y-62809003D01*
X167085000Y-62425505D01*
X167085000Y-62034495D01*
X167008718Y-61650997D01*
X166859085Y-61289750D01*
X166641851Y-60964636D01*
X166365364Y-60688149D01*
X166040250Y-60470915D01*
X165679003Y-60321282D01*
X165295505Y-60245000D01*
X164904495Y-60245000D01*
X164520997Y-60321282D01*
X164159750Y-60470915D01*
X163834636Y-60688149D01*
X163558149Y-60964636D01*
X163340915Y-61289750D01*
X163191282Y-61650997D01*
X163115000Y-62034495D01*
X128630735Y-62034495D01*
X128638072Y-61960000D01*
X128638072Y-59960000D01*
X128625812Y-59835518D01*
X128589502Y-59715820D01*
X128530537Y-59605506D01*
X128451185Y-59508815D01*
X128354494Y-59429463D01*
X128244180Y-59370498D01*
X128124482Y-59334188D01*
X128000000Y-59321928D01*
X126000000Y-59321928D01*
X125875518Y-59334188D01*
X125755820Y-59370498D01*
X125645506Y-59429463D01*
X125548815Y-59508815D01*
X125469463Y-59605506D01*
X125410498Y-59715820D01*
X125374188Y-59835518D01*
X125361928Y-59960000D01*
X125361928Y-61960000D01*
X125374188Y-62084482D01*
X125410498Y-62204180D01*
X125469463Y-62314494D01*
X125548815Y-62411185D01*
X125645506Y-62490537D01*
X125755820Y-62549502D01*
X125875518Y-62585812D01*
X126000000Y-62598072D01*
X126240001Y-62598072D01*
X126240000Y-65280000D01*
X119328043Y-65280000D01*
X119224637Y-65125241D01*
X119024759Y-64925363D01*
X118789727Y-64768320D01*
X118528574Y-64660147D01*
X118251335Y-64605000D01*
X117968665Y-64605000D01*
X117691426Y-64660147D01*
X117430273Y-64768320D01*
X117195241Y-64925363D01*
X116995363Y-65125241D01*
X116891957Y-65280000D01*
X101548043Y-65280000D01*
X101444637Y-65125241D01*
X101244759Y-64925363D01*
X101009727Y-64768320D01*
X100748574Y-64660147D01*
X100471335Y-64605000D01*
X100188665Y-64605000D01*
X99911426Y-64660147D01*
X99650273Y-64768320D01*
X99415241Y-64925363D01*
X99215363Y-65125241D01*
X99058320Y-65360273D01*
X98950147Y-65621426D01*
X98895000Y-65898665D01*
X98895000Y-66181335D01*
X98950147Y-66458574D01*
X99058320Y-66719727D01*
X99215363Y-66954759D01*
X99415241Y-67154637D01*
X99650273Y-67311680D01*
X99911426Y-67419853D01*
X100188665Y-67475000D01*
X100471335Y-67475000D01*
X100748574Y-67419853D01*
X101009727Y-67311680D01*
X101244759Y-67154637D01*
X101444637Y-66954759D01*
X101548043Y-66800000D01*
X116891957Y-66800000D01*
X116995363Y-66954759D01*
X117195241Y-67154637D01*
X117430273Y-67311680D01*
X117691426Y-67419853D01*
X117968665Y-67475000D01*
X118251335Y-67475000D01*
X118528574Y-67419853D01*
X118789727Y-67311680D01*
X119024759Y-67154637D01*
X119224637Y-66954759D01*
X119328043Y-66800000D01*
X126962667Y-66800000D01*
X127000000Y-66803677D01*
X127037333Y-66800000D01*
X134671957Y-66800000D01*
X134775363Y-66954759D01*
X134975241Y-67154637D01*
X135210273Y-67311680D01*
X135471426Y-67419853D01*
X135748665Y-67475000D01*
X136031335Y-67475000D01*
X136308574Y-67419853D01*
X136569727Y-67311680D01*
X136804759Y-67154637D01*
X137004637Y-66954759D01*
X137108043Y-66800000D01*
X152451957Y-66800000D01*
X152555363Y-66954759D01*
X152755241Y-67154637D01*
X152990273Y-67311680D01*
X153251426Y-67419853D01*
X153528665Y-67475000D01*
X153811335Y-67475000D01*
X154088574Y-67419853D01*
X154349727Y-67311680D01*
X154584759Y-67154637D01*
X154784637Y-66954759D01*
X154888043Y-66800000D01*
X160975199Y-66800000D01*
X165610000Y-71434802D01*
X165610001Y-92395197D01*
X165422198Y-92583000D01*
X127000000Y-92583000D01*
X126975224Y-92585440D01*
X126951399Y-92592667D01*
X126929443Y-92604403D01*
X126910197Y-92620197D01*
X126894403Y-92639443D01*
X126882667Y-92661399D01*
X126875440Y-92685224D01*
X126873000Y-92710000D01*
X126873000Y-94302199D01*
X126489003Y-94686196D01*
X126459999Y-94709999D01*
X126404871Y-94777174D01*
X126365026Y-94825724D01*
X126334984Y-94881928D01*
X126294454Y-94957754D01*
X126250997Y-95101015D01*
X126240000Y-95212668D01*
X126240000Y-95212678D01*
X126236324Y-95250000D01*
X126240000Y-95287323D01*
X126240001Y-96571956D01*
X126085241Y-96675363D01*
X125885363Y-96875241D01*
X125728320Y-97110273D01*
X125620147Y-97371426D01*
X125565000Y-97648665D01*
X125565000Y-97931335D01*
X125620147Y-98208574D01*
X125728320Y-98469727D01*
X125885363Y-98704759D01*
X126085241Y-98904637D01*
X126317759Y-99060000D01*
X126085241Y-99215363D01*
X125885363Y-99415241D01*
X125728320Y-99650273D01*
X125620147Y-99911426D01*
X125565000Y-100188665D01*
X125565000Y-100471335D01*
X125620147Y-100748574D01*
X125728320Y-101009727D01*
X125885363Y-101244759D01*
X126085241Y-101444637D01*
X126317759Y-101600000D01*
X126085241Y-101755363D01*
X125885363Y-101955241D01*
X125728320Y-102190273D01*
X125620147Y-102451426D01*
X125565000Y-102728665D01*
X125565000Y-103011335D01*
X125620147Y-103288574D01*
X125728320Y-103549727D01*
X125885363Y-103784759D01*
X126085241Y-103984637D01*
X126320273Y-104141680D01*
X126330865Y-104146067D01*
X126144869Y-104257615D01*
X125936481Y-104446586D01*
X125768963Y-104672580D01*
X125648754Y-104926913D01*
X125608096Y-105060961D01*
X125730085Y-105283000D01*
X126873000Y-105283000D01*
X126873000Y-105537000D01*
X125730085Y-105537000D01*
X125608096Y-105759039D01*
X125648754Y-105893087D01*
X125768963Y-106147420D01*
X125936481Y-106373414D01*
X126144869Y-106562385D01*
X126340982Y-106680000D01*
X126144869Y-106797615D01*
X125936481Y-106986586D01*
X125768963Y-107212580D01*
X125648754Y-107466913D01*
X125608096Y-107600961D01*
X125730085Y-107823000D01*
X126873000Y-107823000D01*
X126873000Y-108077000D01*
X125730085Y-108077000D01*
X125608096Y-108299039D01*
X125648754Y-108433087D01*
X125768963Y-108687420D01*
X125936481Y-108913414D01*
X126144869Y-109102385D01*
X126330865Y-109213933D01*
X126320273Y-109218320D01*
X126085241Y-109375363D01*
X125885363Y-109575241D01*
X125728320Y-109810273D01*
X125620147Y-110071426D01*
X125565000Y-110348665D01*
X125565000Y-110631335D01*
X125620147Y-110908574D01*
X125728320Y-111169727D01*
X125885363Y-111404759D01*
X126085241Y-111604637D01*
X126317759Y-111760000D01*
X126085241Y-111915363D01*
X125885363Y-112115241D01*
X125728320Y-112350273D01*
X125620147Y-112611426D01*
X125565000Y-112888665D01*
X125565000Y-113171335D01*
X125620147Y-113448574D01*
X125728320Y-113709727D01*
X125885363Y-113944759D01*
X126085241Y-114144637D01*
X126317759Y-114300000D01*
X126085241Y-114455363D01*
X125885363Y-114655241D01*
X125728320Y-114890273D01*
X125620147Y-115151426D01*
X125565000Y-115428665D01*
X125565000Y-115711335D01*
X125620147Y-115988574D01*
X125728320Y-116249727D01*
X125885363Y-116484759D01*
X126085241Y-116684637D01*
X126320273Y-116841680D01*
X126581426Y-116949853D01*
X126858665Y-117005000D01*
X126873000Y-117005000D01*
X126873000Y-121920000D01*
X126875440Y-121944776D01*
X126882667Y-121968601D01*
X126894403Y-121990557D01*
X126910197Y-122009803D01*
X126929443Y-122025597D01*
X126951399Y-122037333D01*
X126975224Y-122044560D01*
X127000000Y-122047000D01*
X163689785Y-122047000D01*
X163834636Y-122191851D01*
X164159750Y-122409085D01*
X164520997Y-122558718D01*
X164904495Y-122635000D01*
X165295505Y-122635000D01*
X165679003Y-122558718D01*
X166040250Y-122409085D01*
X166365364Y-122191851D01*
X166510215Y-122047000D01*
X168783000Y-122047000D01*
X168783000Y-124333000D01*
X89027000Y-124333000D01*
X89027000Y-120454495D01*
X90725000Y-120454495D01*
X90725000Y-120845505D01*
X90801282Y-121229003D01*
X90950915Y-121590250D01*
X91168149Y-121915364D01*
X91444636Y-122191851D01*
X91769750Y-122409085D01*
X92130997Y-122558718D01*
X92514495Y-122635000D01*
X92905505Y-122635000D01*
X93289003Y-122558718D01*
X93650250Y-122409085D01*
X93975364Y-122191851D01*
X94251851Y-121915364D01*
X94469085Y-121590250D01*
X94618718Y-121229003D01*
X94695000Y-120845505D01*
X94695000Y-120454495D01*
X94618718Y-120070997D01*
X94469085Y-119709750D01*
X94251851Y-119384636D01*
X93975364Y-119108149D01*
X93650250Y-118890915D01*
X93289003Y-118741282D01*
X92905505Y-118665000D01*
X92514495Y-118665000D01*
X92130997Y-118741282D01*
X91769750Y-118890915D01*
X91444636Y-119108149D01*
X91168149Y-119384636D01*
X90950915Y-119709750D01*
X90801282Y-120070997D01*
X90725000Y-120454495D01*
X89027000Y-120454495D01*
X89027000Y-109140000D01*
X101697089Y-109140000D01*
X101728657Y-109460516D01*
X101822148Y-109768715D01*
X101973969Y-110052752D01*
X102178286Y-110301714D01*
X102427248Y-110506031D01*
X102711285Y-110657852D01*
X103019484Y-110751343D01*
X103259678Y-110775000D01*
X105020322Y-110775000D01*
X105260516Y-110751343D01*
X105568715Y-110657852D01*
X105852752Y-110506031D01*
X106101714Y-110301714D01*
X106279565Y-110085001D01*
X117723423Y-110085001D01*
X117951983Y-110313561D01*
X117945000Y-110348665D01*
X117945000Y-110631335D01*
X118000147Y-110908574D01*
X118108320Y-111169727D01*
X118265363Y-111404759D01*
X118465241Y-111604637D01*
X118697759Y-111760000D01*
X118465241Y-111915363D01*
X118265363Y-112115241D01*
X118161957Y-112270000D01*
X114614802Y-112270000D01*
X113593804Y-111249003D01*
X113570001Y-111219999D01*
X113454276Y-111125026D01*
X113322247Y-111054454D01*
X113178986Y-111010997D01*
X113067333Y-111000000D01*
X113067322Y-111000000D01*
X113030000Y-110996324D01*
X112992678Y-111000000D01*
X112128072Y-111000000D01*
X112128072Y-110760000D01*
X112115812Y-110635518D01*
X112079502Y-110515820D01*
X112020537Y-110405506D01*
X111941185Y-110308815D01*
X111844494Y-110229463D01*
X111734180Y-110170498D01*
X111614482Y-110134188D01*
X111490000Y-110121928D01*
X109490000Y-110121928D01*
X109365518Y-110134188D01*
X109245820Y-110170498D01*
X109135506Y-110229463D01*
X109038815Y-110308815D01*
X108959463Y-110405506D01*
X108900498Y-110515820D01*
X108864188Y-110635518D01*
X108851928Y-110760000D01*
X108851928Y-112760000D01*
X108864188Y-112884482D01*
X108900498Y-113004180D01*
X108959463Y-113114494D01*
X109038815Y-113211185D01*
X109135506Y-113290537D01*
X109245820Y-113349502D01*
X109365518Y-113385812D01*
X109490000Y-113398072D01*
X111490000Y-113398072D01*
X111614482Y-113385812D01*
X111734180Y-113349502D01*
X111844494Y-113290537D01*
X111941185Y-113211185D01*
X112020537Y-113114494D01*
X112079502Y-113004180D01*
X112115812Y-112884482D01*
X112128072Y-112760000D01*
X112128072Y-112520000D01*
X112715199Y-112520000D01*
X113736201Y-113541003D01*
X113759999Y-113570001D01*
X113875724Y-113664974D01*
X114007753Y-113735546D01*
X114151014Y-113779003D01*
X114262667Y-113790000D01*
X114262676Y-113790000D01*
X114299999Y-113793676D01*
X114337322Y-113790000D01*
X118161957Y-113790000D01*
X118265363Y-113944759D01*
X118465241Y-114144637D01*
X118697759Y-114300000D01*
X118465241Y-114455363D01*
X118265363Y-114655241D01*
X118161957Y-114810000D01*
X115938072Y-114810000D01*
X115938072Y-114570000D01*
X115925812Y-114445518D01*
X115889502Y-114325820D01*
X115830537Y-114215506D01*
X115751185Y-114118815D01*
X115654494Y-114039463D01*
X115544180Y-113980498D01*
X115424482Y-113944188D01*
X115300000Y-113931928D01*
X113300000Y-113931928D01*
X113175518Y-113944188D01*
X113055820Y-113980498D01*
X112945506Y-114039463D01*
X112848815Y-114118815D01*
X112769463Y-114215506D01*
X112710498Y-114325820D01*
X112674188Y-114445518D01*
X112661928Y-114570000D01*
X112661928Y-116570000D01*
X112674188Y-116694482D01*
X112710498Y-116814180D01*
X112769463Y-116924494D01*
X112848815Y-117021185D01*
X112945506Y-117100537D01*
X113055820Y-117159502D01*
X113175518Y-117195812D01*
X113300000Y-117208072D01*
X115300000Y-117208072D01*
X115424482Y-117195812D01*
X115544180Y-117159502D01*
X115654494Y-117100537D01*
X115751185Y-117021185D01*
X115830537Y-116924494D01*
X115889502Y-116814180D01*
X115925812Y-116694482D01*
X115938072Y-116570000D01*
X115938072Y-116330000D01*
X118161957Y-116330000D01*
X118265363Y-116484759D01*
X118465241Y-116684637D01*
X118700273Y-116841680D01*
X118961426Y-116949853D01*
X119238665Y-117005000D01*
X119521335Y-117005000D01*
X119798574Y-116949853D01*
X120059727Y-116841680D01*
X120294759Y-116684637D01*
X120494637Y-116484759D01*
X120651680Y-116249727D01*
X120759853Y-115988574D01*
X120815000Y-115711335D01*
X120815000Y-115428665D01*
X120759853Y-115151426D01*
X120651680Y-114890273D01*
X120494637Y-114655241D01*
X120294759Y-114455363D01*
X120062241Y-114300000D01*
X120294759Y-114144637D01*
X120494637Y-113944759D01*
X120651680Y-113709727D01*
X120759853Y-113448574D01*
X120815000Y-113171335D01*
X120815000Y-112888665D01*
X120759853Y-112611426D01*
X120651680Y-112350273D01*
X120494637Y-112115241D01*
X120294759Y-111915363D01*
X120062241Y-111760000D01*
X120294759Y-111604637D01*
X120494637Y-111404759D01*
X120651680Y-111169727D01*
X120759853Y-110908574D01*
X120815000Y-110631335D01*
X120815000Y-110348665D01*
X120759853Y-110071426D01*
X120651680Y-109810273D01*
X120494637Y-109575241D01*
X120294759Y-109375363D01*
X120059727Y-109218320D01*
X120049135Y-109213933D01*
X120235131Y-109102385D01*
X120443519Y-108913414D01*
X120611037Y-108687420D01*
X120731246Y-108433087D01*
X120771904Y-108299039D01*
X120649915Y-108077000D01*
X119507000Y-108077000D01*
X119507000Y-108097000D01*
X119253000Y-108097000D01*
X119253000Y-108077000D01*
X118110085Y-108077000D01*
X117988096Y-108299039D01*
X117992937Y-108315001D01*
X106352936Y-108315001D01*
X106306031Y-108227248D01*
X106101714Y-107978286D01*
X105852752Y-107773969D01*
X105568715Y-107622148D01*
X105260516Y-107528657D01*
X105020322Y-107505000D01*
X103259678Y-107505000D01*
X103019484Y-107528657D01*
X102711285Y-107622148D01*
X102427248Y-107773969D01*
X102178286Y-107978286D01*
X101973969Y-108227248D01*
X101822148Y-108511285D01*
X101728657Y-108819484D01*
X101697089Y-109140000D01*
X89027000Y-109140000D01*
X89027000Y-103390000D01*
X101701928Y-103390000D01*
X101701928Y-104890000D01*
X101718992Y-105063254D01*
X101769528Y-105229850D01*
X101851595Y-105383386D01*
X101962038Y-105517962D01*
X102096614Y-105628405D01*
X102250150Y-105710472D01*
X102416746Y-105761008D01*
X102590000Y-105778072D01*
X105690000Y-105778072D01*
X105863254Y-105761008D01*
X105869744Y-105759039D01*
X117988096Y-105759039D01*
X118028754Y-105893087D01*
X118148963Y-106147420D01*
X118316481Y-106373414D01*
X118524869Y-106562385D01*
X118720982Y-106680000D01*
X118524869Y-106797615D01*
X118316481Y-106986586D01*
X118148963Y-107212580D01*
X118028754Y-107466913D01*
X117988096Y-107600961D01*
X118110085Y-107823000D01*
X119253000Y-107823000D01*
X119253000Y-105537000D01*
X119507000Y-105537000D01*
X119507000Y-107823000D01*
X120649915Y-107823000D01*
X120771904Y-107600961D01*
X120731246Y-107466913D01*
X120611037Y-107212580D01*
X120443519Y-106986586D01*
X120235131Y-106797615D01*
X120039018Y-106680000D01*
X120235131Y-106562385D01*
X120443519Y-106373414D01*
X120611037Y-106147420D01*
X120731246Y-105893087D01*
X120771904Y-105759039D01*
X120649915Y-105537000D01*
X119507000Y-105537000D01*
X119253000Y-105537000D01*
X118110085Y-105537000D01*
X117988096Y-105759039D01*
X105869744Y-105759039D01*
X106029850Y-105710472D01*
X106183386Y-105628405D01*
X106317962Y-105517962D01*
X106428405Y-105383386D01*
X106510472Y-105229850D01*
X106561008Y-105063254D01*
X106564776Y-105025000D01*
X117999003Y-105025000D01*
X117988096Y-105060961D01*
X118110085Y-105283000D01*
X119253000Y-105283000D01*
X119253000Y-105263000D01*
X119507000Y-105263000D01*
X119507000Y-105283000D01*
X120649915Y-105283000D01*
X120771904Y-105060961D01*
X120731246Y-104926913D01*
X120611037Y-104672580D01*
X120443519Y-104446586D01*
X120235131Y-104257615D01*
X120049135Y-104146067D01*
X120059727Y-104141680D01*
X120294759Y-103984637D01*
X120494637Y-103784759D01*
X120651680Y-103549727D01*
X120759853Y-103288574D01*
X120815000Y-103011335D01*
X120815000Y-102728665D01*
X120759853Y-102451426D01*
X120651680Y-102190273D01*
X120494637Y-101955241D01*
X120294759Y-101755363D01*
X120062241Y-101600000D01*
X120294759Y-101444637D01*
X120494637Y-101244759D01*
X120651680Y-101009727D01*
X120759853Y-100748574D01*
X120815000Y-100471335D01*
X120815000Y-100188665D01*
X120759853Y-99911426D01*
X120651680Y-99650273D01*
X120494637Y-99415241D01*
X120296039Y-99216643D01*
X120304482Y-99215812D01*
X120424180Y-99179502D01*
X120534494Y-99120537D01*
X120631185Y-99041185D01*
X120710537Y-98944494D01*
X120769502Y-98834180D01*
X120805812Y-98714482D01*
X120818072Y-98590000D01*
X120818072Y-96990000D01*
X120805812Y-96865518D01*
X120769502Y-96745820D01*
X120710537Y-96635506D01*
X120631185Y-96538815D01*
X120534494Y-96459463D01*
X120424180Y-96400498D01*
X120304482Y-96364188D01*
X120180000Y-96351928D01*
X118580000Y-96351928D01*
X118455518Y-96364188D01*
X118335820Y-96400498D01*
X118225506Y-96459463D01*
X118128815Y-96538815D01*
X118049463Y-96635506D01*
X117990498Y-96745820D01*
X117954188Y-96865518D01*
X117941928Y-96990000D01*
X117941928Y-97030000D01*
X115938072Y-97030000D01*
X115938072Y-96790000D01*
X115925812Y-96665518D01*
X115889502Y-96545820D01*
X115830537Y-96435506D01*
X115751185Y-96338815D01*
X115654494Y-96259463D01*
X115544180Y-96200498D01*
X115424482Y-96164188D01*
X115300000Y-96151928D01*
X113300000Y-96151928D01*
X113175518Y-96164188D01*
X113055820Y-96200498D01*
X112945506Y-96259463D01*
X112848815Y-96338815D01*
X112769463Y-96435506D01*
X112710498Y-96545820D01*
X112674188Y-96665518D01*
X112661928Y-96790000D01*
X112661928Y-98790000D01*
X112674188Y-98914482D01*
X112710498Y-99034180D01*
X112769463Y-99144494D01*
X112848815Y-99241185D01*
X112945506Y-99320537D01*
X113055820Y-99379502D01*
X113175518Y-99415812D01*
X113300000Y-99428072D01*
X115300000Y-99428072D01*
X115424482Y-99415812D01*
X115544180Y-99379502D01*
X115654494Y-99320537D01*
X115751185Y-99241185D01*
X115830537Y-99144494D01*
X115889502Y-99034180D01*
X115925812Y-98914482D01*
X115938072Y-98790000D01*
X115938072Y-98550000D01*
X117941928Y-98550000D01*
X117941928Y-98590000D01*
X117954188Y-98714482D01*
X117990498Y-98834180D01*
X118049463Y-98944494D01*
X118128815Y-99041185D01*
X118225506Y-99120537D01*
X118335820Y-99179502D01*
X118455518Y-99215812D01*
X118463961Y-99216643D01*
X118265363Y-99415241D01*
X118161957Y-99570000D01*
X114337322Y-99570000D01*
X114299999Y-99566324D01*
X114262676Y-99570000D01*
X114262667Y-99570000D01*
X114151014Y-99580997D01*
X114007753Y-99624454D01*
X113875724Y-99695026D01*
X113759999Y-99789999D01*
X113736201Y-99818997D01*
X112715199Y-100840000D01*
X112128072Y-100840000D01*
X112128072Y-100600000D01*
X112115812Y-100475518D01*
X112079502Y-100355820D01*
X112020537Y-100245506D01*
X111941185Y-100148815D01*
X111844494Y-100069463D01*
X111734180Y-100010498D01*
X111614482Y-99974188D01*
X111490000Y-99961928D01*
X109490000Y-99961928D01*
X109365518Y-99974188D01*
X109245820Y-100010498D01*
X109135506Y-100069463D01*
X109038815Y-100148815D01*
X108959463Y-100245506D01*
X108900498Y-100355820D01*
X108864188Y-100475518D01*
X108851928Y-100600000D01*
X108851928Y-102600000D01*
X108864188Y-102724482D01*
X108900498Y-102844180D01*
X108959463Y-102954494D01*
X109038815Y-103051185D01*
X109135506Y-103130537D01*
X109245820Y-103189502D01*
X109365518Y-103225812D01*
X109490000Y-103238072D01*
X111490000Y-103238072D01*
X111614482Y-103225812D01*
X111734180Y-103189502D01*
X111844494Y-103130537D01*
X111941185Y-103051185D01*
X112020537Y-102954494D01*
X112079502Y-102844180D01*
X112115812Y-102724482D01*
X112128072Y-102600000D01*
X112128072Y-102360000D01*
X112992678Y-102360000D01*
X113030000Y-102363676D01*
X113067322Y-102360000D01*
X113067333Y-102360000D01*
X113178986Y-102349003D01*
X113322247Y-102305546D01*
X113454276Y-102234974D01*
X113570001Y-102140001D01*
X113593804Y-102110997D01*
X114614802Y-101090000D01*
X118161957Y-101090000D01*
X118265363Y-101244759D01*
X118465241Y-101444637D01*
X118697759Y-101600000D01*
X118465241Y-101755363D01*
X118265363Y-101955241D01*
X118108320Y-102190273D01*
X118000147Y-102451426D01*
X117945000Y-102728665D01*
X117945000Y-103011335D01*
X117951983Y-103046439D01*
X117743422Y-103255000D01*
X106564776Y-103255000D01*
X106561008Y-103216746D01*
X106510472Y-103050150D01*
X106428405Y-102896614D01*
X106317962Y-102762038D01*
X106183386Y-102651595D01*
X106029850Y-102569528D01*
X105863254Y-102518992D01*
X105690000Y-102501928D01*
X102590000Y-102501928D01*
X102416746Y-102518992D01*
X102250150Y-102569528D01*
X102096614Y-102651595D01*
X101962038Y-102762038D01*
X101851595Y-102896614D01*
X101769528Y-103050150D01*
X101718992Y-103216746D01*
X101701928Y-103390000D01*
X89027000Y-103390000D01*
X89027000Y-93250000D01*
X102771928Y-93250000D01*
X102771928Y-97250000D01*
X102784188Y-97374482D01*
X102820498Y-97494180D01*
X102879463Y-97604494D01*
X102958815Y-97701185D01*
X103055506Y-97780537D01*
X103165820Y-97839502D01*
X103285518Y-97875812D01*
X103410000Y-97888072D01*
X107410000Y-97888072D01*
X107534482Y-97875812D01*
X107654180Y-97839502D01*
X107764494Y-97780537D01*
X107861185Y-97701185D01*
X107940537Y-97604494D01*
X107999502Y-97494180D01*
X108035812Y-97374482D01*
X108048072Y-97250000D01*
X108048072Y-93250000D01*
X108035812Y-93125518D01*
X107999502Y-93005820D01*
X107940537Y-92895506D01*
X107861185Y-92798815D01*
X107764494Y-92719463D01*
X107654180Y-92660498D01*
X107534482Y-92624188D01*
X107410000Y-92611928D01*
X103410000Y-92611928D01*
X103285518Y-92624188D01*
X103165820Y-92660498D01*
X103055506Y-92719463D01*
X102958815Y-92798815D01*
X102879463Y-92895506D01*
X102820498Y-93005820D01*
X102784188Y-93125518D01*
X102771928Y-93250000D01*
X89027000Y-93250000D01*
X89027000Y-87930434D01*
X105559876Y-87930434D01*
X105590856Y-88058355D01*
X105719990Y-88352761D01*
X105904078Y-88616317D01*
X106136046Y-88838895D01*
X106406980Y-89011942D01*
X106706468Y-89128807D01*
X107023000Y-89185000D01*
X107823000Y-89185000D01*
X107823000Y-87677000D01*
X108077000Y-87677000D01*
X108077000Y-89185000D01*
X108877000Y-89185000D01*
X109193532Y-89128807D01*
X109493020Y-89011942D01*
X109763954Y-88838895D01*
X109995922Y-88616317D01*
X110180010Y-88352761D01*
X110309144Y-88058355D01*
X110340124Y-87930434D01*
X110220777Y-87677000D01*
X108077000Y-87677000D01*
X107823000Y-87677000D01*
X105679223Y-87677000D01*
X105559876Y-87930434D01*
X89027000Y-87930434D01*
X89027000Y-87169566D01*
X105559876Y-87169566D01*
X105679223Y-87423000D01*
X107823000Y-87423000D01*
X107823000Y-85915000D01*
X108077000Y-85915000D01*
X108077000Y-87423000D01*
X110220777Y-87423000D01*
X110340124Y-87169566D01*
X110309144Y-87041645D01*
X110180010Y-86747239D01*
X109995922Y-86483683D01*
X109763954Y-86261105D01*
X109493020Y-86088058D01*
X109193532Y-85971193D01*
X108877000Y-85915000D01*
X108077000Y-85915000D01*
X107823000Y-85915000D01*
X107023000Y-85915000D01*
X106706468Y-85971193D01*
X106406980Y-86088058D01*
X106136046Y-86261105D01*
X105904078Y-86483683D01*
X105719990Y-86747239D01*
X105590856Y-87041645D01*
X105559876Y-87169566D01*
X89027000Y-87169566D01*
X89027000Y-76058665D01*
X98895000Y-76058665D01*
X98895000Y-76341335D01*
X98950147Y-76618574D01*
X99058320Y-76879727D01*
X99215363Y-77114759D01*
X99415241Y-77314637D01*
X99650273Y-77471680D01*
X99911426Y-77579853D01*
X100188665Y-77635000D01*
X100471335Y-77635000D01*
X100748574Y-77579853D01*
X101009727Y-77471680D01*
X101244759Y-77314637D01*
X101444637Y-77114759D01*
X101548043Y-76960000D01*
X106365199Y-76960000D01*
X107190000Y-77784802D01*
X107190001Y-79972658D01*
X107190000Y-79972668D01*
X107190000Y-80911928D01*
X106400000Y-80911928D01*
X106226746Y-80928992D01*
X106060150Y-80979528D01*
X105906614Y-81061595D01*
X105772038Y-81172038D01*
X105661595Y-81306614D01*
X105579528Y-81460150D01*
X105528992Y-81626746D01*
X105511928Y-81800000D01*
X105511928Y-83300000D01*
X105528992Y-83473254D01*
X105579528Y-83639850D01*
X105661595Y-83793386D01*
X105772038Y-83927962D01*
X105906614Y-84038405D01*
X106060150Y-84120472D01*
X106226746Y-84171008D01*
X106400000Y-84188072D01*
X109500000Y-84188072D01*
X109673254Y-84171008D01*
X109839850Y-84120472D01*
X109993386Y-84038405D01*
X110127962Y-83927962D01*
X110238405Y-83793386D01*
X110320472Y-83639850D01*
X110371008Y-83473254D01*
X110388072Y-83300000D01*
X110388072Y-81800000D01*
X110371008Y-81626746D01*
X110320472Y-81460150D01*
X110238405Y-81306614D01*
X110127962Y-81172038D01*
X109993386Y-81061595D01*
X109839850Y-80979528D01*
X109673254Y-80928992D01*
X109500000Y-80911928D01*
X108710000Y-80911928D01*
X108710000Y-77507322D01*
X108713676Y-77469999D01*
X108710000Y-77432676D01*
X108710000Y-77432667D01*
X108699003Y-77321014D01*
X108655546Y-77177753D01*
X108584974Y-77045724D01*
X108490001Y-76929999D01*
X108461004Y-76906202D01*
X107613467Y-76058665D01*
X116675000Y-76058665D01*
X116675000Y-76341335D01*
X116730147Y-76618574D01*
X116838320Y-76879727D01*
X116995363Y-77114759D01*
X117195241Y-77314637D01*
X117350000Y-77418044D01*
X117350001Y-79972667D01*
X117346324Y-80010000D01*
X117360998Y-80158985D01*
X117404454Y-80302246D01*
X117475026Y-80434276D01*
X117546201Y-80521002D01*
X117570000Y-80550001D01*
X117598998Y-80573799D01*
X117741928Y-80716729D01*
X117741928Y-82830000D01*
X117758992Y-83003254D01*
X117809528Y-83169850D01*
X117891595Y-83323386D01*
X118002038Y-83457962D01*
X118136614Y-83568405D01*
X118290150Y-83650472D01*
X118456746Y-83701008D01*
X118630000Y-83718072D01*
X120130000Y-83718072D01*
X120303254Y-83701008D01*
X120469850Y-83650472D01*
X120623386Y-83568405D01*
X120757962Y-83457962D01*
X120868405Y-83323386D01*
X120950472Y-83169850D01*
X121001008Y-83003254D01*
X121018072Y-82830000D01*
X121018072Y-81407000D01*
X122745000Y-81407000D01*
X122745000Y-82207000D01*
X122801193Y-82523532D01*
X122918058Y-82823020D01*
X123091105Y-83093954D01*
X123313683Y-83325922D01*
X123577239Y-83510010D01*
X123871645Y-83639144D01*
X123999566Y-83670124D01*
X124253000Y-83550777D01*
X124253000Y-81407000D01*
X124507000Y-81407000D01*
X124507000Y-83550777D01*
X124760434Y-83670124D01*
X124888355Y-83639144D01*
X125182761Y-83510010D01*
X125446317Y-83325922D01*
X125668895Y-83093954D01*
X125841942Y-82823020D01*
X125958807Y-82523532D01*
X126015000Y-82207000D01*
X126015000Y-81407000D01*
X124507000Y-81407000D01*
X124253000Y-81407000D01*
X122745000Y-81407000D01*
X121018072Y-81407000D01*
X121018072Y-80353000D01*
X122745000Y-80353000D01*
X122745000Y-81153000D01*
X124253000Y-81153000D01*
X124253000Y-79009223D01*
X124507000Y-79009223D01*
X124507000Y-81153000D01*
X126015000Y-81153000D01*
X126015000Y-80353000D01*
X125958807Y-80036468D01*
X125841942Y-79736980D01*
X125668895Y-79466046D01*
X125446317Y-79234078D01*
X125182761Y-79049990D01*
X124888355Y-78920856D01*
X124760434Y-78889876D01*
X124507000Y-79009223D01*
X124253000Y-79009223D01*
X123999566Y-78889876D01*
X123871645Y-78920856D01*
X123577239Y-79049990D01*
X123313683Y-79234078D01*
X123091105Y-79466046D01*
X122918058Y-79736980D01*
X122801193Y-80036468D01*
X122745000Y-80353000D01*
X121018072Y-80353000D01*
X121018072Y-79730000D01*
X121001008Y-79556746D01*
X120950472Y-79390150D01*
X120868405Y-79236614D01*
X120757962Y-79102038D01*
X120623386Y-78991595D01*
X120469850Y-78909528D01*
X120303254Y-78858992D01*
X120130000Y-78841928D01*
X118870000Y-78841928D01*
X118870000Y-77418043D01*
X119024759Y-77314637D01*
X119224637Y-77114759D01*
X119328043Y-76960000D01*
X121882678Y-76960000D01*
X121920000Y-76963676D01*
X121957322Y-76960000D01*
X121957333Y-76960000D01*
X122068986Y-76949003D01*
X122212247Y-76905546D01*
X122344276Y-76834974D01*
X122460001Y-76740001D01*
X122483804Y-76710997D01*
X123136136Y-76058665D01*
X134455000Y-76058665D01*
X134455000Y-76341335D01*
X134510147Y-76618574D01*
X134618320Y-76879727D01*
X134775363Y-77114759D01*
X134975241Y-77314637D01*
X135130000Y-77418044D01*
X135130001Y-79972667D01*
X135126324Y-80010000D01*
X135140998Y-80158985D01*
X135184454Y-80302246D01*
X135255026Y-80434276D01*
X135326201Y-80521002D01*
X135350000Y-80550001D01*
X135378998Y-80573799D01*
X135521928Y-80716729D01*
X135521928Y-82830000D01*
X135538992Y-83003254D01*
X135589528Y-83169850D01*
X135671595Y-83323386D01*
X135782038Y-83457962D01*
X135916614Y-83568405D01*
X136070150Y-83650472D01*
X136236746Y-83701008D01*
X136410000Y-83718072D01*
X137910000Y-83718072D01*
X138083254Y-83701008D01*
X138249850Y-83650472D01*
X138403386Y-83568405D01*
X138537962Y-83457962D01*
X138648405Y-83323386D01*
X138730472Y-83169850D01*
X138781008Y-83003254D01*
X138798072Y-82830000D01*
X138798072Y-81407000D01*
X140525000Y-81407000D01*
X140525000Y-82207000D01*
X140581193Y-82523532D01*
X140698058Y-82823020D01*
X140871105Y-83093954D01*
X141093683Y-83325922D01*
X141357239Y-83510010D01*
X141651645Y-83639144D01*
X141779566Y-83670124D01*
X142033000Y-83550777D01*
X142033000Y-81407000D01*
X142287000Y-81407000D01*
X142287000Y-83550777D01*
X142540434Y-83670124D01*
X142668355Y-83639144D01*
X142962761Y-83510010D01*
X143226317Y-83325922D01*
X143448895Y-83093954D01*
X143621942Y-82823020D01*
X143738807Y-82523532D01*
X143795000Y-82207000D01*
X143795000Y-81407000D01*
X142287000Y-81407000D01*
X142033000Y-81407000D01*
X140525000Y-81407000D01*
X138798072Y-81407000D01*
X138798072Y-80353000D01*
X140525000Y-80353000D01*
X140525000Y-81153000D01*
X142033000Y-81153000D01*
X142033000Y-79009223D01*
X142287000Y-79009223D01*
X142287000Y-81153000D01*
X143795000Y-81153000D01*
X143795000Y-80353000D01*
X143738807Y-80036468D01*
X143621942Y-79736980D01*
X143448895Y-79466046D01*
X143226317Y-79234078D01*
X142962761Y-79049990D01*
X142668355Y-78920856D01*
X142540434Y-78889876D01*
X142287000Y-79009223D01*
X142033000Y-79009223D01*
X141779566Y-78889876D01*
X141651645Y-78920856D01*
X141357239Y-79049990D01*
X141093683Y-79234078D01*
X140871105Y-79466046D01*
X140698058Y-79736980D01*
X140581193Y-80036468D01*
X140525000Y-80353000D01*
X138798072Y-80353000D01*
X138798072Y-79730000D01*
X138781008Y-79556746D01*
X138730472Y-79390150D01*
X138648405Y-79236614D01*
X138537962Y-79102038D01*
X138403386Y-78991595D01*
X138249850Y-78909528D01*
X138083254Y-78858992D01*
X137910000Y-78841928D01*
X136650000Y-78841928D01*
X136650000Y-77418043D01*
X136804759Y-77314637D01*
X137004637Y-77114759D01*
X137108043Y-76960000D01*
X139662678Y-76960000D01*
X139700000Y-76963676D01*
X139737322Y-76960000D01*
X139737333Y-76960000D01*
X139848986Y-76949003D01*
X139992247Y-76905546D01*
X140124276Y-76834974D01*
X140240001Y-76740001D01*
X140263804Y-76710997D01*
X140916136Y-76058665D01*
X152235000Y-76058665D01*
X152235000Y-76341335D01*
X152290147Y-76618574D01*
X152398320Y-76879727D01*
X152555363Y-77114759D01*
X152755241Y-77314637D01*
X152910000Y-77418044D01*
X152910001Y-79972667D01*
X152906324Y-80010000D01*
X152920998Y-80158985D01*
X152964454Y-80302246D01*
X153035026Y-80434276D01*
X153106201Y-80521002D01*
X153130000Y-80550001D01*
X153158998Y-80573799D01*
X153301928Y-80716729D01*
X153301928Y-82830000D01*
X153318992Y-83003254D01*
X153369528Y-83169850D01*
X153451595Y-83323386D01*
X153562038Y-83457962D01*
X153696614Y-83568405D01*
X153850150Y-83650472D01*
X154016746Y-83701008D01*
X154190000Y-83718072D01*
X155690000Y-83718072D01*
X155863254Y-83701008D01*
X156029850Y-83650472D01*
X156183386Y-83568405D01*
X156317962Y-83457962D01*
X156428405Y-83323386D01*
X156510472Y-83169850D01*
X156561008Y-83003254D01*
X156578072Y-82830000D01*
X156578072Y-81407000D01*
X158305000Y-81407000D01*
X158305000Y-82207000D01*
X158361193Y-82523532D01*
X158478058Y-82823020D01*
X158651105Y-83093954D01*
X158873683Y-83325922D01*
X159137239Y-83510010D01*
X159431645Y-83639144D01*
X159559566Y-83670124D01*
X159813000Y-83550777D01*
X159813000Y-81407000D01*
X160067000Y-81407000D01*
X160067000Y-83550777D01*
X160320434Y-83670124D01*
X160448355Y-83639144D01*
X160742761Y-83510010D01*
X161006317Y-83325922D01*
X161228895Y-83093954D01*
X161401942Y-82823020D01*
X161518807Y-82523532D01*
X161575000Y-82207000D01*
X161575000Y-81407000D01*
X160067000Y-81407000D01*
X159813000Y-81407000D01*
X158305000Y-81407000D01*
X156578072Y-81407000D01*
X156578072Y-80353000D01*
X158305000Y-80353000D01*
X158305000Y-81153000D01*
X159813000Y-81153000D01*
X159813000Y-79009223D01*
X160067000Y-79009223D01*
X160067000Y-81153000D01*
X161575000Y-81153000D01*
X161575000Y-80353000D01*
X161518807Y-80036468D01*
X161401942Y-79736980D01*
X161228895Y-79466046D01*
X161006317Y-79234078D01*
X160742761Y-79049990D01*
X160448355Y-78920856D01*
X160320434Y-78889876D01*
X160067000Y-79009223D01*
X159813000Y-79009223D01*
X159559566Y-78889876D01*
X159431645Y-78920856D01*
X159137239Y-79049990D01*
X158873683Y-79234078D01*
X158651105Y-79466046D01*
X158478058Y-79736980D01*
X158361193Y-80036468D01*
X158305000Y-80353000D01*
X156578072Y-80353000D01*
X156578072Y-79730000D01*
X156561008Y-79556746D01*
X156510472Y-79390150D01*
X156428405Y-79236614D01*
X156317962Y-79102038D01*
X156183386Y-78991595D01*
X156029850Y-78909528D01*
X155863254Y-78858992D01*
X155690000Y-78841928D01*
X154430000Y-78841928D01*
X154430000Y-77418043D01*
X154584759Y-77314637D01*
X154784637Y-77114759D01*
X154888043Y-76960000D01*
X157442678Y-76960000D01*
X157480000Y-76963676D01*
X157517322Y-76960000D01*
X157517333Y-76960000D01*
X157628986Y-76949003D01*
X157772247Y-76905546D01*
X157904276Y-76834974D01*
X158020001Y-76740001D01*
X158043804Y-76710997D01*
X160531009Y-74223794D01*
X160560001Y-74200001D01*
X160583795Y-74171008D01*
X160583799Y-74171004D01*
X160654973Y-74084277D01*
X160654974Y-74084276D01*
X160725546Y-73952247D01*
X160769003Y-73808986D01*
X160780000Y-73697333D01*
X160780000Y-73697324D01*
X160783676Y-73660001D01*
X160780000Y-73622678D01*
X160780000Y-72758072D01*
X161020000Y-72758072D01*
X161144482Y-72745812D01*
X161264180Y-72709502D01*
X161374494Y-72650537D01*
X161471185Y-72571185D01*
X161550537Y-72474494D01*
X161609502Y-72364180D01*
X161645812Y-72244482D01*
X161658072Y-72120000D01*
X161658072Y-70120000D01*
X161645812Y-69995518D01*
X161609502Y-69875820D01*
X161550537Y-69765506D01*
X161471185Y-69668815D01*
X161374494Y-69589463D01*
X161264180Y-69530498D01*
X161144482Y-69494188D01*
X161020000Y-69481928D01*
X159020000Y-69481928D01*
X158895518Y-69494188D01*
X158775820Y-69530498D01*
X158665506Y-69589463D01*
X158568815Y-69668815D01*
X158489463Y-69765506D01*
X158430498Y-69875820D01*
X158394188Y-69995518D01*
X158381928Y-70120000D01*
X158381928Y-72120000D01*
X158394188Y-72244482D01*
X158430498Y-72364180D01*
X158489463Y-72474494D01*
X158568815Y-72571185D01*
X158665506Y-72650537D01*
X158775820Y-72709502D01*
X158895518Y-72745812D01*
X159020000Y-72758072D01*
X159260000Y-72758072D01*
X159260000Y-73345197D01*
X157165199Y-75440000D01*
X154888043Y-75440000D01*
X154784637Y-75285241D01*
X154584759Y-75085363D01*
X154349727Y-74928320D01*
X154088574Y-74820147D01*
X153811335Y-74765000D01*
X153528665Y-74765000D01*
X153251426Y-74820147D01*
X152990273Y-74928320D01*
X152755241Y-75085363D01*
X152555363Y-75285241D01*
X152398320Y-75520273D01*
X152290147Y-75781426D01*
X152235000Y-76058665D01*
X140916136Y-76058665D01*
X142751009Y-74223794D01*
X142780001Y-74200001D01*
X142803795Y-74171008D01*
X142803799Y-74171004D01*
X142874973Y-74084277D01*
X142874974Y-74084276D01*
X142945546Y-73952247D01*
X142989003Y-73808986D01*
X143000000Y-73697333D01*
X143000000Y-73697324D01*
X143003676Y-73660001D01*
X143000000Y-73622678D01*
X143000000Y-72758072D01*
X143240000Y-72758072D01*
X143364482Y-72745812D01*
X143484180Y-72709502D01*
X143594494Y-72650537D01*
X143691185Y-72571185D01*
X143770537Y-72474494D01*
X143829502Y-72364180D01*
X143865812Y-72244482D01*
X143878072Y-72120000D01*
X143878072Y-70120000D01*
X143865812Y-69995518D01*
X143829502Y-69875820D01*
X143770537Y-69765506D01*
X143691185Y-69668815D01*
X143594494Y-69589463D01*
X143484180Y-69530498D01*
X143364482Y-69494188D01*
X143240000Y-69481928D01*
X141240000Y-69481928D01*
X141115518Y-69494188D01*
X140995820Y-69530498D01*
X140885506Y-69589463D01*
X140788815Y-69668815D01*
X140709463Y-69765506D01*
X140650498Y-69875820D01*
X140614188Y-69995518D01*
X140601928Y-70120000D01*
X140601928Y-72120000D01*
X140614188Y-72244482D01*
X140650498Y-72364180D01*
X140709463Y-72474494D01*
X140788815Y-72571185D01*
X140885506Y-72650537D01*
X140995820Y-72709502D01*
X141115518Y-72745812D01*
X141240000Y-72758072D01*
X141480000Y-72758072D01*
X141480000Y-73345197D01*
X139385199Y-75440000D01*
X137108043Y-75440000D01*
X137004637Y-75285241D01*
X136804759Y-75085363D01*
X136569727Y-74928320D01*
X136308574Y-74820147D01*
X136031335Y-74765000D01*
X135748665Y-74765000D01*
X135471426Y-74820147D01*
X135210273Y-74928320D01*
X134975241Y-75085363D01*
X134775363Y-75285241D01*
X134618320Y-75520273D01*
X134510147Y-75781426D01*
X134455000Y-76058665D01*
X123136136Y-76058665D01*
X124971009Y-74223794D01*
X125000001Y-74200001D01*
X125023795Y-74171008D01*
X125023799Y-74171004D01*
X125094973Y-74084277D01*
X125094974Y-74084276D01*
X125165546Y-73952247D01*
X125209003Y-73808986D01*
X125220000Y-73697333D01*
X125220000Y-73697324D01*
X125223676Y-73660001D01*
X125220000Y-73622678D01*
X125220000Y-72758072D01*
X125460000Y-72758072D01*
X125584482Y-72745812D01*
X125704180Y-72709502D01*
X125814494Y-72650537D01*
X125911185Y-72571185D01*
X125990537Y-72474494D01*
X126049502Y-72364180D01*
X126085812Y-72244482D01*
X126098072Y-72120000D01*
X126098072Y-70120000D01*
X126085812Y-69995518D01*
X126049502Y-69875820D01*
X125990537Y-69765506D01*
X125911185Y-69668815D01*
X125814494Y-69589463D01*
X125704180Y-69530498D01*
X125584482Y-69494188D01*
X125460000Y-69481928D01*
X123460000Y-69481928D01*
X123335518Y-69494188D01*
X123215820Y-69530498D01*
X123105506Y-69589463D01*
X123008815Y-69668815D01*
X122929463Y-69765506D01*
X122870498Y-69875820D01*
X122834188Y-69995518D01*
X122821928Y-70120000D01*
X122821928Y-72120000D01*
X122834188Y-72244482D01*
X122870498Y-72364180D01*
X122929463Y-72474494D01*
X123008815Y-72571185D01*
X123105506Y-72650537D01*
X123215820Y-72709502D01*
X123335518Y-72745812D01*
X123460000Y-72758072D01*
X123700000Y-72758072D01*
X123700000Y-73345197D01*
X121605199Y-75440000D01*
X119328043Y-75440000D01*
X119224637Y-75285241D01*
X119024759Y-75085363D01*
X118789727Y-74928320D01*
X118528574Y-74820147D01*
X118251335Y-74765000D01*
X117968665Y-74765000D01*
X117691426Y-74820147D01*
X117430273Y-74928320D01*
X117195241Y-75085363D01*
X116995363Y-75285241D01*
X116838320Y-75520273D01*
X116730147Y-75781426D01*
X116675000Y-76058665D01*
X107613467Y-76058665D01*
X107440000Y-75885199D01*
X107440000Y-72758072D01*
X107680000Y-72758072D01*
X107804482Y-72745812D01*
X107924180Y-72709502D01*
X108034494Y-72650537D01*
X108131185Y-72571185D01*
X108210537Y-72474494D01*
X108269502Y-72364180D01*
X108305812Y-72244482D01*
X108318072Y-72120000D01*
X108318072Y-70120000D01*
X108305812Y-69995518D01*
X108269502Y-69875820D01*
X108210537Y-69765506D01*
X108131185Y-69668815D01*
X108034494Y-69589463D01*
X107924180Y-69530498D01*
X107804482Y-69494188D01*
X107680000Y-69481928D01*
X105680000Y-69481928D01*
X105555518Y-69494188D01*
X105435820Y-69530498D01*
X105325506Y-69589463D01*
X105228815Y-69668815D01*
X105149463Y-69765506D01*
X105090498Y-69875820D01*
X105054188Y-69995518D01*
X105041928Y-70120000D01*
X105041928Y-72120000D01*
X105054188Y-72244482D01*
X105090498Y-72364180D01*
X105149463Y-72474494D01*
X105228815Y-72571185D01*
X105325506Y-72650537D01*
X105435820Y-72709502D01*
X105555518Y-72745812D01*
X105680000Y-72758072D01*
X105920001Y-72758072D01*
X105920000Y-75440000D01*
X101548043Y-75440000D01*
X101444637Y-75285241D01*
X101244759Y-75085363D01*
X101009727Y-74928320D01*
X100748574Y-74820147D01*
X100471335Y-74765000D01*
X100188665Y-74765000D01*
X99911426Y-74820147D01*
X99650273Y-74928320D01*
X99415241Y-75085363D01*
X99215363Y-75285241D01*
X99058320Y-75520273D01*
X98950147Y-75781426D01*
X98895000Y-76058665D01*
X89027000Y-76058665D01*
X89027000Y-62034495D01*
X90725000Y-62034495D01*
X90725000Y-62425505D01*
X90801282Y-62809003D01*
X90950915Y-63170250D01*
X91168149Y-63495364D01*
X91444636Y-63771851D01*
X91769750Y-63989085D01*
X92130997Y-64138718D01*
X92514495Y-64215000D01*
X92905505Y-64215000D01*
X93289003Y-64138718D01*
X93650250Y-63989085D01*
X93975364Y-63771851D01*
X94251851Y-63495364D01*
X94469085Y-63170250D01*
X94618718Y-62809003D01*
X94695000Y-62425505D01*
X94695000Y-62034495D01*
X94618718Y-61650997D01*
X94469085Y-61289750D01*
X94251851Y-60964636D01*
X93975364Y-60688149D01*
X93650250Y-60470915D01*
X93289003Y-60321282D01*
X92905505Y-60245000D01*
X92514495Y-60245000D01*
X92130997Y-60321282D01*
X91769750Y-60470915D01*
X91444636Y-60688149D01*
X91168149Y-60964636D01*
X90950915Y-61289750D01*
X90801282Y-61650997D01*
X90725000Y-62034495D01*
X89027000Y-62034495D01*
X89027000Y-58547000D01*
X168783000Y-58547000D01*
X168783000Y-92583000D01*
%TA.AperFunction,Conductor*%
D24*
G36*
X168783000Y-92583000D02*
G01*
X167130000Y-92583000D01*
X167130000Y-71157323D01*
X167133676Y-71120000D01*
X167130000Y-71082677D01*
X167130000Y-71082667D01*
X167119003Y-70971014D01*
X167075546Y-70827753D01*
X167004975Y-70695725D01*
X167004974Y-70695723D01*
X166933799Y-70608997D01*
X166910001Y-70579999D01*
X166881004Y-70556202D01*
X161853804Y-65529003D01*
X161830001Y-65499999D01*
X161714276Y-65405026D01*
X161582247Y-65334454D01*
X161438986Y-65290997D01*
X161327333Y-65280000D01*
X161327322Y-65280000D01*
X161290000Y-65276324D01*
X161252678Y-65280000D01*
X154888043Y-65280000D01*
X154784637Y-65125241D01*
X154584759Y-64925363D01*
X154349727Y-64768320D01*
X154088574Y-64660147D01*
X153811335Y-64605000D01*
X153528665Y-64605000D01*
X153251426Y-64660147D01*
X152990273Y-64768320D01*
X152755241Y-64925363D01*
X152555363Y-65125241D01*
X152451957Y-65280000D01*
X137108043Y-65280000D01*
X137004637Y-65125241D01*
X136804759Y-64925363D01*
X136569727Y-64768320D01*
X136308574Y-64660147D01*
X136031335Y-64605000D01*
X135748665Y-64605000D01*
X135471426Y-64660147D01*
X135210273Y-64768320D01*
X134975241Y-64925363D01*
X134775363Y-65125241D01*
X134671957Y-65280000D01*
X127760000Y-65280000D01*
X127760000Y-62598072D01*
X128000000Y-62598072D01*
X128124482Y-62585812D01*
X128244180Y-62549502D01*
X128354494Y-62490537D01*
X128451185Y-62411185D01*
X128530537Y-62314494D01*
X128589502Y-62204180D01*
X128625812Y-62084482D01*
X128630735Y-62034495D01*
X163115000Y-62034495D01*
X163115000Y-62425505D01*
X163191282Y-62809003D01*
X163340915Y-63170250D01*
X163558149Y-63495364D01*
X163834636Y-63771851D01*
X164159750Y-63989085D01*
X164520997Y-64138718D01*
X164904495Y-64215000D01*
X165295505Y-64215000D01*
X165679003Y-64138718D01*
X166040250Y-63989085D01*
X166365364Y-63771851D01*
X166641851Y-63495364D01*
X166859085Y-63170250D01*
X167008718Y-62809003D01*
X167085000Y-62425505D01*
X167085000Y-62034495D01*
X167008718Y-61650997D01*
X166859085Y-61289750D01*
X166641851Y-60964636D01*
X166365364Y-60688149D01*
X166040250Y-60470915D01*
X165679003Y-60321282D01*
X165295505Y-60245000D01*
X164904495Y-60245000D01*
X164520997Y-60321282D01*
X164159750Y-60470915D01*
X163834636Y-60688149D01*
X163558149Y-60964636D01*
X163340915Y-61289750D01*
X163191282Y-61650997D01*
X163115000Y-62034495D01*
X128630735Y-62034495D01*
X128638072Y-61960000D01*
X128638072Y-59960000D01*
X128625812Y-59835518D01*
X128589502Y-59715820D01*
X128530537Y-59605506D01*
X128451185Y-59508815D01*
X128354494Y-59429463D01*
X128244180Y-59370498D01*
X128124482Y-59334188D01*
X128000000Y-59321928D01*
X126000000Y-59321928D01*
X125875518Y-59334188D01*
X125755820Y-59370498D01*
X125645506Y-59429463D01*
X125548815Y-59508815D01*
X125469463Y-59605506D01*
X125410498Y-59715820D01*
X125374188Y-59835518D01*
X125361928Y-59960000D01*
X125361928Y-61960000D01*
X125374188Y-62084482D01*
X125410498Y-62204180D01*
X125469463Y-62314494D01*
X125548815Y-62411185D01*
X125645506Y-62490537D01*
X125755820Y-62549502D01*
X125875518Y-62585812D01*
X126000000Y-62598072D01*
X126240001Y-62598072D01*
X126240000Y-65280000D01*
X119328043Y-65280000D01*
X119224637Y-65125241D01*
X119024759Y-64925363D01*
X118789727Y-64768320D01*
X118528574Y-64660147D01*
X118251335Y-64605000D01*
X117968665Y-64605000D01*
X117691426Y-64660147D01*
X117430273Y-64768320D01*
X117195241Y-64925363D01*
X116995363Y-65125241D01*
X116891957Y-65280000D01*
X101548043Y-65280000D01*
X101444637Y-65125241D01*
X101244759Y-64925363D01*
X101009727Y-64768320D01*
X100748574Y-64660147D01*
X100471335Y-64605000D01*
X100188665Y-64605000D01*
X99911426Y-64660147D01*
X99650273Y-64768320D01*
X99415241Y-64925363D01*
X99215363Y-65125241D01*
X99058320Y-65360273D01*
X98950147Y-65621426D01*
X98895000Y-65898665D01*
X98895000Y-66181335D01*
X98950147Y-66458574D01*
X99058320Y-66719727D01*
X99215363Y-66954759D01*
X99415241Y-67154637D01*
X99650273Y-67311680D01*
X99911426Y-67419853D01*
X100188665Y-67475000D01*
X100471335Y-67475000D01*
X100748574Y-67419853D01*
X101009727Y-67311680D01*
X101244759Y-67154637D01*
X101444637Y-66954759D01*
X101548043Y-66800000D01*
X116891957Y-66800000D01*
X116995363Y-66954759D01*
X117195241Y-67154637D01*
X117430273Y-67311680D01*
X117691426Y-67419853D01*
X117968665Y-67475000D01*
X118251335Y-67475000D01*
X118528574Y-67419853D01*
X118789727Y-67311680D01*
X119024759Y-67154637D01*
X119224637Y-66954759D01*
X119328043Y-66800000D01*
X126962667Y-66800000D01*
X127000000Y-66803677D01*
X127037333Y-66800000D01*
X134671957Y-66800000D01*
X134775363Y-66954759D01*
X134975241Y-67154637D01*
X135210273Y-67311680D01*
X135471426Y-67419853D01*
X135748665Y-67475000D01*
X136031335Y-67475000D01*
X136308574Y-67419853D01*
X136569727Y-67311680D01*
X136804759Y-67154637D01*
X137004637Y-66954759D01*
X137108043Y-66800000D01*
X152451957Y-66800000D01*
X152555363Y-66954759D01*
X152755241Y-67154637D01*
X152990273Y-67311680D01*
X153251426Y-67419853D01*
X153528665Y-67475000D01*
X153811335Y-67475000D01*
X154088574Y-67419853D01*
X154349727Y-67311680D01*
X154584759Y-67154637D01*
X154784637Y-66954759D01*
X154888043Y-66800000D01*
X160975199Y-66800000D01*
X165610000Y-71434802D01*
X165610001Y-92395197D01*
X165422198Y-92583000D01*
X127000000Y-92583000D01*
X126975224Y-92585440D01*
X126951399Y-92592667D01*
X126929443Y-92604403D01*
X126910197Y-92620197D01*
X126894403Y-92639443D01*
X126882667Y-92661399D01*
X126875440Y-92685224D01*
X126873000Y-92710000D01*
X126873000Y-94302199D01*
X126489003Y-94686196D01*
X126459999Y-94709999D01*
X126404871Y-94777174D01*
X126365026Y-94825724D01*
X126334984Y-94881928D01*
X126294454Y-94957754D01*
X126250997Y-95101015D01*
X126240000Y-95212668D01*
X126240000Y-95212678D01*
X126236324Y-95250000D01*
X126240000Y-95287323D01*
X126240001Y-96571956D01*
X126085241Y-96675363D01*
X125885363Y-96875241D01*
X125728320Y-97110273D01*
X125620147Y-97371426D01*
X125565000Y-97648665D01*
X125565000Y-97931335D01*
X125620147Y-98208574D01*
X125728320Y-98469727D01*
X125885363Y-98704759D01*
X126085241Y-98904637D01*
X126317759Y-99060000D01*
X126085241Y-99215363D01*
X125885363Y-99415241D01*
X125728320Y-99650273D01*
X125620147Y-99911426D01*
X125565000Y-100188665D01*
X125565000Y-100471335D01*
X125620147Y-100748574D01*
X125728320Y-101009727D01*
X125885363Y-101244759D01*
X126085241Y-101444637D01*
X126317759Y-101600000D01*
X126085241Y-101755363D01*
X125885363Y-101955241D01*
X125728320Y-102190273D01*
X125620147Y-102451426D01*
X125565000Y-102728665D01*
X125565000Y-103011335D01*
X125620147Y-103288574D01*
X125728320Y-103549727D01*
X125885363Y-103784759D01*
X126085241Y-103984637D01*
X126320273Y-104141680D01*
X126330865Y-104146067D01*
X126144869Y-104257615D01*
X125936481Y-104446586D01*
X125768963Y-104672580D01*
X125648754Y-104926913D01*
X125608096Y-105060961D01*
X125730085Y-105283000D01*
X126873000Y-105283000D01*
X126873000Y-105537000D01*
X125730085Y-105537000D01*
X125608096Y-105759039D01*
X125648754Y-105893087D01*
X125768963Y-106147420D01*
X125936481Y-106373414D01*
X126144869Y-106562385D01*
X126340982Y-106680000D01*
X126144869Y-106797615D01*
X125936481Y-106986586D01*
X125768963Y-107212580D01*
X125648754Y-107466913D01*
X125608096Y-107600961D01*
X125730085Y-107823000D01*
X126873000Y-107823000D01*
X126873000Y-108077000D01*
X125730085Y-108077000D01*
X125608096Y-108299039D01*
X125648754Y-108433087D01*
X125768963Y-108687420D01*
X125936481Y-108913414D01*
X126144869Y-109102385D01*
X126330865Y-109213933D01*
X126320273Y-109218320D01*
X126085241Y-109375363D01*
X125885363Y-109575241D01*
X125728320Y-109810273D01*
X125620147Y-110071426D01*
X125565000Y-110348665D01*
X125565000Y-110631335D01*
X125620147Y-110908574D01*
X125728320Y-111169727D01*
X125885363Y-111404759D01*
X126085241Y-111604637D01*
X126317759Y-111760000D01*
X126085241Y-111915363D01*
X125885363Y-112115241D01*
X125728320Y-112350273D01*
X125620147Y-112611426D01*
X125565000Y-112888665D01*
X125565000Y-113171335D01*
X125620147Y-113448574D01*
X125728320Y-113709727D01*
X125885363Y-113944759D01*
X126085241Y-114144637D01*
X126317759Y-114300000D01*
X126085241Y-114455363D01*
X125885363Y-114655241D01*
X125728320Y-114890273D01*
X125620147Y-115151426D01*
X125565000Y-115428665D01*
X125565000Y-115711335D01*
X125620147Y-115988574D01*
X125728320Y-116249727D01*
X125885363Y-116484759D01*
X126085241Y-116684637D01*
X126320273Y-116841680D01*
X126581426Y-116949853D01*
X126858665Y-117005000D01*
X126873000Y-117005000D01*
X126873000Y-121920000D01*
X126875440Y-121944776D01*
X126882667Y-121968601D01*
X126894403Y-121990557D01*
X126910197Y-122009803D01*
X126929443Y-122025597D01*
X126951399Y-122037333D01*
X126975224Y-122044560D01*
X127000000Y-122047000D01*
X163689785Y-122047000D01*
X163834636Y-122191851D01*
X164159750Y-122409085D01*
X164520997Y-122558718D01*
X164904495Y-122635000D01*
X165295505Y-122635000D01*
X165679003Y-122558718D01*
X166040250Y-122409085D01*
X166365364Y-122191851D01*
X166510215Y-122047000D01*
X168783000Y-122047000D01*
X168783000Y-124333000D01*
X89027000Y-124333000D01*
X89027000Y-120454495D01*
X90725000Y-120454495D01*
X90725000Y-120845505D01*
X90801282Y-121229003D01*
X90950915Y-121590250D01*
X91168149Y-121915364D01*
X91444636Y-122191851D01*
X91769750Y-122409085D01*
X92130997Y-122558718D01*
X92514495Y-122635000D01*
X92905505Y-122635000D01*
X93289003Y-122558718D01*
X93650250Y-122409085D01*
X93975364Y-122191851D01*
X94251851Y-121915364D01*
X94469085Y-121590250D01*
X94618718Y-121229003D01*
X94695000Y-120845505D01*
X94695000Y-120454495D01*
X94618718Y-120070997D01*
X94469085Y-119709750D01*
X94251851Y-119384636D01*
X93975364Y-119108149D01*
X93650250Y-118890915D01*
X93289003Y-118741282D01*
X92905505Y-118665000D01*
X92514495Y-118665000D01*
X92130997Y-118741282D01*
X91769750Y-118890915D01*
X91444636Y-119108149D01*
X91168149Y-119384636D01*
X90950915Y-119709750D01*
X90801282Y-120070997D01*
X90725000Y-120454495D01*
X89027000Y-120454495D01*
X89027000Y-109140000D01*
X101697089Y-109140000D01*
X101728657Y-109460516D01*
X101822148Y-109768715D01*
X101973969Y-110052752D01*
X102178286Y-110301714D01*
X102427248Y-110506031D01*
X102711285Y-110657852D01*
X103019484Y-110751343D01*
X103259678Y-110775000D01*
X105020322Y-110775000D01*
X105260516Y-110751343D01*
X105568715Y-110657852D01*
X105852752Y-110506031D01*
X106101714Y-110301714D01*
X106279565Y-110085001D01*
X117723423Y-110085001D01*
X117951983Y-110313561D01*
X117945000Y-110348665D01*
X117945000Y-110631335D01*
X118000147Y-110908574D01*
X118108320Y-111169727D01*
X118265363Y-111404759D01*
X118465241Y-111604637D01*
X118697759Y-111760000D01*
X118465241Y-111915363D01*
X118265363Y-112115241D01*
X118161957Y-112270000D01*
X114614802Y-112270000D01*
X113593804Y-111249003D01*
X113570001Y-111219999D01*
X113454276Y-111125026D01*
X113322247Y-111054454D01*
X113178986Y-111010997D01*
X113067333Y-111000000D01*
X113067322Y-111000000D01*
X113030000Y-110996324D01*
X112992678Y-111000000D01*
X112128072Y-111000000D01*
X112128072Y-110760000D01*
X112115812Y-110635518D01*
X112079502Y-110515820D01*
X112020537Y-110405506D01*
X111941185Y-110308815D01*
X111844494Y-110229463D01*
X111734180Y-110170498D01*
X111614482Y-110134188D01*
X111490000Y-110121928D01*
X109490000Y-110121928D01*
X109365518Y-110134188D01*
X109245820Y-110170498D01*
X109135506Y-110229463D01*
X109038815Y-110308815D01*
X108959463Y-110405506D01*
X108900498Y-110515820D01*
X108864188Y-110635518D01*
X108851928Y-110760000D01*
X108851928Y-112760000D01*
X108864188Y-112884482D01*
X108900498Y-113004180D01*
X108959463Y-113114494D01*
X109038815Y-113211185D01*
X109135506Y-113290537D01*
X109245820Y-113349502D01*
X109365518Y-113385812D01*
X109490000Y-113398072D01*
X111490000Y-113398072D01*
X111614482Y-113385812D01*
X111734180Y-113349502D01*
X111844494Y-113290537D01*
X111941185Y-113211185D01*
X112020537Y-113114494D01*
X112079502Y-113004180D01*
X112115812Y-112884482D01*
X112128072Y-112760000D01*
X112128072Y-112520000D01*
X112715199Y-112520000D01*
X113736201Y-113541003D01*
X113759999Y-113570001D01*
X113875724Y-113664974D01*
X114007753Y-113735546D01*
X114151014Y-113779003D01*
X114262667Y-113790000D01*
X114262676Y-113790000D01*
X114299999Y-113793676D01*
X114337322Y-113790000D01*
X118161957Y-113790000D01*
X118265363Y-113944759D01*
X118465241Y-114144637D01*
X118697759Y-114300000D01*
X118465241Y-114455363D01*
X118265363Y-114655241D01*
X118161957Y-114810000D01*
X115938072Y-114810000D01*
X115938072Y-114570000D01*
X115925812Y-114445518D01*
X115889502Y-114325820D01*
X115830537Y-114215506D01*
X115751185Y-114118815D01*
X115654494Y-114039463D01*
X115544180Y-113980498D01*
X115424482Y-113944188D01*
X115300000Y-113931928D01*
X113300000Y-113931928D01*
X113175518Y-113944188D01*
X113055820Y-113980498D01*
X112945506Y-114039463D01*
X112848815Y-114118815D01*
X112769463Y-114215506D01*
X112710498Y-114325820D01*
X112674188Y-114445518D01*
X112661928Y-114570000D01*
X112661928Y-116570000D01*
X112674188Y-116694482D01*
X112710498Y-116814180D01*
X112769463Y-116924494D01*
X112848815Y-117021185D01*
X112945506Y-117100537D01*
X113055820Y-117159502D01*
X113175518Y-117195812D01*
X113300000Y-117208072D01*
X115300000Y-117208072D01*
X115424482Y-117195812D01*
X115544180Y-117159502D01*
X115654494Y-117100537D01*
X115751185Y-117021185D01*
X115830537Y-116924494D01*
X115889502Y-116814180D01*
X115925812Y-116694482D01*
X115938072Y-116570000D01*
X115938072Y-116330000D01*
X118161957Y-116330000D01*
X118265363Y-116484759D01*
X118465241Y-116684637D01*
X118700273Y-116841680D01*
X118961426Y-116949853D01*
X119238665Y-117005000D01*
X119521335Y-117005000D01*
X119798574Y-116949853D01*
X120059727Y-116841680D01*
X120294759Y-116684637D01*
X120494637Y-116484759D01*
X120651680Y-116249727D01*
X120759853Y-115988574D01*
X120815000Y-115711335D01*
X120815000Y-115428665D01*
X120759853Y-115151426D01*
X120651680Y-114890273D01*
X120494637Y-114655241D01*
X120294759Y-114455363D01*
X120062241Y-114300000D01*
X120294759Y-114144637D01*
X120494637Y-113944759D01*
X120651680Y-113709727D01*
X120759853Y-113448574D01*
X120815000Y-113171335D01*
X120815000Y-112888665D01*
X120759853Y-112611426D01*
X120651680Y-112350273D01*
X120494637Y-112115241D01*
X120294759Y-111915363D01*
X120062241Y-111760000D01*
X120294759Y-111604637D01*
X120494637Y-111404759D01*
X120651680Y-111169727D01*
X120759853Y-110908574D01*
X120815000Y-110631335D01*
X120815000Y-110348665D01*
X120759853Y-110071426D01*
X120651680Y-109810273D01*
X120494637Y-109575241D01*
X120294759Y-109375363D01*
X120059727Y-109218320D01*
X120049135Y-109213933D01*
X120235131Y-109102385D01*
X120443519Y-108913414D01*
X120611037Y-108687420D01*
X120731246Y-108433087D01*
X120771904Y-108299039D01*
X120649915Y-108077000D01*
X119507000Y-108077000D01*
X119507000Y-108097000D01*
X119253000Y-108097000D01*
X119253000Y-108077000D01*
X118110085Y-108077000D01*
X117988096Y-108299039D01*
X117992937Y-108315001D01*
X106352936Y-108315001D01*
X106306031Y-108227248D01*
X106101714Y-107978286D01*
X105852752Y-107773969D01*
X105568715Y-107622148D01*
X105260516Y-107528657D01*
X105020322Y-107505000D01*
X103259678Y-107505000D01*
X103019484Y-107528657D01*
X102711285Y-107622148D01*
X102427248Y-107773969D01*
X102178286Y-107978286D01*
X101973969Y-108227248D01*
X101822148Y-108511285D01*
X101728657Y-108819484D01*
X101697089Y-109140000D01*
X89027000Y-109140000D01*
X89027000Y-103390000D01*
X101701928Y-103390000D01*
X101701928Y-104890000D01*
X101718992Y-105063254D01*
X101769528Y-105229850D01*
X101851595Y-105383386D01*
X101962038Y-105517962D01*
X102096614Y-105628405D01*
X102250150Y-105710472D01*
X102416746Y-105761008D01*
X102590000Y-105778072D01*
X105690000Y-105778072D01*
X105863254Y-105761008D01*
X105869744Y-105759039D01*
X117988096Y-105759039D01*
X118028754Y-105893087D01*
X118148963Y-106147420D01*
X118316481Y-106373414D01*
X118524869Y-106562385D01*
X118720982Y-106680000D01*
X118524869Y-106797615D01*
X118316481Y-106986586D01*
X118148963Y-107212580D01*
X118028754Y-107466913D01*
X117988096Y-107600961D01*
X118110085Y-107823000D01*
X119253000Y-107823000D01*
X119253000Y-105537000D01*
X119507000Y-105537000D01*
X119507000Y-107823000D01*
X120649915Y-107823000D01*
X120771904Y-107600961D01*
X120731246Y-107466913D01*
X120611037Y-107212580D01*
X120443519Y-106986586D01*
X120235131Y-106797615D01*
X120039018Y-106680000D01*
X120235131Y-106562385D01*
X120443519Y-106373414D01*
X120611037Y-106147420D01*
X120731246Y-105893087D01*
X120771904Y-105759039D01*
X120649915Y-105537000D01*
X119507000Y-105537000D01*
X119253000Y-105537000D01*
X118110085Y-105537000D01*
X117988096Y-105759039D01*
X105869744Y-105759039D01*
X106029850Y-105710472D01*
X106183386Y-105628405D01*
X106317962Y-105517962D01*
X106428405Y-105383386D01*
X106510472Y-105229850D01*
X106561008Y-105063254D01*
X106564776Y-105025000D01*
X117999003Y-105025000D01*
X117988096Y-105060961D01*
X118110085Y-105283000D01*
X119253000Y-105283000D01*
X119253000Y-105263000D01*
X119507000Y-105263000D01*
X119507000Y-105283000D01*
X120649915Y-105283000D01*
X120771904Y-105060961D01*
X120731246Y-104926913D01*
X120611037Y-104672580D01*
X120443519Y-104446586D01*
X120235131Y-104257615D01*
X120049135Y-104146067D01*
X120059727Y-104141680D01*
X120294759Y-103984637D01*
X120494637Y-103784759D01*
X120651680Y-103549727D01*
X120759853Y-103288574D01*
X120815000Y-103011335D01*
X120815000Y-102728665D01*
X120759853Y-102451426D01*
X120651680Y-102190273D01*
X120494637Y-101955241D01*
X120294759Y-101755363D01*
X120062241Y-101600000D01*
X120294759Y-101444637D01*
X120494637Y-101244759D01*
X120651680Y-101009727D01*
X120759853Y-100748574D01*
X120815000Y-100471335D01*
X120815000Y-100188665D01*
X120759853Y-99911426D01*
X120651680Y-99650273D01*
X120494637Y-99415241D01*
X120296039Y-99216643D01*
X120304482Y-99215812D01*
X120424180Y-99179502D01*
X120534494Y-99120537D01*
X120631185Y-99041185D01*
X120710537Y-98944494D01*
X120769502Y-98834180D01*
X120805812Y-98714482D01*
X120818072Y-98590000D01*
X120818072Y-96990000D01*
X120805812Y-96865518D01*
X120769502Y-96745820D01*
X120710537Y-96635506D01*
X120631185Y-96538815D01*
X120534494Y-96459463D01*
X120424180Y-96400498D01*
X120304482Y-96364188D01*
X120180000Y-96351928D01*
X118580000Y-96351928D01*
X118455518Y-96364188D01*
X118335820Y-96400498D01*
X118225506Y-96459463D01*
X118128815Y-96538815D01*
X118049463Y-96635506D01*
X117990498Y-96745820D01*
X117954188Y-96865518D01*
X117941928Y-96990000D01*
X117941928Y-97030000D01*
X115938072Y-97030000D01*
X115938072Y-96790000D01*
X115925812Y-96665518D01*
X115889502Y-96545820D01*
X115830537Y-96435506D01*
X115751185Y-96338815D01*
X115654494Y-96259463D01*
X115544180Y-96200498D01*
X115424482Y-96164188D01*
X115300000Y-96151928D01*
X113300000Y-96151928D01*
X113175518Y-96164188D01*
X113055820Y-96200498D01*
X112945506Y-96259463D01*
X112848815Y-96338815D01*
X112769463Y-96435506D01*
X112710498Y-96545820D01*
X112674188Y-96665518D01*
X112661928Y-96790000D01*
X112661928Y-98790000D01*
X112674188Y-98914482D01*
X112710498Y-99034180D01*
X112769463Y-99144494D01*
X112848815Y-99241185D01*
X112945506Y-99320537D01*
X113055820Y-99379502D01*
X113175518Y-99415812D01*
X113300000Y-99428072D01*
X115300000Y-99428072D01*
X115424482Y-99415812D01*
X115544180Y-99379502D01*
X115654494Y-99320537D01*
X115751185Y-99241185D01*
X115830537Y-99144494D01*
X115889502Y-99034180D01*
X115925812Y-98914482D01*
X115938072Y-98790000D01*
X115938072Y-98550000D01*
X117941928Y-98550000D01*
X117941928Y-98590000D01*
X117954188Y-98714482D01*
X117990498Y-98834180D01*
X118049463Y-98944494D01*
X118128815Y-99041185D01*
X118225506Y-99120537D01*
X118335820Y-99179502D01*
X118455518Y-99215812D01*
X118463961Y-99216643D01*
X118265363Y-99415241D01*
X118161957Y-99570000D01*
X114337322Y-99570000D01*
X114299999Y-99566324D01*
X114262676Y-99570000D01*
X114262667Y-99570000D01*
X114151014Y-99580997D01*
X114007753Y-99624454D01*
X113875724Y-99695026D01*
X113759999Y-99789999D01*
X113736201Y-99818997D01*
X112715199Y-100840000D01*
X112128072Y-100840000D01*
X112128072Y-100600000D01*
X112115812Y-100475518D01*
X112079502Y-100355820D01*
X112020537Y-100245506D01*
X111941185Y-100148815D01*
X111844494Y-100069463D01*
X111734180Y-100010498D01*
X111614482Y-99974188D01*
X111490000Y-99961928D01*
X109490000Y-99961928D01*
X109365518Y-99974188D01*
X109245820Y-100010498D01*
X109135506Y-100069463D01*
X109038815Y-100148815D01*
X108959463Y-100245506D01*
X108900498Y-100355820D01*
X108864188Y-100475518D01*
X108851928Y-100600000D01*
X108851928Y-102600000D01*
X108864188Y-102724482D01*
X108900498Y-102844180D01*
X108959463Y-102954494D01*
X109038815Y-103051185D01*
X109135506Y-103130537D01*
X109245820Y-103189502D01*
X109365518Y-103225812D01*
X109490000Y-103238072D01*
X111490000Y-103238072D01*
X111614482Y-103225812D01*
X111734180Y-103189502D01*
X111844494Y-103130537D01*
X111941185Y-103051185D01*
X112020537Y-102954494D01*
X112079502Y-102844180D01*
X112115812Y-102724482D01*
X112128072Y-102600000D01*
X112128072Y-102360000D01*
X112992678Y-102360000D01*
X113030000Y-102363676D01*
X113067322Y-102360000D01*
X113067333Y-102360000D01*
X113178986Y-102349003D01*
X113322247Y-102305546D01*
X113454276Y-102234974D01*
X113570001Y-102140001D01*
X113593804Y-102110997D01*
X114614802Y-101090000D01*
X118161957Y-101090000D01*
X118265363Y-101244759D01*
X118465241Y-101444637D01*
X118697759Y-101600000D01*
X118465241Y-101755363D01*
X118265363Y-101955241D01*
X118108320Y-102190273D01*
X118000147Y-102451426D01*
X117945000Y-102728665D01*
X117945000Y-103011335D01*
X117951983Y-103046439D01*
X117743422Y-103255000D01*
X106564776Y-103255000D01*
X106561008Y-103216746D01*
X106510472Y-103050150D01*
X106428405Y-102896614D01*
X106317962Y-102762038D01*
X106183386Y-102651595D01*
X106029850Y-102569528D01*
X105863254Y-102518992D01*
X105690000Y-102501928D01*
X102590000Y-102501928D01*
X102416746Y-102518992D01*
X102250150Y-102569528D01*
X102096614Y-102651595D01*
X101962038Y-102762038D01*
X101851595Y-102896614D01*
X101769528Y-103050150D01*
X101718992Y-103216746D01*
X101701928Y-103390000D01*
X89027000Y-103390000D01*
X89027000Y-93250000D01*
X102771928Y-93250000D01*
X102771928Y-97250000D01*
X102784188Y-97374482D01*
X102820498Y-97494180D01*
X102879463Y-97604494D01*
X102958815Y-97701185D01*
X103055506Y-97780537D01*
X103165820Y-97839502D01*
X103285518Y-97875812D01*
X103410000Y-97888072D01*
X107410000Y-97888072D01*
X107534482Y-97875812D01*
X107654180Y-97839502D01*
X107764494Y-97780537D01*
X107861185Y-97701185D01*
X107940537Y-97604494D01*
X107999502Y-97494180D01*
X108035812Y-97374482D01*
X108048072Y-97250000D01*
X108048072Y-93250000D01*
X108035812Y-93125518D01*
X107999502Y-93005820D01*
X107940537Y-92895506D01*
X107861185Y-92798815D01*
X107764494Y-92719463D01*
X107654180Y-92660498D01*
X107534482Y-92624188D01*
X107410000Y-92611928D01*
X103410000Y-92611928D01*
X103285518Y-92624188D01*
X103165820Y-92660498D01*
X103055506Y-92719463D01*
X102958815Y-92798815D01*
X102879463Y-92895506D01*
X102820498Y-93005820D01*
X102784188Y-93125518D01*
X102771928Y-93250000D01*
X89027000Y-93250000D01*
X89027000Y-87930434D01*
X105559876Y-87930434D01*
X105590856Y-88058355D01*
X105719990Y-88352761D01*
X105904078Y-88616317D01*
X106136046Y-88838895D01*
X106406980Y-89011942D01*
X106706468Y-89128807D01*
X107023000Y-89185000D01*
X107823000Y-89185000D01*
X107823000Y-87677000D01*
X108077000Y-87677000D01*
X108077000Y-89185000D01*
X108877000Y-89185000D01*
X109193532Y-89128807D01*
X109493020Y-89011942D01*
X109763954Y-88838895D01*
X109995922Y-88616317D01*
X110180010Y-88352761D01*
X110309144Y-88058355D01*
X110340124Y-87930434D01*
X110220777Y-87677000D01*
X108077000Y-87677000D01*
X107823000Y-87677000D01*
X105679223Y-87677000D01*
X105559876Y-87930434D01*
X89027000Y-87930434D01*
X89027000Y-87169566D01*
X105559876Y-87169566D01*
X105679223Y-87423000D01*
X107823000Y-87423000D01*
X107823000Y-85915000D01*
X108077000Y-85915000D01*
X108077000Y-87423000D01*
X110220777Y-87423000D01*
X110340124Y-87169566D01*
X110309144Y-87041645D01*
X110180010Y-86747239D01*
X109995922Y-86483683D01*
X109763954Y-86261105D01*
X109493020Y-86088058D01*
X109193532Y-85971193D01*
X108877000Y-85915000D01*
X108077000Y-85915000D01*
X107823000Y-85915000D01*
X107023000Y-85915000D01*
X106706468Y-85971193D01*
X106406980Y-86088058D01*
X106136046Y-86261105D01*
X105904078Y-86483683D01*
X105719990Y-86747239D01*
X105590856Y-87041645D01*
X105559876Y-87169566D01*
X89027000Y-87169566D01*
X89027000Y-76058665D01*
X98895000Y-76058665D01*
X98895000Y-76341335D01*
X98950147Y-76618574D01*
X99058320Y-76879727D01*
X99215363Y-77114759D01*
X99415241Y-77314637D01*
X99650273Y-77471680D01*
X99911426Y-77579853D01*
X100188665Y-77635000D01*
X100471335Y-77635000D01*
X100748574Y-77579853D01*
X101009727Y-77471680D01*
X101244759Y-77314637D01*
X101444637Y-77114759D01*
X101548043Y-76960000D01*
X106365199Y-76960000D01*
X107190000Y-77784802D01*
X107190001Y-79972658D01*
X107190000Y-79972668D01*
X107190000Y-80911928D01*
X106400000Y-80911928D01*
X106226746Y-80928992D01*
X106060150Y-80979528D01*
X105906614Y-81061595D01*
X105772038Y-81172038D01*
X105661595Y-81306614D01*
X105579528Y-81460150D01*
X105528992Y-81626746D01*
X105511928Y-81800000D01*
X105511928Y-83300000D01*
X105528992Y-83473254D01*
X105579528Y-83639850D01*
X105661595Y-83793386D01*
X105772038Y-83927962D01*
X105906614Y-84038405D01*
X106060150Y-84120472D01*
X106226746Y-84171008D01*
X106400000Y-84188072D01*
X109500000Y-84188072D01*
X109673254Y-84171008D01*
X109839850Y-84120472D01*
X109993386Y-84038405D01*
X110127962Y-83927962D01*
X110238405Y-83793386D01*
X110320472Y-83639850D01*
X110371008Y-83473254D01*
X110388072Y-83300000D01*
X110388072Y-81800000D01*
X110371008Y-81626746D01*
X110320472Y-81460150D01*
X110238405Y-81306614D01*
X110127962Y-81172038D01*
X109993386Y-81061595D01*
X109839850Y-80979528D01*
X109673254Y-80928992D01*
X109500000Y-80911928D01*
X108710000Y-80911928D01*
X108710000Y-77507322D01*
X108713676Y-77469999D01*
X108710000Y-77432676D01*
X108710000Y-77432667D01*
X108699003Y-77321014D01*
X108655546Y-77177753D01*
X108584974Y-77045724D01*
X108490001Y-76929999D01*
X108461004Y-76906202D01*
X107613467Y-76058665D01*
X116675000Y-76058665D01*
X116675000Y-76341335D01*
X116730147Y-76618574D01*
X116838320Y-76879727D01*
X116995363Y-77114759D01*
X117195241Y-77314637D01*
X117350000Y-77418044D01*
X117350001Y-79972667D01*
X117346324Y-80010000D01*
X117360998Y-80158985D01*
X117404454Y-80302246D01*
X117475026Y-80434276D01*
X117546201Y-80521002D01*
X117570000Y-80550001D01*
X117598998Y-80573799D01*
X117741928Y-80716729D01*
X117741928Y-82830000D01*
X117758992Y-83003254D01*
X117809528Y-83169850D01*
X117891595Y-83323386D01*
X118002038Y-83457962D01*
X118136614Y-83568405D01*
X118290150Y-83650472D01*
X118456746Y-83701008D01*
X118630000Y-83718072D01*
X120130000Y-83718072D01*
X120303254Y-83701008D01*
X120469850Y-83650472D01*
X120623386Y-83568405D01*
X120757962Y-83457962D01*
X120868405Y-83323386D01*
X120950472Y-83169850D01*
X121001008Y-83003254D01*
X121018072Y-82830000D01*
X121018072Y-81407000D01*
X122745000Y-81407000D01*
X122745000Y-82207000D01*
X122801193Y-82523532D01*
X122918058Y-82823020D01*
X123091105Y-83093954D01*
X123313683Y-83325922D01*
X123577239Y-83510010D01*
X123871645Y-83639144D01*
X123999566Y-83670124D01*
X124253000Y-83550777D01*
X124253000Y-81407000D01*
X124507000Y-81407000D01*
X124507000Y-83550777D01*
X124760434Y-83670124D01*
X124888355Y-83639144D01*
X125182761Y-83510010D01*
X125446317Y-83325922D01*
X125668895Y-83093954D01*
X125841942Y-82823020D01*
X125958807Y-82523532D01*
X126015000Y-82207000D01*
X126015000Y-81407000D01*
X124507000Y-81407000D01*
X124253000Y-81407000D01*
X122745000Y-81407000D01*
X121018072Y-81407000D01*
X121018072Y-80353000D01*
X122745000Y-80353000D01*
X122745000Y-81153000D01*
X124253000Y-81153000D01*
X124253000Y-79009223D01*
X124507000Y-79009223D01*
X124507000Y-81153000D01*
X126015000Y-81153000D01*
X126015000Y-80353000D01*
X125958807Y-80036468D01*
X125841942Y-79736980D01*
X125668895Y-79466046D01*
X125446317Y-79234078D01*
X125182761Y-79049990D01*
X124888355Y-78920856D01*
X124760434Y-78889876D01*
X124507000Y-79009223D01*
X124253000Y-79009223D01*
X123999566Y-78889876D01*
X123871645Y-78920856D01*
X123577239Y-79049990D01*
X123313683Y-79234078D01*
X123091105Y-79466046D01*
X122918058Y-79736980D01*
X122801193Y-80036468D01*
X122745000Y-80353000D01*
X121018072Y-80353000D01*
X121018072Y-79730000D01*
X121001008Y-79556746D01*
X120950472Y-79390150D01*
X120868405Y-79236614D01*
X120757962Y-79102038D01*
X120623386Y-78991595D01*
X120469850Y-78909528D01*
X120303254Y-78858992D01*
X120130000Y-78841928D01*
X118870000Y-78841928D01*
X118870000Y-77418043D01*
X119024759Y-77314637D01*
X119224637Y-77114759D01*
X119328043Y-76960000D01*
X121882678Y-76960000D01*
X121920000Y-76963676D01*
X121957322Y-76960000D01*
X121957333Y-76960000D01*
X122068986Y-76949003D01*
X122212247Y-76905546D01*
X122344276Y-76834974D01*
X122460001Y-76740001D01*
X122483804Y-76710997D01*
X123136136Y-76058665D01*
X134455000Y-76058665D01*
X134455000Y-76341335D01*
X134510147Y-76618574D01*
X134618320Y-76879727D01*
X134775363Y-77114759D01*
X134975241Y-77314637D01*
X135130000Y-77418044D01*
X135130001Y-79972667D01*
X135126324Y-80010000D01*
X135140998Y-80158985D01*
X135184454Y-80302246D01*
X135255026Y-80434276D01*
X135326201Y-80521002D01*
X135350000Y-80550001D01*
X135378998Y-80573799D01*
X135521928Y-80716729D01*
X135521928Y-82830000D01*
X135538992Y-83003254D01*
X135589528Y-83169850D01*
X135671595Y-83323386D01*
X135782038Y-83457962D01*
X135916614Y-83568405D01*
X136070150Y-83650472D01*
X136236746Y-83701008D01*
X136410000Y-83718072D01*
X137910000Y-83718072D01*
X138083254Y-83701008D01*
X138249850Y-83650472D01*
X138403386Y-83568405D01*
X138537962Y-83457962D01*
X138648405Y-83323386D01*
X138730472Y-83169850D01*
X138781008Y-83003254D01*
X138798072Y-82830000D01*
X138798072Y-81407000D01*
X140525000Y-81407000D01*
X140525000Y-82207000D01*
X140581193Y-82523532D01*
X140698058Y-82823020D01*
X140871105Y-83093954D01*
X141093683Y-83325922D01*
X141357239Y-83510010D01*
X141651645Y-83639144D01*
X141779566Y-83670124D01*
X142033000Y-83550777D01*
X142033000Y-81407000D01*
X142287000Y-81407000D01*
X142287000Y-83550777D01*
X142540434Y-83670124D01*
X142668355Y-83639144D01*
X142962761Y-83510010D01*
X143226317Y-83325922D01*
X143448895Y-83093954D01*
X143621942Y-82823020D01*
X143738807Y-82523532D01*
X143795000Y-82207000D01*
X143795000Y-81407000D01*
X142287000Y-81407000D01*
X142033000Y-81407000D01*
X140525000Y-81407000D01*
X138798072Y-81407000D01*
X138798072Y-80353000D01*
X140525000Y-80353000D01*
X140525000Y-81153000D01*
X142033000Y-81153000D01*
X142033000Y-79009223D01*
X142287000Y-79009223D01*
X142287000Y-81153000D01*
X143795000Y-81153000D01*
X143795000Y-80353000D01*
X143738807Y-80036468D01*
X143621942Y-79736980D01*
X143448895Y-79466046D01*
X143226317Y-79234078D01*
X142962761Y-79049990D01*
X142668355Y-78920856D01*
X142540434Y-78889876D01*
X142287000Y-79009223D01*
X142033000Y-79009223D01*
X141779566Y-78889876D01*
X141651645Y-78920856D01*
X141357239Y-79049990D01*
X141093683Y-79234078D01*
X140871105Y-79466046D01*
X140698058Y-79736980D01*
X140581193Y-80036468D01*
X140525000Y-80353000D01*
X138798072Y-80353000D01*
X138798072Y-79730000D01*
X138781008Y-79556746D01*
X138730472Y-79390150D01*
X138648405Y-79236614D01*
X138537962Y-79102038D01*
X138403386Y-78991595D01*
X138249850Y-78909528D01*
X138083254Y-78858992D01*
X137910000Y-78841928D01*
X136650000Y-78841928D01*
X136650000Y-77418043D01*
X136804759Y-77314637D01*
X137004637Y-77114759D01*
X137108043Y-76960000D01*
X139662678Y-76960000D01*
X139700000Y-76963676D01*
X139737322Y-76960000D01*
X139737333Y-76960000D01*
X139848986Y-76949003D01*
X139992247Y-76905546D01*
X140124276Y-76834974D01*
X140240001Y-76740001D01*
X140263804Y-76710997D01*
X140916136Y-76058665D01*
X152235000Y-76058665D01*
X152235000Y-76341335D01*
X152290147Y-76618574D01*
X152398320Y-76879727D01*
X152555363Y-77114759D01*
X152755241Y-77314637D01*
X152910000Y-77418044D01*
X152910001Y-79972667D01*
X152906324Y-80010000D01*
X152920998Y-80158985D01*
X152964454Y-80302246D01*
X153035026Y-80434276D01*
X153106201Y-80521002D01*
X153130000Y-80550001D01*
X153158998Y-80573799D01*
X153301928Y-80716729D01*
X153301928Y-82830000D01*
X153318992Y-83003254D01*
X153369528Y-83169850D01*
X153451595Y-83323386D01*
X153562038Y-83457962D01*
X153696614Y-83568405D01*
X153850150Y-83650472D01*
X154016746Y-83701008D01*
X154190000Y-83718072D01*
X155690000Y-83718072D01*
X155863254Y-83701008D01*
X156029850Y-83650472D01*
X156183386Y-83568405D01*
X156317962Y-83457962D01*
X156428405Y-83323386D01*
X156510472Y-83169850D01*
X156561008Y-83003254D01*
X156578072Y-82830000D01*
X156578072Y-81407000D01*
X158305000Y-81407000D01*
X158305000Y-82207000D01*
X158361193Y-82523532D01*
X158478058Y-82823020D01*
X158651105Y-83093954D01*
X158873683Y-83325922D01*
X159137239Y-83510010D01*
X159431645Y-83639144D01*
X159559566Y-83670124D01*
X159813000Y-83550777D01*
X159813000Y-81407000D01*
X160067000Y-81407000D01*
X160067000Y-83550777D01*
X160320434Y-83670124D01*
X160448355Y-83639144D01*
X160742761Y-83510010D01*
X161006317Y-83325922D01*
X161228895Y-83093954D01*
X161401942Y-82823020D01*
X161518807Y-82523532D01*
X161575000Y-82207000D01*
X161575000Y-81407000D01*
X160067000Y-81407000D01*
X159813000Y-81407000D01*
X158305000Y-81407000D01*
X156578072Y-81407000D01*
X156578072Y-80353000D01*
X158305000Y-80353000D01*
X158305000Y-81153000D01*
X159813000Y-81153000D01*
X159813000Y-79009223D01*
X160067000Y-79009223D01*
X160067000Y-81153000D01*
X161575000Y-81153000D01*
X161575000Y-80353000D01*
X161518807Y-80036468D01*
X161401942Y-79736980D01*
X161228895Y-79466046D01*
X161006317Y-79234078D01*
X160742761Y-79049990D01*
X160448355Y-78920856D01*
X160320434Y-78889876D01*
X160067000Y-79009223D01*
X159813000Y-79009223D01*
X159559566Y-78889876D01*
X159431645Y-78920856D01*
X159137239Y-79049990D01*
X158873683Y-79234078D01*
X158651105Y-79466046D01*
X158478058Y-79736980D01*
X158361193Y-80036468D01*
X158305000Y-80353000D01*
X156578072Y-80353000D01*
X156578072Y-79730000D01*
X156561008Y-79556746D01*
X156510472Y-79390150D01*
X156428405Y-79236614D01*
X156317962Y-79102038D01*
X156183386Y-78991595D01*
X156029850Y-78909528D01*
X155863254Y-78858992D01*
X155690000Y-78841928D01*
X154430000Y-78841928D01*
X154430000Y-77418043D01*
X154584759Y-77314637D01*
X154784637Y-77114759D01*
X154888043Y-76960000D01*
X157442678Y-76960000D01*
X157480000Y-76963676D01*
X157517322Y-76960000D01*
X157517333Y-76960000D01*
X157628986Y-76949003D01*
X157772247Y-76905546D01*
X157904276Y-76834974D01*
X158020001Y-76740001D01*
X158043804Y-76710997D01*
X160531009Y-74223794D01*
X160560001Y-74200001D01*
X160583795Y-74171008D01*
X160583799Y-74171004D01*
X160654973Y-74084277D01*
X160654974Y-74084276D01*
X160725546Y-73952247D01*
X160769003Y-73808986D01*
X160780000Y-73697333D01*
X160780000Y-73697324D01*
X160783676Y-73660001D01*
X160780000Y-73622678D01*
X160780000Y-72758072D01*
X161020000Y-72758072D01*
X161144482Y-72745812D01*
X161264180Y-72709502D01*
X161374494Y-72650537D01*
X161471185Y-72571185D01*
X161550537Y-72474494D01*
X161609502Y-72364180D01*
X161645812Y-72244482D01*
X161658072Y-72120000D01*
X161658072Y-70120000D01*
X161645812Y-69995518D01*
X161609502Y-69875820D01*
X161550537Y-69765506D01*
X161471185Y-69668815D01*
X161374494Y-69589463D01*
X161264180Y-69530498D01*
X161144482Y-69494188D01*
X161020000Y-69481928D01*
X159020000Y-69481928D01*
X158895518Y-69494188D01*
X158775820Y-69530498D01*
X158665506Y-69589463D01*
X158568815Y-69668815D01*
X158489463Y-69765506D01*
X158430498Y-69875820D01*
X158394188Y-69995518D01*
X158381928Y-70120000D01*
X158381928Y-72120000D01*
X158394188Y-72244482D01*
X158430498Y-72364180D01*
X158489463Y-72474494D01*
X158568815Y-72571185D01*
X158665506Y-72650537D01*
X158775820Y-72709502D01*
X158895518Y-72745812D01*
X159020000Y-72758072D01*
X159260000Y-72758072D01*
X159260000Y-73345197D01*
X157165199Y-75440000D01*
X154888043Y-75440000D01*
X154784637Y-75285241D01*
X154584759Y-75085363D01*
X154349727Y-74928320D01*
X154088574Y-74820147D01*
X153811335Y-74765000D01*
X153528665Y-74765000D01*
X153251426Y-74820147D01*
X152990273Y-74928320D01*
X152755241Y-75085363D01*
X152555363Y-75285241D01*
X152398320Y-75520273D01*
X152290147Y-75781426D01*
X152235000Y-76058665D01*
X140916136Y-76058665D01*
X142751009Y-74223794D01*
X142780001Y-74200001D01*
X142803795Y-74171008D01*
X142803799Y-74171004D01*
X142874973Y-74084277D01*
X142874974Y-74084276D01*
X142945546Y-73952247D01*
X142989003Y-73808986D01*
X143000000Y-73697333D01*
X143000000Y-73697324D01*
X143003676Y-73660001D01*
X143000000Y-73622678D01*
X143000000Y-72758072D01*
X143240000Y-72758072D01*
X143364482Y-72745812D01*
X143484180Y-72709502D01*
X143594494Y-72650537D01*
X143691185Y-72571185D01*
X143770537Y-72474494D01*
X143829502Y-72364180D01*
X143865812Y-72244482D01*
X143878072Y-72120000D01*
X143878072Y-70120000D01*
X143865812Y-69995518D01*
X143829502Y-69875820D01*
X143770537Y-69765506D01*
X143691185Y-69668815D01*
X143594494Y-69589463D01*
X143484180Y-69530498D01*
X143364482Y-69494188D01*
X143240000Y-69481928D01*
X141240000Y-69481928D01*
X141115518Y-69494188D01*
X140995820Y-69530498D01*
X140885506Y-69589463D01*
X140788815Y-69668815D01*
X140709463Y-69765506D01*
X140650498Y-69875820D01*
X140614188Y-69995518D01*
X140601928Y-70120000D01*
X140601928Y-72120000D01*
X140614188Y-72244482D01*
X140650498Y-72364180D01*
X140709463Y-72474494D01*
X140788815Y-72571185D01*
X140885506Y-72650537D01*
X140995820Y-72709502D01*
X141115518Y-72745812D01*
X141240000Y-72758072D01*
X141480000Y-72758072D01*
X141480000Y-73345197D01*
X139385199Y-75440000D01*
X137108043Y-75440000D01*
X137004637Y-75285241D01*
X136804759Y-75085363D01*
X136569727Y-74928320D01*
X136308574Y-74820147D01*
X136031335Y-74765000D01*
X135748665Y-74765000D01*
X135471426Y-74820147D01*
X135210273Y-74928320D01*
X134975241Y-75085363D01*
X134775363Y-75285241D01*
X134618320Y-75520273D01*
X134510147Y-75781426D01*
X134455000Y-76058665D01*
X123136136Y-76058665D01*
X124971009Y-74223794D01*
X125000001Y-74200001D01*
X125023795Y-74171008D01*
X125023799Y-74171004D01*
X125094973Y-74084277D01*
X125094974Y-74084276D01*
X125165546Y-73952247D01*
X125209003Y-73808986D01*
X125220000Y-73697333D01*
X125220000Y-73697324D01*
X125223676Y-73660001D01*
X125220000Y-73622678D01*
X125220000Y-72758072D01*
X125460000Y-72758072D01*
X125584482Y-72745812D01*
X125704180Y-72709502D01*
X125814494Y-72650537D01*
X125911185Y-72571185D01*
X125990537Y-72474494D01*
X126049502Y-72364180D01*
X126085812Y-72244482D01*
X126098072Y-72120000D01*
X126098072Y-70120000D01*
X126085812Y-69995518D01*
X126049502Y-69875820D01*
X125990537Y-69765506D01*
X125911185Y-69668815D01*
X125814494Y-69589463D01*
X125704180Y-69530498D01*
X125584482Y-69494188D01*
X125460000Y-69481928D01*
X123460000Y-69481928D01*
X123335518Y-69494188D01*
X123215820Y-69530498D01*
X123105506Y-69589463D01*
X123008815Y-69668815D01*
X122929463Y-69765506D01*
X122870498Y-69875820D01*
X122834188Y-69995518D01*
X122821928Y-70120000D01*
X122821928Y-72120000D01*
X122834188Y-72244482D01*
X122870498Y-72364180D01*
X122929463Y-72474494D01*
X123008815Y-72571185D01*
X123105506Y-72650537D01*
X123215820Y-72709502D01*
X123335518Y-72745812D01*
X123460000Y-72758072D01*
X123700000Y-72758072D01*
X123700000Y-73345197D01*
X121605199Y-75440000D01*
X119328043Y-75440000D01*
X119224637Y-75285241D01*
X119024759Y-75085363D01*
X118789727Y-74928320D01*
X118528574Y-74820147D01*
X118251335Y-74765000D01*
X117968665Y-74765000D01*
X117691426Y-74820147D01*
X117430273Y-74928320D01*
X117195241Y-75085363D01*
X116995363Y-75285241D01*
X116838320Y-75520273D01*
X116730147Y-75781426D01*
X116675000Y-76058665D01*
X107613467Y-76058665D01*
X107440000Y-75885199D01*
X107440000Y-72758072D01*
X107680000Y-72758072D01*
X107804482Y-72745812D01*
X107924180Y-72709502D01*
X108034494Y-72650537D01*
X108131185Y-72571185D01*
X108210537Y-72474494D01*
X108269502Y-72364180D01*
X108305812Y-72244482D01*
X108318072Y-72120000D01*
X108318072Y-70120000D01*
X108305812Y-69995518D01*
X108269502Y-69875820D01*
X108210537Y-69765506D01*
X108131185Y-69668815D01*
X108034494Y-69589463D01*
X107924180Y-69530498D01*
X107804482Y-69494188D01*
X107680000Y-69481928D01*
X105680000Y-69481928D01*
X105555518Y-69494188D01*
X105435820Y-69530498D01*
X105325506Y-69589463D01*
X105228815Y-69668815D01*
X105149463Y-69765506D01*
X105090498Y-69875820D01*
X105054188Y-69995518D01*
X105041928Y-70120000D01*
X105041928Y-72120000D01*
X105054188Y-72244482D01*
X105090498Y-72364180D01*
X105149463Y-72474494D01*
X105228815Y-72571185D01*
X105325506Y-72650537D01*
X105435820Y-72709502D01*
X105555518Y-72745812D01*
X105680000Y-72758072D01*
X105920001Y-72758072D01*
X105920000Y-75440000D01*
X101548043Y-75440000D01*
X101444637Y-75285241D01*
X101244759Y-75085363D01*
X101009727Y-74928320D01*
X100748574Y-74820147D01*
X100471335Y-74765000D01*
X100188665Y-74765000D01*
X99911426Y-74820147D01*
X99650273Y-74928320D01*
X99415241Y-75085363D01*
X99215363Y-75285241D01*
X99058320Y-75520273D01*
X98950147Y-75781426D01*
X98895000Y-76058665D01*
X89027000Y-76058665D01*
X89027000Y-62034495D01*
X90725000Y-62034495D01*
X90725000Y-62425505D01*
X90801282Y-62809003D01*
X90950915Y-63170250D01*
X91168149Y-63495364D01*
X91444636Y-63771851D01*
X91769750Y-63989085D01*
X92130997Y-64138718D01*
X92514495Y-64215000D01*
X92905505Y-64215000D01*
X93289003Y-64138718D01*
X93650250Y-63989085D01*
X93975364Y-63771851D01*
X94251851Y-63495364D01*
X94469085Y-63170250D01*
X94618718Y-62809003D01*
X94695000Y-62425505D01*
X94695000Y-62034495D01*
X94618718Y-61650997D01*
X94469085Y-61289750D01*
X94251851Y-60964636D01*
X93975364Y-60688149D01*
X93650250Y-60470915D01*
X93289003Y-60321282D01*
X92905505Y-60245000D01*
X92514495Y-60245000D01*
X92130997Y-60321282D01*
X91769750Y-60470915D01*
X91444636Y-60688149D01*
X91168149Y-60964636D01*
X90950915Y-61289750D01*
X90801282Y-61650997D01*
X90725000Y-62034495D01*
X89027000Y-62034495D01*
X89027000Y-58547000D01*
X168783000Y-58547000D01*
X168783000Y-92583000D01*
G37*
%TD.AperFunction*%
%TD*%
M02*
