%TF.GenerationSoftware,KiCad,Pcbnew,(5.1.10)-1*%
%TF.CreationDate,2021-09-08T20:08:48+02:00*%
%TF.ProjectId,uklad,756b6c61-642e-46b6-9963-61645f706362,rev?*%
%TF.SameCoordinates,Original*%
%TF.FileFunction,Soldermask,Top*%
%TF.FilePolarity,Negative*%
%FSLAX46Y46*%
G04 Gerber Fmt 4.6, Leading zero omitted, Abs format (unit mm)*
G04 Created by KiCad (PCBNEW (5.1.10)-1) date 2021-09-08 20:08:48*
%MOMM*%
%LPD*%
G01*
G04 APERTURE LIST*
%ADD10C,2.700000*%
%ADD11R,2.500000X2.500000*%
%ADD12O,1.600000X1.600000*%
%ADD13C,1.600000*%
%ADD14R,4.000000X4.000000*%
%ADD15R,2.000000X2.000000*%
%ADD16O,2.000000X3.600000*%
%ADD17R,1.600000X1.600000*%
%ADD18R,1.500000X1.050000*%
%ADD19O,1.500000X1.050000*%
%ADD20O,3.600000X2.000000*%
G04 APERTURE END LIST*
D10*
%TO.C,REF\u002A\u002A*%
X165100000Y-120650000D03*
%TD*%
%TO.C,REF\u002A\u002A*%
X92710000Y-120650000D03*
%TD*%
%TO.C,REF\u002A\u002A*%
X92710000Y-62230000D03*
%TD*%
%TO.C,REF\u002A\u002A*%
X165100000Y-62230000D03*
%TD*%
D11*
%TO.C,GND_dzielnik*%
X130810000Y-97790000D03*
%TD*%
D12*
%TO.C,1M*%
X137160000Y-107950000D03*
D13*
X137160000Y-118110000D03*
%TD*%
D14*
%TO.C,GND*%
X105410000Y-95250000D03*
%TD*%
D15*
%TO.C,+5V*%
X127000000Y-60960000D03*
%TD*%
%TO.C,Ard_A0*%
X148590000Y-96520000D03*
%TD*%
%TO.C,DP A4*%
X160020000Y-71120000D03*
%TD*%
%TO.C,GL A3*%
X106680000Y-71120000D03*
%TD*%
%TO.C,DL A2*%
X142240000Y-71120000D03*
%TD*%
%TO.C,GP A5*%
X124460000Y-71120000D03*
%TD*%
%TO.C,Ard_D9*%
X110490000Y-101600000D03*
%TD*%
%TO.C,Ard_D10*%
X114300000Y-97790000D03*
%TD*%
%TO.C,Ard_D8*%
X110490000Y-111760000D03*
%TD*%
%TO.C,Ard_Vin*%
X114300000Y-115570000D03*
%TD*%
%TO.C,Ard_D7*%
X157480000Y-116840000D03*
%TD*%
D16*
%TO.C,Solar*%
X149780000Y-109220000D03*
G36*
G01*
X143780000Y-110770000D02*
X143780000Y-107670000D01*
G75*
G02*
X144030000Y-107420000I250000J0D01*
G01*
X145530000Y-107420000D01*
G75*
G02*
X145780000Y-107670000I0J-250000D01*
G01*
X145780000Y-110770000D01*
G75*
G02*
X145530000Y-111020000I-250000J0D01*
G01*
X144030000Y-111020000D01*
G75*
G02*
X143780000Y-110770000I0J250000D01*
G01*
G37*
%TD*%
D12*
%TO.C,L293D*%
X127000000Y-97790000D03*
X119380000Y-115570000D03*
X127000000Y-100330000D03*
X119380000Y-113030000D03*
X127000000Y-102870000D03*
X119380000Y-110490000D03*
X127000000Y-105410000D03*
X119380000Y-107950000D03*
X127000000Y-107950000D03*
X119380000Y-105410000D03*
X127000000Y-110490000D03*
X119380000Y-102870000D03*
X127000000Y-113030000D03*
X119380000Y-100330000D03*
X127000000Y-115570000D03*
D17*
X119380000Y-97790000D03*
%TD*%
D18*
%TO.C,DS18B20*%
X163830000Y-107950000D03*
D19*
X163830000Y-105410000D03*
X163830000Y-106680000D03*
%TD*%
D16*
%TO.C,Photo DP*%
X159940000Y-81280000D03*
G36*
G01*
X153940000Y-82830000D02*
X153940000Y-79730000D01*
G75*
G02*
X154190000Y-79480000I250000J0D01*
G01*
X155690000Y-79480000D01*
G75*
G02*
X155940000Y-79730000I0J-250000D01*
G01*
X155940000Y-82830000D01*
G75*
G02*
X155690000Y-83080000I-250000J0D01*
G01*
X154190000Y-83080000D01*
G75*
G02*
X153940000Y-82830000I0J250000D01*
G01*
G37*
%TD*%
D12*
%TO.C,310R*%
X153670000Y-76200000D03*
D13*
X153670000Y-66040000D03*
%TD*%
D16*
%TO.C,Photo DL*%
X142160000Y-81280000D03*
G36*
G01*
X136160000Y-82830000D02*
X136160000Y-79730000D01*
G75*
G02*
X136410000Y-79480000I250000J0D01*
G01*
X137910000Y-79480000D01*
G75*
G02*
X138160000Y-79730000I0J-250000D01*
G01*
X138160000Y-82830000D01*
G75*
G02*
X137910000Y-83080000I-250000J0D01*
G01*
X136410000Y-83080000D01*
G75*
G02*
X136160000Y-82830000I0J250000D01*
G01*
G37*
%TD*%
D12*
%TO.C,310R*%
X135890000Y-76200000D03*
D13*
X135890000Y-66040000D03*
%TD*%
D12*
%TO.C,1M*%
X132080000Y-118110000D03*
D13*
X132080000Y-107950000D03*
%TD*%
D12*
%TO.C,1M*%
X130810000Y-101600000D03*
D13*
X140970000Y-101600000D03*
%TD*%
D16*
%TO.C,Photo GP*%
X124380000Y-81280000D03*
G36*
G01*
X118380000Y-82830000D02*
X118380000Y-79730000D01*
G75*
G02*
X118630000Y-79480000I250000J0D01*
G01*
X120130000Y-79480000D01*
G75*
G02*
X120380000Y-79730000I0J-250000D01*
G01*
X120380000Y-82830000D01*
G75*
G02*
X120130000Y-83080000I-250000J0D01*
G01*
X118630000Y-83080000D01*
G75*
G02*
X118380000Y-82830000I0J250000D01*
G01*
G37*
%TD*%
D12*
%TO.C,310R*%
X118110000Y-76200000D03*
D13*
X118110000Y-66040000D03*
%TD*%
D20*
%TO.C,Photo GL*%
X107950000Y-87550000D03*
G36*
G01*
X106400000Y-81550000D02*
X109500000Y-81550000D01*
G75*
G02*
X109750000Y-81800000I0J-250000D01*
G01*
X109750000Y-83300000D01*
G75*
G02*
X109500000Y-83550000I-250000J0D01*
G01*
X106400000Y-83550000D01*
G75*
G02*
X106150000Y-83300000I0J250000D01*
G01*
X106150000Y-81800000D01*
G75*
G02*
X106400000Y-81550000I250000J0D01*
G01*
G37*
%TD*%
D12*
%TO.C,310R*%
X100330000Y-76200000D03*
D13*
X100330000Y-66040000D03*
%TD*%
D12*
%TO.C,4\u002C7k*%
X157480000Y-111760000D03*
D13*
X157480000Y-101600000D03*
%TD*%
D20*
%TO.C,DC_Motor*%
X104140000Y-109140000D03*
G36*
G01*
X102590000Y-103140000D02*
X105690000Y-103140000D01*
G75*
G02*
X105940000Y-103390000I0J-250000D01*
G01*
X105940000Y-104890000D01*
G75*
G02*
X105690000Y-105140000I-250000J0D01*
G01*
X102590000Y-105140000D01*
G75*
G02*
X102340000Y-104890000I0J250000D01*
G01*
X102340000Y-103390000D01*
G75*
G02*
X102590000Y-103140000I250000J0D01*
G01*
G37*
%TD*%
D13*
%TO.C,100nF*%
X152400000Y-102830000D03*
X152400000Y-100330000D03*
%TD*%
%TO.C,220uF*%
X146050000Y-102830000D03*
D17*
X146050000Y-100330000D03*
%TD*%
M02*
