M48
; DRILL file {KiCad (5.1.10)-1} date 09/08/21 20:08:50
; FORMAT={-:-/ absolute / inch / decimal}
; #@! TF.CreationDate,2021-09-08T20:08:50+02:00
; #@! TF.GenerationSoftware,Kicad,Pcbnew,(5.1.10)-1
; #@! TF.FileFunction,Plated,1,2,PTH
FMAT,2
INCH
T1C0.0295
T2C0.0315
T3C0.0551
%
G90
G05
T1
X6.45Y-4.15
X6.45Y-4.2
X6.45Y-4.25
T2
X3.95Y-2.6
X3.95Y-3.0
X4.65Y-2.6
X4.65Y-3.0
X4.7Y-3.85
X4.7Y-3.95
X4.7Y-4.05
X4.7Y-4.15
X4.7Y-4.25
X4.7Y-4.35
X4.7Y-4.45
X4.7Y-4.55
X5.0Y-3.85
X5.0Y-3.95
X5.0Y-4.05
X5.0Y-4.15
X5.0Y-4.25
X5.0Y-4.35
X5.0Y-4.45
X5.0Y-4.55
X5.15Y-4.0
X5.2Y-4.25
X5.2Y-4.65
X5.35Y-2.6
X5.35Y-3.0
X5.4Y-4.25
X5.4Y-4.65
X5.55Y-4.0
X5.75Y-3.95
X5.75Y-4.0484
X6.0Y-3.95
X6.0Y-4.0484
X6.05Y-2.6
X6.05Y-3.0
X6.2Y-4.0
X6.2Y-4.4
T3
X4.1Y-4.1
X4.1Y-4.2969
X4.25Y-3.25
X4.25Y-3.4469
X4.7Y-3.2
X4.8969Y-3.2
X5.4Y-3.2
X5.5969Y-3.2
X5.7Y-4.3
X5.8969Y-4.3
X6.1Y-3.2
X6.2969Y-3.2
T0
M30
