%TF.GenerationSoftware,KiCad,Pcbnew,(5.1.10)-1*%
%TF.CreationDate,2021-09-08T20:08:48+02:00*%
%TF.ProjectId,uklad,756b6c61-642e-46b6-9963-61645f706362,rev?*%
%TF.SameCoordinates,Original*%
%TF.FileFunction,Legend,Top*%
%TF.FilePolarity,Positive*%
%FSLAX46Y46*%
G04 Gerber Fmt 4.6, Leading zero omitted, Abs format (unit mm)*
G04 Created by KiCad (PCBNEW (5.1.10)-1) date 2021-09-08 20:08:48*
%MOMM*%
%LPD*%
G01*
G04 APERTURE LIST*
%ADD10C,0.120000*%
%ADD11C,0.150000*%
G04 APERTURE END LIST*
D10*
X87630000Y-57150000D02*
X170180000Y-57150000D01*
X87630000Y-125730000D02*
X87630000Y-57150000D01*
X170180000Y-125730000D02*
X87630000Y-125730000D01*
X170180000Y-57150000D02*
X170180000Y-125730000D01*
%TO.C,GND_dzielnik*%
X129360000Y-96340000D02*
X132260000Y-96340000D01*
X132260000Y-96340000D02*
X132260000Y-99240000D01*
X132260000Y-99240000D02*
X129360000Y-99240000D01*
X129360000Y-99240000D02*
X129360000Y-96340000D01*
%TO.C,1M*%
X135790000Y-116300000D02*
X138530000Y-116300000D01*
X138530000Y-116300000D02*
X138530000Y-109760000D01*
X138530000Y-109760000D02*
X135790000Y-109760000D01*
X135790000Y-109760000D02*
X135790000Y-116300000D01*
X137160000Y-117070000D02*
X137160000Y-116300000D01*
X137160000Y-108990000D02*
X137160000Y-109760000D01*
%TO.C,GND*%
X103210000Y-93050000D02*
X107610000Y-93050000D01*
X107610000Y-93050000D02*
X107610000Y-97450000D01*
X107610000Y-97450000D02*
X103210000Y-97450000D01*
X103210000Y-97450000D02*
X103210000Y-93050000D01*
%TO.C,+5V*%
X125800000Y-59760000D02*
X128200000Y-59760000D01*
X128200000Y-59760000D02*
X128200000Y-62160000D01*
X128200000Y-62160000D02*
X125800000Y-62160000D01*
X125800000Y-62160000D02*
X125800000Y-59760000D01*
%TO.C,Ard_A0*%
X147390000Y-95320000D02*
X149790000Y-95320000D01*
X149790000Y-95320000D02*
X149790000Y-97720000D01*
X149790000Y-97720000D02*
X147390000Y-97720000D01*
X147390000Y-97720000D02*
X147390000Y-95320000D01*
%TO.C,DP A4*%
X158820000Y-69920000D02*
X161220000Y-69920000D01*
X161220000Y-69920000D02*
X161220000Y-72320000D01*
X161220000Y-72320000D02*
X158820000Y-72320000D01*
X158820000Y-72320000D02*
X158820000Y-69920000D01*
%TO.C,GL A3*%
X105480000Y-69920000D02*
X107880000Y-69920000D01*
X107880000Y-69920000D02*
X107880000Y-72320000D01*
X107880000Y-72320000D02*
X105480000Y-72320000D01*
X105480000Y-72320000D02*
X105480000Y-69920000D01*
%TO.C,DL A2*%
X141040000Y-69920000D02*
X143440000Y-69920000D01*
X143440000Y-69920000D02*
X143440000Y-72320000D01*
X143440000Y-72320000D02*
X141040000Y-72320000D01*
X141040000Y-72320000D02*
X141040000Y-69920000D01*
%TO.C,GP A5*%
X123260000Y-69920000D02*
X125660000Y-69920000D01*
X125660000Y-69920000D02*
X125660000Y-72320000D01*
X125660000Y-72320000D02*
X123260000Y-72320000D01*
X123260000Y-72320000D02*
X123260000Y-69920000D01*
%TO.C,Ard_D9*%
X109290000Y-100400000D02*
X111690000Y-100400000D01*
X111690000Y-100400000D02*
X111690000Y-102800000D01*
X111690000Y-102800000D02*
X109290000Y-102800000D01*
X109290000Y-102800000D02*
X109290000Y-100400000D01*
%TO.C,Ard_D10*%
X113100000Y-98990000D02*
X113100000Y-96590000D01*
X115500000Y-98990000D02*
X113100000Y-98990000D01*
X115500000Y-96590000D02*
X115500000Y-98990000D01*
X113100000Y-96590000D02*
X115500000Y-96590000D01*
%TO.C,Ard_D8*%
X109290000Y-110560000D02*
X111690000Y-110560000D01*
X111690000Y-110560000D02*
X111690000Y-112960000D01*
X111690000Y-112960000D02*
X109290000Y-112960000D01*
X109290000Y-112960000D02*
X109290000Y-110560000D01*
%TO.C,Ard_Vin*%
X113100000Y-116770000D02*
X113100000Y-114370000D01*
X115500000Y-116770000D02*
X113100000Y-116770000D01*
X115500000Y-114370000D02*
X115500000Y-116770000D01*
X113100000Y-114370000D02*
X115500000Y-114370000D01*
%TO.C,Ard_D7*%
X156280000Y-118040000D02*
X156280000Y-115640000D01*
X158680000Y-118040000D02*
X156280000Y-118040000D01*
X158680000Y-115640000D02*
X158680000Y-118040000D01*
X156280000Y-115640000D02*
X158680000Y-115640000D01*
%TO.C,Solar*%
X141170000Y-107110000D02*
X141170000Y-119330000D01*
X141170000Y-119330000D02*
X153390000Y-119330000D01*
X153390000Y-119330000D02*
X153390000Y-107110000D01*
X153390000Y-107110000D02*
X141170000Y-107110000D01*
X141170000Y-117830000D02*
X141170000Y-116030000D01*
X141170000Y-116030000D02*
X153390000Y-116030000D01*
X153390000Y-116030000D02*
X153390000Y-117830000D01*
X153390000Y-117830000D02*
X141170000Y-117830000D01*
X143780000Y-119330000D02*
X145780000Y-119330000D01*
X145780000Y-119330000D02*
X145530000Y-117830000D01*
X145530000Y-117830000D02*
X144030000Y-117830000D01*
X144030000Y-117830000D02*
X143780000Y-119330000D01*
X148780000Y-119330000D02*
X150780000Y-119330000D01*
X150780000Y-119330000D02*
X150530000Y-117830000D01*
X150530000Y-117830000D02*
X149030000Y-117830000D01*
X149030000Y-117830000D02*
X148780000Y-119330000D01*
X145080000Y-106310000D02*
X144780000Y-106910000D01*
X144780000Y-106910000D02*
X144480000Y-106310000D01*
X144480000Y-106310000D02*
X145080000Y-106310000D01*
%TO.C,L293D*%
X122190000Y-96460000D02*
X120540000Y-96460000D01*
X120540000Y-96460000D02*
X120540000Y-116900000D01*
X120540000Y-116900000D02*
X125840000Y-116900000D01*
X125840000Y-116900000D02*
X125840000Y-96460000D01*
X125840000Y-96460000D02*
X124190000Y-96460000D01*
X124190000Y-96460000D02*
G75*
G02*
X122190000Y-96460000I-1000000J0D01*
G01*
%TO.C,DS18B20*%
X165680000Y-108480000D02*
X165680000Y-104880000D01*
X165668478Y-104841522D02*
G75*
G03*
X161230000Y-106680000I-1838478J-1838478D01*
G01*
X165668478Y-108518478D02*
G75*
G02*
X161230000Y-106680000I-1838478J1838478D01*
G01*
%TO.C,Photo DP*%
X151330000Y-79170000D02*
X151330000Y-91390000D01*
X151330000Y-91390000D02*
X163550000Y-91390000D01*
X163550000Y-91390000D02*
X163550000Y-79170000D01*
X163550000Y-79170000D02*
X151330000Y-79170000D01*
X151330000Y-89890000D02*
X151330000Y-88090000D01*
X151330000Y-88090000D02*
X163550000Y-88090000D01*
X163550000Y-88090000D02*
X163550000Y-89890000D01*
X163550000Y-89890000D02*
X151330000Y-89890000D01*
X153940000Y-91390000D02*
X155940000Y-91390000D01*
X155940000Y-91390000D02*
X155690000Y-89890000D01*
X155690000Y-89890000D02*
X154190000Y-89890000D01*
X154190000Y-89890000D02*
X153940000Y-91390000D01*
X158940000Y-91390000D02*
X160940000Y-91390000D01*
X160940000Y-91390000D02*
X160690000Y-89890000D01*
X160690000Y-89890000D02*
X159190000Y-89890000D01*
X159190000Y-89890000D02*
X158940000Y-91390000D01*
X155240000Y-78370000D02*
X154940000Y-78970000D01*
X154940000Y-78970000D02*
X154640000Y-78370000D01*
X154640000Y-78370000D02*
X155240000Y-78370000D01*
%TO.C,310R*%
X155040000Y-67850000D02*
X152300000Y-67850000D01*
X152300000Y-67850000D02*
X152300000Y-74390000D01*
X152300000Y-74390000D02*
X155040000Y-74390000D01*
X155040000Y-74390000D02*
X155040000Y-67850000D01*
X153670000Y-67080000D02*
X153670000Y-67850000D01*
X153670000Y-75160000D02*
X153670000Y-74390000D01*
%TO.C,Photo DL*%
X133550000Y-79170000D02*
X133550000Y-91390000D01*
X133550000Y-91390000D02*
X145770000Y-91390000D01*
X145770000Y-91390000D02*
X145770000Y-79170000D01*
X145770000Y-79170000D02*
X133550000Y-79170000D01*
X133550000Y-89890000D02*
X133550000Y-88090000D01*
X133550000Y-88090000D02*
X145770000Y-88090000D01*
X145770000Y-88090000D02*
X145770000Y-89890000D01*
X145770000Y-89890000D02*
X133550000Y-89890000D01*
X136160000Y-91390000D02*
X138160000Y-91390000D01*
X138160000Y-91390000D02*
X137910000Y-89890000D01*
X137910000Y-89890000D02*
X136410000Y-89890000D01*
X136410000Y-89890000D02*
X136160000Y-91390000D01*
X141160000Y-91390000D02*
X143160000Y-91390000D01*
X143160000Y-91390000D02*
X142910000Y-89890000D01*
X142910000Y-89890000D02*
X141410000Y-89890000D01*
X141410000Y-89890000D02*
X141160000Y-91390000D01*
X137460000Y-78370000D02*
X137160000Y-78970000D01*
X137160000Y-78970000D02*
X136860000Y-78370000D01*
X136860000Y-78370000D02*
X137460000Y-78370000D01*
%TO.C,310R*%
X137260000Y-67850000D02*
X134520000Y-67850000D01*
X134520000Y-67850000D02*
X134520000Y-74390000D01*
X134520000Y-74390000D02*
X137260000Y-74390000D01*
X137260000Y-74390000D02*
X137260000Y-67850000D01*
X135890000Y-67080000D02*
X135890000Y-67850000D01*
X135890000Y-75160000D02*
X135890000Y-74390000D01*
%TO.C,1M*%
X133450000Y-109760000D02*
X130710000Y-109760000D01*
X130710000Y-109760000D02*
X130710000Y-116300000D01*
X130710000Y-116300000D02*
X133450000Y-116300000D01*
X133450000Y-116300000D02*
X133450000Y-109760000D01*
X132080000Y-108990000D02*
X132080000Y-109760000D01*
X132080000Y-117070000D02*
X132080000Y-116300000D01*
X139160000Y-102970000D02*
X139160000Y-100230000D01*
X139160000Y-100230000D02*
X132620000Y-100230000D01*
X132620000Y-100230000D02*
X132620000Y-102970000D01*
X132620000Y-102970000D02*
X139160000Y-102970000D01*
X139930000Y-101600000D02*
X139160000Y-101600000D01*
X131850000Y-101600000D02*
X132620000Y-101600000D01*
%TO.C,Photo GP*%
X115770000Y-79170000D02*
X115770000Y-91390000D01*
X115770000Y-91390000D02*
X127990000Y-91390000D01*
X127990000Y-91390000D02*
X127990000Y-79170000D01*
X127990000Y-79170000D02*
X115770000Y-79170000D01*
X115770000Y-89890000D02*
X115770000Y-88090000D01*
X115770000Y-88090000D02*
X127990000Y-88090000D01*
X127990000Y-88090000D02*
X127990000Y-89890000D01*
X127990000Y-89890000D02*
X115770000Y-89890000D01*
X118380000Y-91390000D02*
X120380000Y-91390000D01*
X120380000Y-91390000D02*
X120130000Y-89890000D01*
X120130000Y-89890000D02*
X118630000Y-89890000D01*
X118630000Y-89890000D02*
X118380000Y-91390000D01*
X123380000Y-91390000D02*
X125380000Y-91390000D01*
X125380000Y-91390000D02*
X125130000Y-89890000D01*
X125130000Y-89890000D02*
X123630000Y-89890000D01*
X123630000Y-89890000D02*
X123380000Y-91390000D01*
X119680000Y-78370000D02*
X119380000Y-78970000D01*
X119380000Y-78970000D02*
X119080000Y-78370000D01*
X119080000Y-78370000D02*
X119680000Y-78370000D01*
%TO.C,310R*%
X119480000Y-67850000D02*
X116740000Y-67850000D01*
X116740000Y-67850000D02*
X116740000Y-74390000D01*
X116740000Y-74390000D02*
X119480000Y-74390000D01*
X119480000Y-74390000D02*
X119480000Y-67850000D01*
X118110000Y-67080000D02*
X118110000Y-67850000D01*
X118110000Y-75160000D02*
X118110000Y-74390000D01*
%TO.C,Photo GL*%
X110060000Y-78940000D02*
X97840000Y-78940000D01*
X97840000Y-78940000D02*
X97840000Y-91160000D01*
X97840000Y-91160000D02*
X110060000Y-91160000D01*
X110060000Y-91160000D02*
X110060000Y-78940000D01*
X99340000Y-78940000D02*
X101140000Y-78940000D01*
X101140000Y-78940000D02*
X101140000Y-91160000D01*
X101140000Y-91160000D02*
X99340000Y-91160000D01*
X99340000Y-91160000D02*
X99340000Y-78940000D01*
X97840000Y-81550000D02*
X97840000Y-83550000D01*
X97840000Y-83550000D02*
X99340000Y-83300000D01*
X99340000Y-83300000D02*
X99340000Y-81800000D01*
X99340000Y-81800000D02*
X97840000Y-81550000D01*
X97840000Y-86550000D02*
X97840000Y-88550000D01*
X97840000Y-88550000D02*
X99340000Y-88300000D01*
X99340000Y-88300000D02*
X99340000Y-86800000D01*
X99340000Y-86800000D02*
X97840000Y-86550000D01*
X110860000Y-82850000D02*
X110260000Y-82550000D01*
X110260000Y-82550000D02*
X110860000Y-82250000D01*
X110860000Y-82250000D02*
X110860000Y-82850000D01*
%TO.C,310R*%
X101700000Y-67850000D02*
X98960000Y-67850000D01*
X98960000Y-67850000D02*
X98960000Y-74390000D01*
X98960000Y-74390000D02*
X101700000Y-74390000D01*
X101700000Y-74390000D02*
X101700000Y-67850000D01*
X100330000Y-67080000D02*
X100330000Y-67850000D01*
X100330000Y-75160000D02*
X100330000Y-74390000D01*
%TO.C,4\u002C7k*%
X158850000Y-103410000D02*
X156110000Y-103410000D01*
X156110000Y-103410000D02*
X156110000Y-109950000D01*
X156110000Y-109950000D02*
X158850000Y-109950000D01*
X158850000Y-109950000D02*
X158850000Y-103410000D01*
X157480000Y-102640000D02*
X157480000Y-103410000D01*
X157480000Y-110720000D02*
X157480000Y-109950000D01*
%TO.C,DC_Motor*%
X106250000Y-100530000D02*
X94030000Y-100530000D01*
X94030000Y-100530000D02*
X94030000Y-112750000D01*
X94030000Y-112750000D02*
X106250000Y-112750000D01*
X106250000Y-112750000D02*
X106250000Y-100530000D01*
X95530000Y-100530000D02*
X97330000Y-100530000D01*
X97330000Y-100530000D02*
X97330000Y-112750000D01*
X97330000Y-112750000D02*
X95530000Y-112750000D01*
X95530000Y-112750000D02*
X95530000Y-100530000D01*
X94030000Y-103140000D02*
X94030000Y-105140000D01*
X94030000Y-105140000D02*
X95530000Y-104890000D01*
X95530000Y-104890000D02*
X95530000Y-103390000D01*
X95530000Y-103390000D02*
X94030000Y-103140000D01*
X94030000Y-108140000D02*
X94030000Y-110140000D01*
X94030000Y-110140000D02*
X95530000Y-109890000D01*
X95530000Y-109890000D02*
X95530000Y-108390000D01*
X95530000Y-108390000D02*
X94030000Y-108140000D01*
X107050000Y-104440000D02*
X106450000Y-104140000D01*
X106450000Y-104140000D02*
X107050000Y-103840000D01*
X107050000Y-103840000D02*
X107050000Y-104440000D01*
%TO.C,100nF*%
X153770000Y-98960000D02*
X153770000Y-104200000D01*
X151030000Y-98960000D02*
X151030000Y-104200000D01*
X153770000Y-98960000D02*
X151030000Y-98960000D01*
X153770000Y-104200000D02*
X151030000Y-104200000D01*
%TO.C,220uF*%
X149320000Y-101580000D02*
G75*
G03*
X149320000Y-101580000I-3270000J0D01*
G01*
X149280000Y-101580000D02*
X142820000Y-101580000D01*
X149280000Y-101620000D02*
X142820000Y-101620000D01*
X149280000Y-101660000D02*
X142820000Y-101660000D01*
X149278000Y-101700000D02*
X142822000Y-101700000D01*
X149277000Y-101740000D02*
X142823000Y-101740000D01*
X149274000Y-101780000D02*
X142826000Y-101780000D01*
X149272000Y-101820000D02*
X147090000Y-101820000D01*
X145010000Y-101820000D02*
X142828000Y-101820000D01*
X149268000Y-101860000D02*
X147090000Y-101860000D01*
X145010000Y-101860000D02*
X142832000Y-101860000D01*
X149265000Y-101900000D02*
X147090000Y-101900000D01*
X145010000Y-101900000D02*
X142835000Y-101900000D01*
X149261000Y-101940000D02*
X147090000Y-101940000D01*
X145010000Y-101940000D02*
X142839000Y-101940000D01*
X149256000Y-101980000D02*
X147090000Y-101980000D01*
X145010000Y-101980000D02*
X142844000Y-101980000D01*
X149251000Y-102020000D02*
X147090000Y-102020000D01*
X145010000Y-102020000D02*
X142849000Y-102020000D01*
X149245000Y-102060000D02*
X147090000Y-102060000D01*
X145010000Y-102060000D02*
X142855000Y-102060000D01*
X149239000Y-102100000D02*
X147090000Y-102100000D01*
X145010000Y-102100000D02*
X142861000Y-102100000D01*
X149232000Y-102140000D02*
X147090000Y-102140000D01*
X145010000Y-102140000D02*
X142868000Y-102140000D01*
X149225000Y-102180000D02*
X147090000Y-102180000D01*
X145010000Y-102180000D02*
X142875000Y-102180000D01*
X149217000Y-102220000D02*
X147090000Y-102220000D01*
X145010000Y-102220000D02*
X142883000Y-102220000D01*
X149209000Y-102260000D02*
X147090000Y-102260000D01*
X145010000Y-102260000D02*
X142891000Y-102260000D01*
X149200000Y-102301000D02*
X147090000Y-102301000D01*
X145010000Y-102301000D02*
X142900000Y-102301000D01*
X149191000Y-102341000D02*
X147090000Y-102341000D01*
X145010000Y-102341000D02*
X142909000Y-102341000D01*
X149181000Y-102381000D02*
X147090000Y-102381000D01*
X145010000Y-102381000D02*
X142919000Y-102381000D01*
X149171000Y-102421000D02*
X147090000Y-102421000D01*
X145010000Y-102421000D02*
X142929000Y-102421000D01*
X149160000Y-102461000D02*
X147090000Y-102461000D01*
X145010000Y-102461000D02*
X142940000Y-102461000D01*
X149148000Y-102501000D02*
X147090000Y-102501000D01*
X145010000Y-102501000D02*
X142952000Y-102501000D01*
X149136000Y-102541000D02*
X147090000Y-102541000D01*
X145010000Y-102541000D02*
X142964000Y-102541000D01*
X149124000Y-102581000D02*
X147090000Y-102581000D01*
X145010000Y-102581000D02*
X142976000Y-102581000D01*
X149111000Y-102621000D02*
X147090000Y-102621000D01*
X145010000Y-102621000D02*
X142989000Y-102621000D01*
X149097000Y-102661000D02*
X147090000Y-102661000D01*
X145010000Y-102661000D02*
X143003000Y-102661000D01*
X149083000Y-102701000D02*
X147090000Y-102701000D01*
X145010000Y-102701000D02*
X143017000Y-102701000D01*
X149068000Y-102741000D02*
X147090000Y-102741000D01*
X145010000Y-102741000D02*
X143032000Y-102741000D01*
X149052000Y-102781000D02*
X147090000Y-102781000D01*
X145010000Y-102781000D02*
X143048000Y-102781000D01*
X149036000Y-102821000D02*
X147090000Y-102821000D01*
X145010000Y-102821000D02*
X143064000Y-102821000D01*
X149020000Y-102861000D02*
X147090000Y-102861000D01*
X145010000Y-102861000D02*
X143080000Y-102861000D01*
X149002000Y-102901000D02*
X147090000Y-102901000D01*
X145010000Y-102901000D02*
X143098000Y-102901000D01*
X148984000Y-102941000D02*
X147090000Y-102941000D01*
X145010000Y-102941000D02*
X143116000Y-102941000D01*
X148966000Y-102981000D02*
X147090000Y-102981000D01*
X145010000Y-102981000D02*
X143134000Y-102981000D01*
X148946000Y-103021000D02*
X147090000Y-103021000D01*
X145010000Y-103021000D02*
X143154000Y-103021000D01*
X148926000Y-103061000D02*
X147090000Y-103061000D01*
X145010000Y-103061000D02*
X143174000Y-103061000D01*
X148906000Y-103101000D02*
X147090000Y-103101000D01*
X145010000Y-103101000D02*
X143194000Y-103101000D01*
X148884000Y-103141000D02*
X147090000Y-103141000D01*
X145010000Y-103141000D02*
X143216000Y-103141000D01*
X148862000Y-103181000D02*
X147090000Y-103181000D01*
X145010000Y-103181000D02*
X143238000Y-103181000D01*
X148840000Y-103221000D02*
X147090000Y-103221000D01*
X145010000Y-103221000D02*
X143260000Y-103221000D01*
X148816000Y-103261000D02*
X147090000Y-103261000D01*
X145010000Y-103261000D02*
X143284000Y-103261000D01*
X148792000Y-103301000D02*
X147090000Y-103301000D01*
X145010000Y-103301000D02*
X143308000Y-103301000D01*
X148766000Y-103341000D02*
X147090000Y-103341000D01*
X145010000Y-103341000D02*
X143334000Y-103341000D01*
X148740000Y-103381000D02*
X147090000Y-103381000D01*
X145010000Y-103381000D02*
X143360000Y-103381000D01*
X148714000Y-103421000D02*
X147090000Y-103421000D01*
X145010000Y-103421000D02*
X143386000Y-103421000D01*
X148686000Y-103461000D02*
X147090000Y-103461000D01*
X145010000Y-103461000D02*
X143414000Y-103461000D01*
X148657000Y-103501000D02*
X147090000Y-103501000D01*
X145010000Y-103501000D02*
X143443000Y-103501000D01*
X148628000Y-103541000D02*
X147090000Y-103541000D01*
X145010000Y-103541000D02*
X143472000Y-103541000D01*
X148598000Y-103581000D02*
X147090000Y-103581000D01*
X145010000Y-103581000D02*
X143502000Y-103581000D01*
X148566000Y-103621000D02*
X147090000Y-103621000D01*
X145010000Y-103621000D02*
X143534000Y-103621000D01*
X148534000Y-103661000D02*
X147090000Y-103661000D01*
X145010000Y-103661000D02*
X143566000Y-103661000D01*
X148500000Y-103701000D02*
X147090000Y-103701000D01*
X145010000Y-103701000D02*
X143600000Y-103701000D01*
X148466000Y-103741000D02*
X147090000Y-103741000D01*
X145010000Y-103741000D02*
X143634000Y-103741000D01*
X148430000Y-103781000D02*
X147090000Y-103781000D01*
X145010000Y-103781000D02*
X143670000Y-103781000D01*
X148393000Y-103821000D02*
X147090000Y-103821000D01*
X145010000Y-103821000D02*
X143707000Y-103821000D01*
X148355000Y-103861000D02*
X147090000Y-103861000D01*
X145010000Y-103861000D02*
X143745000Y-103861000D01*
X148315000Y-103901000D02*
X143785000Y-103901000D01*
X148274000Y-103941000D02*
X143826000Y-103941000D01*
X148232000Y-103981000D02*
X143868000Y-103981000D01*
X148187000Y-104021000D02*
X143913000Y-104021000D01*
X148142000Y-104061000D02*
X143958000Y-104061000D01*
X148094000Y-104101000D02*
X144006000Y-104101000D01*
X148045000Y-104141000D02*
X144055000Y-104141000D01*
X147994000Y-104181000D02*
X144106000Y-104181000D01*
X147940000Y-104221000D02*
X144160000Y-104221000D01*
X147884000Y-104261000D02*
X144216000Y-104261000D01*
X147826000Y-104301000D02*
X144274000Y-104301000D01*
X147764000Y-104341000D02*
X144336000Y-104341000D01*
X147700000Y-104381000D02*
X144400000Y-104381000D01*
X147631000Y-104421000D02*
X144469000Y-104421000D01*
X147559000Y-104461000D02*
X144541000Y-104461000D01*
X147482000Y-104501000D02*
X144618000Y-104501000D01*
X147400000Y-104541000D02*
X144700000Y-104541000D01*
X147312000Y-104581000D02*
X144788000Y-104581000D01*
X147215000Y-104621000D02*
X144885000Y-104621000D01*
X147109000Y-104661000D02*
X144991000Y-104661000D01*
X146990000Y-104701000D02*
X145110000Y-104701000D01*
X146852000Y-104741000D02*
X145248000Y-104741000D01*
X146683000Y-104781000D02*
X145417000Y-104781000D01*
X146452000Y-104821000D02*
X145648000Y-104821000D01*
X147889000Y-98079759D02*
X147889000Y-98709759D01*
X148204000Y-98394759D02*
X147574000Y-98394759D01*
%TO.C,GND_dzielnik*%
D11*
X129326190Y-95142000D02*
X129230952Y-95094380D01*
X129088095Y-95094380D01*
X128945238Y-95142000D01*
X128850000Y-95237238D01*
X128802380Y-95332476D01*
X128754761Y-95522952D01*
X128754761Y-95665809D01*
X128802380Y-95856285D01*
X128850000Y-95951523D01*
X128945238Y-96046761D01*
X129088095Y-96094380D01*
X129183333Y-96094380D01*
X129326190Y-96046761D01*
X129373809Y-95999142D01*
X129373809Y-95665809D01*
X129183333Y-95665809D01*
X129802380Y-96094380D02*
X129802380Y-95094380D01*
X130373809Y-96094380D01*
X130373809Y-95094380D01*
X130850000Y-96094380D02*
X130850000Y-95094380D01*
X131088095Y-95094380D01*
X131230952Y-95142000D01*
X131326190Y-95237238D01*
X131373809Y-95332476D01*
X131421428Y-95522952D01*
X131421428Y-95665809D01*
X131373809Y-95856285D01*
X131326190Y-95951523D01*
X131230952Y-96046761D01*
X131088095Y-96094380D01*
X130850000Y-96094380D01*
X131611904Y-96189619D02*
X132373809Y-96189619D01*
X133040476Y-96094380D02*
X133040476Y-95094380D01*
X133040476Y-96046761D02*
X132945238Y-96094380D01*
X132754761Y-96094380D01*
X132659523Y-96046761D01*
X132611904Y-95999142D01*
X132564285Y-95903904D01*
X132564285Y-95618190D01*
X132611904Y-95522952D01*
X132659523Y-95475333D01*
X132754761Y-95427714D01*
X132945238Y-95427714D01*
X133040476Y-95475333D01*
X133421428Y-95427714D02*
X133945238Y-95427714D01*
X133421428Y-96094380D01*
X133945238Y-96094380D01*
X134326190Y-96094380D02*
X134326190Y-95427714D01*
X134326190Y-95094380D02*
X134278571Y-95142000D01*
X134326190Y-95189619D01*
X134373809Y-95142000D01*
X134326190Y-95094380D01*
X134326190Y-95189619D01*
X135183333Y-96046761D02*
X135088095Y-96094380D01*
X134897619Y-96094380D01*
X134802380Y-96046761D01*
X134754761Y-95951523D01*
X134754761Y-95570571D01*
X134802380Y-95475333D01*
X134897619Y-95427714D01*
X135088095Y-95427714D01*
X135183333Y-95475333D01*
X135230952Y-95570571D01*
X135230952Y-95665809D01*
X134754761Y-95761047D01*
X135802380Y-96094380D02*
X135707142Y-96046761D01*
X135659523Y-95951523D01*
X135659523Y-95094380D01*
X136183333Y-95427714D02*
X136183333Y-96094380D01*
X136183333Y-95522952D02*
X136230952Y-95475333D01*
X136326190Y-95427714D01*
X136469047Y-95427714D01*
X136564285Y-95475333D01*
X136611904Y-95570571D01*
X136611904Y-96094380D01*
X137088095Y-96094380D02*
X137088095Y-95427714D01*
X137088095Y-95094380D02*
X137040476Y-95142000D01*
X137088095Y-95189619D01*
X137135714Y-95142000D01*
X137088095Y-95094380D01*
X137088095Y-95189619D01*
X137564285Y-96094380D02*
X137564285Y-95094380D01*
X137659523Y-95713428D02*
X137945238Y-96094380D01*
X137945238Y-95427714D02*
X137564285Y-95808666D01*
%TO.C,1M*%
X135242380Y-113315714D02*
X135242380Y-113887142D01*
X135242380Y-113601428D02*
X134242380Y-113601428D01*
X134385238Y-113696666D01*
X134480476Y-113791904D01*
X134528095Y-113887142D01*
X135242380Y-112887142D02*
X134242380Y-112887142D01*
X134956666Y-112553809D01*
X134242380Y-112220476D01*
X135242380Y-112220476D01*
%TO.C,GND*%
X104648095Y-91852000D02*
X104552857Y-91804380D01*
X104410000Y-91804380D01*
X104267142Y-91852000D01*
X104171904Y-91947238D01*
X104124285Y-92042476D01*
X104076666Y-92232952D01*
X104076666Y-92375809D01*
X104124285Y-92566285D01*
X104171904Y-92661523D01*
X104267142Y-92756761D01*
X104410000Y-92804380D01*
X104505238Y-92804380D01*
X104648095Y-92756761D01*
X104695714Y-92709142D01*
X104695714Y-92375809D01*
X104505238Y-92375809D01*
X105124285Y-92804380D02*
X105124285Y-91804380D01*
X105695714Y-92804380D01*
X105695714Y-91804380D01*
X106171904Y-92804380D02*
X106171904Y-91804380D01*
X106410000Y-91804380D01*
X106552857Y-91852000D01*
X106648095Y-91947238D01*
X106695714Y-92042476D01*
X106743333Y-92232952D01*
X106743333Y-92375809D01*
X106695714Y-92566285D01*
X106648095Y-92661523D01*
X106552857Y-92756761D01*
X106410000Y-92804380D01*
X106171904Y-92804380D01*
%TO.C,+5V*%
X125714285Y-59033428D02*
X126476190Y-59033428D01*
X126095238Y-59414380D02*
X126095238Y-58652476D01*
X127428571Y-58414380D02*
X126952380Y-58414380D01*
X126904761Y-58890571D01*
X126952380Y-58842952D01*
X127047619Y-58795333D01*
X127285714Y-58795333D01*
X127380952Y-58842952D01*
X127428571Y-58890571D01*
X127476190Y-58985809D01*
X127476190Y-59223904D01*
X127428571Y-59319142D01*
X127380952Y-59366761D01*
X127285714Y-59414380D01*
X127047619Y-59414380D01*
X126952380Y-59366761D01*
X126904761Y-59319142D01*
X127761904Y-58414380D02*
X128095238Y-59414380D01*
X128428571Y-58414380D01*
%TO.C,Ard_A0*%
X146304285Y-94688666D02*
X146780476Y-94688666D01*
X146209047Y-94974380D02*
X146542380Y-93974380D01*
X146875714Y-94974380D01*
X147209047Y-94974380D02*
X147209047Y-94307714D01*
X147209047Y-94498190D02*
X147256666Y-94402952D01*
X147304285Y-94355333D01*
X147399523Y-94307714D01*
X147494761Y-94307714D01*
X148256666Y-94974380D02*
X148256666Y-93974380D01*
X148256666Y-94926761D02*
X148161428Y-94974380D01*
X147970952Y-94974380D01*
X147875714Y-94926761D01*
X147828095Y-94879142D01*
X147780476Y-94783904D01*
X147780476Y-94498190D01*
X147828095Y-94402952D01*
X147875714Y-94355333D01*
X147970952Y-94307714D01*
X148161428Y-94307714D01*
X148256666Y-94355333D01*
X148494761Y-95069619D02*
X149256666Y-95069619D01*
X149447142Y-94688666D02*
X149923333Y-94688666D01*
X149351904Y-94974380D02*
X149685238Y-93974380D01*
X150018571Y-94974380D01*
X150542380Y-93974380D02*
X150637619Y-93974380D01*
X150732857Y-94022000D01*
X150780476Y-94069619D01*
X150828095Y-94164857D01*
X150875714Y-94355333D01*
X150875714Y-94593428D01*
X150828095Y-94783904D01*
X150780476Y-94879142D01*
X150732857Y-94926761D01*
X150637619Y-94974380D01*
X150542380Y-94974380D01*
X150447142Y-94926761D01*
X150399523Y-94879142D01*
X150351904Y-94783904D01*
X150304285Y-94593428D01*
X150304285Y-94355333D01*
X150351904Y-94164857D01*
X150399523Y-94069619D01*
X150447142Y-94022000D01*
X150542380Y-93974380D01*
%TO.C,DP A4*%
X157972380Y-69574380D02*
X157972380Y-68574380D01*
X158210476Y-68574380D01*
X158353333Y-68622000D01*
X158448571Y-68717238D01*
X158496190Y-68812476D01*
X158543809Y-69002952D01*
X158543809Y-69145809D01*
X158496190Y-69336285D01*
X158448571Y-69431523D01*
X158353333Y-69526761D01*
X158210476Y-69574380D01*
X157972380Y-69574380D01*
X158972380Y-69574380D02*
X158972380Y-68574380D01*
X159353333Y-68574380D01*
X159448571Y-68622000D01*
X159496190Y-68669619D01*
X159543809Y-68764857D01*
X159543809Y-68907714D01*
X159496190Y-69002952D01*
X159448571Y-69050571D01*
X159353333Y-69098190D01*
X158972380Y-69098190D01*
X160686666Y-69288666D02*
X161162857Y-69288666D01*
X160591428Y-69574380D02*
X160924761Y-68574380D01*
X161258095Y-69574380D01*
X162020000Y-68907714D02*
X162020000Y-69574380D01*
X161781904Y-68526761D02*
X161543809Y-69241047D01*
X162162857Y-69241047D01*
%TO.C,GL A3*%
X105251428Y-68622000D02*
X105156190Y-68574380D01*
X105013333Y-68574380D01*
X104870476Y-68622000D01*
X104775238Y-68717238D01*
X104727619Y-68812476D01*
X104680000Y-69002952D01*
X104680000Y-69145809D01*
X104727619Y-69336285D01*
X104775238Y-69431523D01*
X104870476Y-69526761D01*
X105013333Y-69574380D01*
X105108571Y-69574380D01*
X105251428Y-69526761D01*
X105299047Y-69479142D01*
X105299047Y-69145809D01*
X105108571Y-69145809D01*
X106203809Y-69574380D02*
X105727619Y-69574380D01*
X105727619Y-68574380D01*
X107251428Y-69288666D02*
X107727619Y-69288666D01*
X107156190Y-69574380D02*
X107489523Y-68574380D01*
X107822857Y-69574380D01*
X108060952Y-68574380D02*
X108680000Y-68574380D01*
X108346666Y-68955333D01*
X108489523Y-68955333D01*
X108584761Y-69002952D01*
X108632380Y-69050571D01*
X108680000Y-69145809D01*
X108680000Y-69383904D01*
X108632380Y-69479142D01*
X108584761Y-69526761D01*
X108489523Y-69574380D01*
X108203809Y-69574380D01*
X108108571Y-69526761D01*
X108060952Y-69479142D01*
%TO.C,DL A2*%
X140287619Y-69574380D02*
X140287619Y-68574380D01*
X140525714Y-68574380D01*
X140668571Y-68622000D01*
X140763809Y-68717238D01*
X140811428Y-68812476D01*
X140859047Y-69002952D01*
X140859047Y-69145809D01*
X140811428Y-69336285D01*
X140763809Y-69431523D01*
X140668571Y-69526761D01*
X140525714Y-69574380D01*
X140287619Y-69574380D01*
X141763809Y-69574380D02*
X141287619Y-69574380D01*
X141287619Y-68574380D01*
X142811428Y-69288666D02*
X143287619Y-69288666D01*
X142716190Y-69574380D02*
X143049523Y-68574380D01*
X143382857Y-69574380D01*
X143668571Y-68669619D02*
X143716190Y-68622000D01*
X143811428Y-68574380D01*
X144049523Y-68574380D01*
X144144761Y-68622000D01*
X144192380Y-68669619D01*
X144240000Y-68764857D01*
X144240000Y-68860095D01*
X144192380Y-69002952D01*
X143620952Y-69574380D01*
X144240000Y-69574380D01*
%TO.C,GP A5*%
X122936190Y-68622000D02*
X122840952Y-68574380D01*
X122698095Y-68574380D01*
X122555238Y-68622000D01*
X122460000Y-68717238D01*
X122412380Y-68812476D01*
X122364761Y-69002952D01*
X122364761Y-69145809D01*
X122412380Y-69336285D01*
X122460000Y-69431523D01*
X122555238Y-69526761D01*
X122698095Y-69574380D01*
X122793333Y-69574380D01*
X122936190Y-69526761D01*
X122983809Y-69479142D01*
X122983809Y-69145809D01*
X122793333Y-69145809D01*
X123412380Y-69574380D02*
X123412380Y-68574380D01*
X123793333Y-68574380D01*
X123888571Y-68622000D01*
X123936190Y-68669619D01*
X123983809Y-68764857D01*
X123983809Y-68907714D01*
X123936190Y-69002952D01*
X123888571Y-69050571D01*
X123793333Y-69098190D01*
X123412380Y-69098190D01*
X125126666Y-69288666D02*
X125602857Y-69288666D01*
X125031428Y-69574380D02*
X125364761Y-68574380D01*
X125698095Y-69574380D01*
X126507619Y-68574380D02*
X126031428Y-68574380D01*
X125983809Y-69050571D01*
X126031428Y-69002952D01*
X126126666Y-68955333D01*
X126364761Y-68955333D01*
X126460000Y-69002952D01*
X126507619Y-69050571D01*
X126555238Y-69145809D01*
X126555238Y-69383904D01*
X126507619Y-69479142D01*
X126460000Y-69526761D01*
X126364761Y-69574380D01*
X126126666Y-69574380D01*
X126031428Y-69526761D01*
X125983809Y-69479142D01*
%TO.C,Ard_D9*%
X108132857Y-99768666D02*
X108609047Y-99768666D01*
X108037619Y-100054380D02*
X108370952Y-99054380D01*
X108704285Y-100054380D01*
X109037619Y-100054380D02*
X109037619Y-99387714D01*
X109037619Y-99578190D02*
X109085238Y-99482952D01*
X109132857Y-99435333D01*
X109228095Y-99387714D01*
X109323333Y-99387714D01*
X110085238Y-100054380D02*
X110085238Y-99054380D01*
X110085238Y-100006761D02*
X109990000Y-100054380D01*
X109799523Y-100054380D01*
X109704285Y-100006761D01*
X109656666Y-99959142D01*
X109609047Y-99863904D01*
X109609047Y-99578190D01*
X109656666Y-99482952D01*
X109704285Y-99435333D01*
X109799523Y-99387714D01*
X109990000Y-99387714D01*
X110085238Y-99435333D01*
X110323333Y-100149619D02*
X111085238Y-100149619D01*
X111323333Y-100054380D02*
X111323333Y-99054380D01*
X111561428Y-99054380D01*
X111704285Y-99102000D01*
X111799523Y-99197238D01*
X111847142Y-99292476D01*
X111894761Y-99482952D01*
X111894761Y-99625809D01*
X111847142Y-99816285D01*
X111799523Y-99911523D01*
X111704285Y-100006761D01*
X111561428Y-100054380D01*
X111323333Y-100054380D01*
X112370952Y-100054380D02*
X112561428Y-100054380D01*
X112656666Y-100006761D01*
X112704285Y-99959142D01*
X112799523Y-99816285D01*
X112847142Y-99625809D01*
X112847142Y-99244857D01*
X112799523Y-99149619D01*
X112751904Y-99102000D01*
X112656666Y-99054380D01*
X112466190Y-99054380D01*
X112370952Y-99102000D01*
X112323333Y-99149619D01*
X112275714Y-99244857D01*
X112275714Y-99482952D01*
X112323333Y-99578190D01*
X112370952Y-99625809D01*
X112466190Y-99673428D01*
X112656666Y-99673428D01*
X112751904Y-99625809D01*
X112799523Y-99578190D01*
X112847142Y-99482952D01*
%TO.C,Ard_D10*%
X111466666Y-95958666D02*
X111942857Y-95958666D01*
X111371428Y-96244380D02*
X111704761Y-95244380D01*
X112038095Y-96244380D01*
X112371428Y-96244380D02*
X112371428Y-95577714D01*
X112371428Y-95768190D02*
X112419047Y-95672952D01*
X112466666Y-95625333D01*
X112561904Y-95577714D01*
X112657142Y-95577714D01*
X113419047Y-96244380D02*
X113419047Y-95244380D01*
X113419047Y-96196761D02*
X113323809Y-96244380D01*
X113133333Y-96244380D01*
X113038095Y-96196761D01*
X112990476Y-96149142D01*
X112942857Y-96053904D01*
X112942857Y-95768190D01*
X112990476Y-95672952D01*
X113038095Y-95625333D01*
X113133333Y-95577714D01*
X113323809Y-95577714D01*
X113419047Y-95625333D01*
X113657142Y-96339619D02*
X114419047Y-96339619D01*
X114657142Y-96244380D02*
X114657142Y-95244380D01*
X114895238Y-95244380D01*
X115038095Y-95292000D01*
X115133333Y-95387238D01*
X115180952Y-95482476D01*
X115228571Y-95672952D01*
X115228571Y-95815809D01*
X115180952Y-96006285D01*
X115133333Y-96101523D01*
X115038095Y-96196761D01*
X114895238Y-96244380D01*
X114657142Y-96244380D01*
X116180952Y-96244380D02*
X115609523Y-96244380D01*
X115895238Y-96244380D02*
X115895238Y-95244380D01*
X115800000Y-95387238D01*
X115704761Y-95482476D01*
X115609523Y-95530095D01*
X116800000Y-95244380D02*
X116895238Y-95244380D01*
X116990476Y-95292000D01*
X117038095Y-95339619D01*
X117085714Y-95434857D01*
X117133333Y-95625333D01*
X117133333Y-95863428D01*
X117085714Y-96053904D01*
X117038095Y-96149142D01*
X116990476Y-96196761D01*
X116895238Y-96244380D01*
X116800000Y-96244380D01*
X116704761Y-96196761D01*
X116657142Y-96149142D01*
X116609523Y-96053904D01*
X116561904Y-95863428D01*
X116561904Y-95625333D01*
X116609523Y-95434857D01*
X116657142Y-95339619D01*
X116704761Y-95292000D01*
X116800000Y-95244380D01*
%TO.C,Ard_D8*%
X108132857Y-109928666D02*
X108609047Y-109928666D01*
X108037619Y-110214380D02*
X108370952Y-109214380D01*
X108704285Y-110214380D01*
X109037619Y-110214380D02*
X109037619Y-109547714D01*
X109037619Y-109738190D02*
X109085238Y-109642952D01*
X109132857Y-109595333D01*
X109228095Y-109547714D01*
X109323333Y-109547714D01*
X110085238Y-110214380D02*
X110085238Y-109214380D01*
X110085238Y-110166761D02*
X109990000Y-110214380D01*
X109799523Y-110214380D01*
X109704285Y-110166761D01*
X109656666Y-110119142D01*
X109609047Y-110023904D01*
X109609047Y-109738190D01*
X109656666Y-109642952D01*
X109704285Y-109595333D01*
X109799523Y-109547714D01*
X109990000Y-109547714D01*
X110085238Y-109595333D01*
X110323333Y-110309619D02*
X111085238Y-110309619D01*
X111323333Y-110214380D02*
X111323333Y-109214380D01*
X111561428Y-109214380D01*
X111704285Y-109262000D01*
X111799523Y-109357238D01*
X111847142Y-109452476D01*
X111894761Y-109642952D01*
X111894761Y-109785809D01*
X111847142Y-109976285D01*
X111799523Y-110071523D01*
X111704285Y-110166761D01*
X111561428Y-110214380D01*
X111323333Y-110214380D01*
X112466190Y-109642952D02*
X112370952Y-109595333D01*
X112323333Y-109547714D01*
X112275714Y-109452476D01*
X112275714Y-109404857D01*
X112323333Y-109309619D01*
X112370952Y-109262000D01*
X112466190Y-109214380D01*
X112656666Y-109214380D01*
X112751904Y-109262000D01*
X112799523Y-109309619D01*
X112847142Y-109404857D01*
X112847142Y-109452476D01*
X112799523Y-109547714D01*
X112751904Y-109595333D01*
X112656666Y-109642952D01*
X112466190Y-109642952D01*
X112370952Y-109690571D01*
X112323333Y-109738190D01*
X112275714Y-109833428D01*
X112275714Y-110023904D01*
X112323333Y-110119142D01*
X112370952Y-110166761D01*
X112466190Y-110214380D01*
X112656666Y-110214380D01*
X112751904Y-110166761D01*
X112799523Y-110119142D01*
X112847142Y-110023904D01*
X112847142Y-109833428D01*
X112799523Y-109738190D01*
X112751904Y-109690571D01*
X112656666Y-109642952D01*
%TO.C,Ard_Vin*%
X111800000Y-113738666D02*
X112276190Y-113738666D01*
X111704761Y-114024380D02*
X112038095Y-113024380D01*
X112371428Y-114024380D01*
X112704761Y-114024380D02*
X112704761Y-113357714D01*
X112704761Y-113548190D02*
X112752380Y-113452952D01*
X112800000Y-113405333D01*
X112895238Y-113357714D01*
X112990476Y-113357714D01*
X113752380Y-114024380D02*
X113752380Y-113024380D01*
X113752380Y-113976761D02*
X113657142Y-114024380D01*
X113466666Y-114024380D01*
X113371428Y-113976761D01*
X113323809Y-113929142D01*
X113276190Y-113833904D01*
X113276190Y-113548190D01*
X113323809Y-113452952D01*
X113371428Y-113405333D01*
X113466666Y-113357714D01*
X113657142Y-113357714D01*
X113752380Y-113405333D01*
X113990476Y-114119619D02*
X114752380Y-114119619D01*
X114847619Y-113024380D02*
X115180952Y-114024380D01*
X115514285Y-113024380D01*
X115847619Y-114024380D02*
X115847619Y-113357714D01*
X115847619Y-113024380D02*
X115800000Y-113072000D01*
X115847619Y-113119619D01*
X115895238Y-113072000D01*
X115847619Y-113024380D01*
X115847619Y-113119619D01*
X116323809Y-113357714D02*
X116323809Y-114024380D01*
X116323809Y-113452952D02*
X116371428Y-113405333D01*
X116466666Y-113357714D01*
X116609523Y-113357714D01*
X116704761Y-113405333D01*
X116752380Y-113500571D01*
X116752380Y-114024380D01*
%TO.C,Ard_D7*%
X155122857Y-115008666D02*
X155599047Y-115008666D01*
X155027619Y-115294380D02*
X155360952Y-114294380D01*
X155694285Y-115294380D01*
X156027619Y-115294380D02*
X156027619Y-114627714D01*
X156027619Y-114818190D02*
X156075238Y-114722952D01*
X156122857Y-114675333D01*
X156218095Y-114627714D01*
X156313333Y-114627714D01*
X157075238Y-115294380D02*
X157075238Y-114294380D01*
X157075238Y-115246761D02*
X156980000Y-115294380D01*
X156789523Y-115294380D01*
X156694285Y-115246761D01*
X156646666Y-115199142D01*
X156599047Y-115103904D01*
X156599047Y-114818190D01*
X156646666Y-114722952D01*
X156694285Y-114675333D01*
X156789523Y-114627714D01*
X156980000Y-114627714D01*
X157075238Y-114675333D01*
X157313333Y-115389619D02*
X158075238Y-115389619D01*
X158313333Y-115294380D02*
X158313333Y-114294380D01*
X158551428Y-114294380D01*
X158694285Y-114342000D01*
X158789523Y-114437238D01*
X158837142Y-114532476D01*
X158884761Y-114722952D01*
X158884761Y-114865809D01*
X158837142Y-115056285D01*
X158789523Y-115151523D01*
X158694285Y-115246761D01*
X158551428Y-115294380D01*
X158313333Y-115294380D01*
X159218095Y-114294380D02*
X159884761Y-114294380D01*
X159456190Y-115294380D01*
%TO.C,Solar*%
X145518095Y-106424761D02*
X145660952Y-106472380D01*
X145899047Y-106472380D01*
X145994285Y-106424761D01*
X146041904Y-106377142D01*
X146089523Y-106281904D01*
X146089523Y-106186666D01*
X146041904Y-106091428D01*
X145994285Y-106043809D01*
X145899047Y-105996190D01*
X145708571Y-105948571D01*
X145613333Y-105900952D01*
X145565714Y-105853333D01*
X145518095Y-105758095D01*
X145518095Y-105662857D01*
X145565714Y-105567619D01*
X145613333Y-105520000D01*
X145708571Y-105472380D01*
X145946666Y-105472380D01*
X146089523Y-105520000D01*
X146660952Y-106472380D02*
X146565714Y-106424761D01*
X146518095Y-106377142D01*
X146470476Y-106281904D01*
X146470476Y-105996190D01*
X146518095Y-105900952D01*
X146565714Y-105853333D01*
X146660952Y-105805714D01*
X146803809Y-105805714D01*
X146899047Y-105853333D01*
X146946666Y-105900952D01*
X146994285Y-105996190D01*
X146994285Y-106281904D01*
X146946666Y-106377142D01*
X146899047Y-106424761D01*
X146803809Y-106472380D01*
X146660952Y-106472380D01*
X147565714Y-106472380D02*
X147470476Y-106424761D01*
X147422857Y-106329523D01*
X147422857Y-105472380D01*
X148375238Y-106472380D02*
X148375238Y-105948571D01*
X148327619Y-105853333D01*
X148232380Y-105805714D01*
X148041904Y-105805714D01*
X147946666Y-105853333D01*
X148375238Y-106424761D02*
X148280000Y-106472380D01*
X148041904Y-106472380D01*
X147946666Y-106424761D01*
X147899047Y-106329523D01*
X147899047Y-106234285D01*
X147946666Y-106139047D01*
X148041904Y-106091428D01*
X148280000Y-106091428D01*
X148375238Y-106043809D01*
X148851428Y-106472380D02*
X148851428Y-105805714D01*
X148851428Y-105996190D02*
X148899047Y-105900952D01*
X148946666Y-105853333D01*
X149041904Y-105805714D01*
X149137142Y-105805714D01*
%TO.C,L293D*%
X121570952Y-95912380D02*
X121094761Y-95912380D01*
X121094761Y-94912380D01*
X121856666Y-95007619D02*
X121904285Y-94960000D01*
X121999523Y-94912380D01*
X122237619Y-94912380D01*
X122332857Y-94960000D01*
X122380476Y-95007619D01*
X122428095Y-95102857D01*
X122428095Y-95198095D01*
X122380476Y-95340952D01*
X121809047Y-95912380D01*
X122428095Y-95912380D01*
X122904285Y-95912380D02*
X123094761Y-95912380D01*
X123190000Y-95864761D01*
X123237619Y-95817142D01*
X123332857Y-95674285D01*
X123380476Y-95483809D01*
X123380476Y-95102857D01*
X123332857Y-95007619D01*
X123285238Y-94960000D01*
X123190000Y-94912380D01*
X122999523Y-94912380D01*
X122904285Y-94960000D01*
X122856666Y-95007619D01*
X122809047Y-95102857D01*
X122809047Y-95340952D01*
X122856666Y-95436190D01*
X122904285Y-95483809D01*
X122999523Y-95531428D01*
X123190000Y-95531428D01*
X123285238Y-95483809D01*
X123332857Y-95436190D01*
X123380476Y-95340952D01*
X123713809Y-94912380D02*
X124332857Y-94912380D01*
X123999523Y-95293333D01*
X124142380Y-95293333D01*
X124237619Y-95340952D01*
X124285238Y-95388571D01*
X124332857Y-95483809D01*
X124332857Y-95721904D01*
X124285238Y-95817142D01*
X124237619Y-95864761D01*
X124142380Y-95912380D01*
X123856666Y-95912380D01*
X123761428Y-95864761D01*
X123713809Y-95817142D01*
X124761428Y-95912380D02*
X124761428Y-94912380D01*
X124999523Y-94912380D01*
X125142380Y-94960000D01*
X125237619Y-95055238D01*
X125285238Y-95150476D01*
X125332857Y-95340952D01*
X125332857Y-95483809D01*
X125285238Y-95674285D01*
X125237619Y-95769523D01*
X125142380Y-95864761D01*
X124999523Y-95912380D01*
X124761428Y-95912380D01*
%TO.C,DS18B20*%
X160687142Y-103322380D02*
X160687142Y-102322380D01*
X160925238Y-102322380D01*
X161068095Y-102370000D01*
X161163333Y-102465238D01*
X161210952Y-102560476D01*
X161258571Y-102750952D01*
X161258571Y-102893809D01*
X161210952Y-103084285D01*
X161163333Y-103179523D01*
X161068095Y-103274761D01*
X160925238Y-103322380D01*
X160687142Y-103322380D01*
X161639523Y-103274761D02*
X161782380Y-103322380D01*
X162020476Y-103322380D01*
X162115714Y-103274761D01*
X162163333Y-103227142D01*
X162210952Y-103131904D01*
X162210952Y-103036666D01*
X162163333Y-102941428D01*
X162115714Y-102893809D01*
X162020476Y-102846190D01*
X161830000Y-102798571D01*
X161734761Y-102750952D01*
X161687142Y-102703333D01*
X161639523Y-102608095D01*
X161639523Y-102512857D01*
X161687142Y-102417619D01*
X161734761Y-102370000D01*
X161830000Y-102322380D01*
X162068095Y-102322380D01*
X162210952Y-102370000D01*
X163163333Y-103322380D02*
X162591904Y-103322380D01*
X162877619Y-103322380D02*
X162877619Y-102322380D01*
X162782380Y-102465238D01*
X162687142Y-102560476D01*
X162591904Y-102608095D01*
X163734761Y-102750952D02*
X163639523Y-102703333D01*
X163591904Y-102655714D01*
X163544285Y-102560476D01*
X163544285Y-102512857D01*
X163591904Y-102417619D01*
X163639523Y-102370000D01*
X163734761Y-102322380D01*
X163925238Y-102322380D01*
X164020476Y-102370000D01*
X164068095Y-102417619D01*
X164115714Y-102512857D01*
X164115714Y-102560476D01*
X164068095Y-102655714D01*
X164020476Y-102703333D01*
X163925238Y-102750952D01*
X163734761Y-102750952D01*
X163639523Y-102798571D01*
X163591904Y-102846190D01*
X163544285Y-102941428D01*
X163544285Y-103131904D01*
X163591904Y-103227142D01*
X163639523Y-103274761D01*
X163734761Y-103322380D01*
X163925238Y-103322380D01*
X164020476Y-103274761D01*
X164068095Y-103227142D01*
X164115714Y-103131904D01*
X164115714Y-102941428D01*
X164068095Y-102846190D01*
X164020476Y-102798571D01*
X163925238Y-102750952D01*
X164877619Y-102798571D02*
X165020476Y-102846190D01*
X165068095Y-102893809D01*
X165115714Y-102989047D01*
X165115714Y-103131904D01*
X165068095Y-103227142D01*
X165020476Y-103274761D01*
X164925238Y-103322380D01*
X164544285Y-103322380D01*
X164544285Y-102322380D01*
X164877619Y-102322380D01*
X164972857Y-102370000D01*
X165020476Y-102417619D01*
X165068095Y-102512857D01*
X165068095Y-102608095D01*
X165020476Y-102703333D01*
X164972857Y-102750952D01*
X164877619Y-102798571D01*
X164544285Y-102798571D01*
X165496666Y-102417619D02*
X165544285Y-102370000D01*
X165639523Y-102322380D01*
X165877619Y-102322380D01*
X165972857Y-102370000D01*
X166020476Y-102417619D01*
X166068095Y-102512857D01*
X166068095Y-102608095D01*
X166020476Y-102750952D01*
X165449047Y-103322380D01*
X166068095Y-103322380D01*
X166687142Y-102322380D02*
X166782380Y-102322380D01*
X166877619Y-102370000D01*
X166925238Y-102417619D01*
X166972857Y-102512857D01*
X167020476Y-102703333D01*
X167020476Y-102941428D01*
X166972857Y-103131904D01*
X166925238Y-103227142D01*
X166877619Y-103274761D01*
X166782380Y-103322380D01*
X166687142Y-103322380D01*
X166591904Y-103274761D01*
X166544285Y-103227142D01*
X166496666Y-103131904D01*
X166449047Y-102941428D01*
X166449047Y-102703333D01*
X166496666Y-102512857D01*
X166544285Y-102417619D01*
X166591904Y-102370000D01*
X166687142Y-102322380D01*
%TO.C,Photo DP*%
X156734285Y-78532380D02*
X156734285Y-77532380D01*
X157115238Y-77532380D01*
X157210476Y-77580000D01*
X157258095Y-77627619D01*
X157305714Y-77722857D01*
X157305714Y-77865714D01*
X157258095Y-77960952D01*
X157210476Y-78008571D01*
X157115238Y-78056190D01*
X156734285Y-78056190D01*
X157734285Y-78532380D02*
X157734285Y-77532380D01*
X158162857Y-78532380D02*
X158162857Y-78008571D01*
X158115238Y-77913333D01*
X158020000Y-77865714D01*
X157877142Y-77865714D01*
X157781904Y-77913333D01*
X157734285Y-77960952D01*
X158781904Y-78532380D02*
X158686666Y-78484761D01*
X158639047Y-78437142D01*
X158591428Y-78341904D01*
X158591428Y-78056190D01*
X158639047Y-77960952D01*
X158686666Y-77913333D01*
X158781904Y-77865714D01*
X158924761Y-77865714D01*
X159020000Y-77913333D01*
X159067619Y-77960952D01*
X159115238Y-78056190D01*
X159115238Y-78341904D01*
X159067619Y-78437142D01*
X159020000Y-78484761D01*
X158924761Y-78532380D01*
X158781904Y-78532380D01*
X159400952Y-77865714D02*
X159781904Y-77865714D01*
X159543809Y-77532380D02*
X159543809Y-78389523D01*
X159591428Y-78484761D01*
X159686666Y-78532380D01*
X159781904Y-78532380D01*
X160258095Y-78532380D02*
X160162857Y-78484761D01*
X160115238Y-78437142D01*
X160067619Y-78341904D01*
X160067619Y-78056190D01*
X160115238Y-77960952D01*
X160162857Y-77913333D01*
X160258095Y-77865714D01*
X160400952Y-77865714D01*
X160496190Y-77913333D01*
X160543809Y-77960952D01*
X160591428Y-78056190D01*
X160591428Y-78341904D01*
X160543809Y-78437142D01*
X160496190Y-78484761D01*
X160400952Y-78532380D01*
X160258095Y-78532380D01*
X161781904Y-78532380D02*
X161781904Y-77532380D01*
X162020000Y-77532380D01*
X162162857Y-77580000D01*
X162258095Y-77675238D01*
X162305714Y-77770476D01*
X162353333Y-77960952D01*
X162353333Y-78103809D01*
X162305714Y-78294285D01*
X162258095Y-78389523D01*
X162162857Y-78484761D01*
X162020000Y-78532380D01*
X161781904Y-78532380D01*
X162781904Y-78532380D02*
X162781904Y-77532380D01*
X163162857Y-77532380D01*
X163258095Y-77580000D01*
X163305714Y-77627619D01*
X163353333Y-77722857D01*
X163353333Y-77865714D01*
X163305714Y-77960952D01*
X163258095Y-78008571D01*
X163162857Y-78056190D01*
X162781904Y-78056190D01*
%TO.C,310R*%
X150582380Y-72905714D02*
X150582380Y-72286666D01*
X150963333Y-72620000D01*
X150963333Y-72477142D01*
X151010952Y-72381904D01*
X151058571Y-72334285D01*
X151153809Y-72286666D01*
X151391904Y-72286666D01*
X151487142Y-72334285D01*
X151534761Y-72381904D01*
X151582380Y-72477142D01*
X151582380Y-72762857D01*
X151534761Y-72858095D01*
X151487142Y-72905714D01*
X151582380Y-71334285D02*
X151582380Y-71905714D01*
X151582380Y-71620000D02*
X150582380Y-71620000D01*
X150725238Y-71715238D01*
X150820476Y-71810476D01*
X150868095Y-71905714D01*
X150582380Y-70715238D02*
X150582380Y-70620000D01*
X150630000Y-70524761D01*
X150677619Y-70477142D01*
X150772857Y-70429523D01*
X150963333Y-70381904D01*
X151201428Y-70381904D01*
X151391904Y-70429523D01*
X151487142Y-70477142D01*
X151534761Y-70524761D01*
X151582380Y-70620000D01*
X151582380Y-70715238D01*
X151534761Y-70810476D01*
X151487142Y-70858095D01*
X151391904Y-70905714D01*
X151201428Y-70953333D01*
X150963333Y-70953333D01*
X150772857Y-70905714D01*
X150677619Y-70858095D01*
X150630000Y-70810476D01*
X150582380Y-70715238D01*
X151582380Y-69381904D02*
X151106190Y-69715238D01*
X151582380Y-69953333D02*
X150582380Y-69953333D01*
X150582380Y-69572380D01*
X150630000Y-69477142D01*
X150677619Y-69429523D01*
X150772857Y-69381904D01*
X150915714Y-69381904D01*
X151010952Y-69429523D01*
X151058571Y-69477142D01*
X151106190Y-69572380D01*
X151106190Y-69953333D01*
%TO.C,Photo DL*%
X139049523Y-78532380D02*
X139049523Y-77532380D01*
X139430476Y-77532380D01*
X139525714Y-77580000D01*
X139573333Y-77627619D01*
X139620952Y-77722857D01*
X139620952Y-77865714D01*
X139573333Y-77960952D01*
X139525714Y-78008571D01*
X139430476Y-78056190D01*
X139049523Y-78056190D01*
X140049523Y-78532380D02*
X140049523Y-77532380D01*
X140478095Y-78532380D02*
X140478095Y-78008571D01*
X140430476Y-77913333D01*
X140335238Y-77865714D01*
X140192380Y-77865714D01*
X140097142Y-77913333D01*
X140049523Y-77960952D01*
X141097142Y-78532380D02*
X141001904Y-78484761D01*
X140954285Y-78437142D01*
X140906666Y-78341904D01*
X140906666Y-78056190D01*
X140954285Y-77960952D01*
X141001904Y-77913333D01*
X141097142Y-77865714D01*
X141240000Y-77865714D01*
X141335238Y-77913333D01*
X141382857Y-77960952D01*
X141430476Y-78056190D01*
X141430476Y-78341904D01*
X141382857Y-78437142D01*
X141335238Y-78484761D01*
X141240000Y-78532380D01*
X141097142Y-78532380D01*
X141716190Y-77865714D02*
X142097142Y-77865714D01*
X141859047Y-77532380D02*
X141859047Y-78389523D01*
X141906666Y-78484761D01*
X142001904Y-78532380D01*
X142097142Y-78532380D01*
X142573333Y-78532380D02*
X142478095Y-78484761D01*
X142430476Y-78437142D01*
X142382857Y-78341904D01*
X142382857Y-78056190D01*
X142430476Y-77960952D01*
X142478095Y-77913333D01*
X142573333Y-77865714D01*
X142716190Y-77865714D01*
X142811428Y-77913333D01*
X142859047Y-77960952D01*
X142906666Y-78056190D01*
X142906666Y-78341904D01*
X142859047Y-78437142D01*
X142811428Y-78484761D01*
X142716190Y-78532380D01*
X142573333Y-78532380D01*
X144097142Y-78532380D02*
X144097142Y-77532380D01*
X144335238Y-77532380D01*
X144478095Y-77580000D01*
X144573333Y-77675238D01*
X144620952Y-77770476D01*
X144668571Y-77960952D01*
X144668571Y-78103809D01*
X144620952Y-78294285D01*
X144573333Y-78389523D01*
X144478095Y-78484761D01*
X144335238Y-78532380D01*
X144097142Y-78532380D01*
X145573333Y-78532380D02*
X145097142Y-78532380D01*
X145097142Y-77532380D01*
%TO.C,310R*%
X132802380Y-72905714D02*
X132802380Y-72286666D01*
X133183333Y-72620000D01*
X133183333Y-72477142D01*
X133230952Y-72381904D01*
X133278571Y-72334285D01*
X133373809Y-72286666D01*
X133611904Y-72286666D01*
X133707142Y-72334285D01*
X133754761Y-72381904D01*
X133802380Y-72477142D01*
X133802380Y-72762857D01*
X133754761Y-72858095D01*
X133707142Y-72905714D01*
X133802380Y-71334285D02*
X133802380Y-71905714D01*
X133802380Y-71620000D02*
X132802380Y-71620000D01*
X132945238Y-71715238D01*
X133040476Y-71810476D01*
X133088095Y-71905714D01*
X132802380Y-70715238D02*
X132802380Y-70620000D01*
X132850000Y-70524761D01*
X132897619Y-70477142D01*
X132992857Y-70429523D01*
X133183333Y-70381904D01*
X133421428Y-70381904D01*
X133611904Y-70429523D01*
X133707142Y-70477142D01*
X133754761Y-70524761D01*
X133802380Y-70620000D01*
X133802380Y-70715238D01*
X133754761Y-70810476D01*
X133707142Y-70858095D01*
X133611904Y-70905714D01*
X133421428Y-70953333D01*
X133183333Y-70953333D01*
X132992857Y-70905714D01*
X132897619Y-70858095D01*
X132850000Y-70810476D01*
X132802380Y-70715238D01*
X133802380Y-69381904D02*
X133326190Y-69715238D01*
X133802380Y-69953333D02*
X132802380Y-69953333D01*
X132802380Y-69572380D01*
X132850000Y-69477142D01*
X132897619Y-69429523D01*
X132992857Y-69381904D01*
X133135714Y-69381904D01*
X133230952Y-69429523D01*
X133278571Y-69477142D01*
X133326190Y-69572380D01*
X133326190Y-69953333D01*
%TO.C,1M*%
X129992380Y-113315714D02*
X129992380Y-113887142D01*
X129992380Y-113601428D02*
X128992380Y-113601428D01*
X129135238Y-113696666D01*
X129230476Y-113791904D01*
X129278095Y-113887142D01*
X129992380Y-112887142D02*
X128992380Y-112887142D01*
X129706666Y-112553809D01*
X128992380Y-112220476D01*
X129992380Y-112220476D01*
X135604285Y-99512380D02*
X135032857Y-99512380D01*
X135318571Y-99512380D02*
X135318571Y-98512380D01*
X135223333Y-98655238D01*
X135128095Y-98750476D01*
X135032857Y-98798095D01*
X136032857Y-99512380D02*
X136032857Y-98512380D01*
X136366190Y-99226666D01*
X136699523Y-98512380D01*
X136699523Y-99512380D01*
%TO.C,Photo GP*%
X121174285Y-78532380D02*
X121174285Y-77532380D01*
X121555238Y-77532380D01*
X121650476Y-77580000D01*
X121698095Y-77627619D01*
X121745714Y-77722857D01*
X121745714Y-77865714D01*
X121698095Y-77960952D01*
X121650476Y-78008571D01*
X121555238Y-78056190D01*
X121174285Y-78056190D01*
X122174285Y-78532380D02*
X122174285Y-77532380D01*
X122602857Y-78532380D02*
X122602857Y-78008571D01*
X122555238Y-77913333D01*
X122460000Y-77865714D01*
X122317142Y-77865714D01*
X122221904Y-77913333D01*
X122174285Y-77960952D01*
X123221904Y-78532380D02*
X123126666Y-78484761D01*
X123079047Y-78437142D01*
X123031428Y-78341904D01*
X123031428Y-78056190D01*
X123079047Y-77960952D01*
X123126666Y-77913333D01*
X123221904Y-77865714D01*
X123364761Y-77865714D01*
X123460000Y-77913333D01*
X123507619Y-77960952D01*
X123555238Y-78056190D01*
X123555238Y-78341904D01*
X123507619Y-78437142D01*
X123460000Y-78484761D01*
X123364761Y-78532380D01*
X123221904Y-78532380D01*
X123840952Y-77865714D02*
X124221904Y-77865714D01*
X123983809Y-77532380D02*
X123983809Y-78389523D01*
X124031428Y-78484761D01*
X124126666Y-78532380D01*
X124221904Y-78532380D01*
X124698095Y-78532380D02*
X124602857Y-78484761D01*
X124555238Y-78437142D01*
X124507619Y-78341904D01*
X124507619Y-78056190D01*
X124555238Y-77960952D01*
X124602857Y-77913333D01*
X124698095Y-77865714D01*
X124840952Y-77865714D01*
X124936190Y-77913333D01*
X124983809Y-77960952D01*
X125031428Y-78056190D01*
X125031428Y-78341904D01*
X124983809Y-78437142D01*
X124936190Y-78484761D01*
X124840952Y-78532380D01*
X124698095Y-78532380D01*
X126745714Y-77580000D02*
X126650476Y-77532380D01*
X126507619Y-77532380D01*
X126364761Y-77580000D01*
X126269523Y-77675238D01*
X126221904Y-77770476D01*
X126174285Y-77960952D01*
X126174285Y-78103809D01*
X126221904Y-78294285D01*
X126269523Y-78389523D01*
X126364761Y-78484761D01*
X126507619Y-78532380D01*
X126602857Y-78532380D01*
X126745714Y-78484761D01*
X126793333Y-78437142D01*
X126793333Y-78103809D01*
X126602857Y-78103809D01*
X127221904Y-78532380D02*
X127221904Y-77532380D01*
X127602857Y-77532380D01*
X127698095Y-77580000D01*
X127745714Y-77627619D01*
X127793333Y-77722857D01*
X127793333Y-77865714D01*
X127745714Y-77960952D01*
X127698095Y-78008571D01*
X127602857Y-78056190D01*
X127221904Y-78056190D01*
%TO.C,310R*%
X115022380Y-72905714D02*
X115022380Y-72286666D01*
X115403333Y-72620000D01*
X115403333Y-72477142D01*
X115450952Y-72381904D01*
X115498571Y-72334285D01*
X115593809Y-72286666D01*
X115831904Y-72286666D01*
X115927142Y-72334285D01*
X115974761Y-72381904D01*
X116022380Y-72477142D01*
X116022380Y-72762857D01*
X115974761Y-72858095D01*
X115927142Y-72905714D01*
X116022380Y-71334285D02*
X116022380Y-71905714D01*
X116022380Y-71620000D02*
X115022380Y-71620000D01*
X115165238Y-71715238D01*
X115260476Y-71810476D01*
X115308095Y-71905714D01*
X115022380Y-70715238D02*
X115022380Y-70620000D01*
X115070000Y-70524761D01*
X115117619Y-70477142D01*
X115212857Y-70429523D01*
X115403333Y-70381904D01*
X115641428Y-70381904D01*
X115831904Y-70429523D01*
X115927142Y-70477142D01*
X115974761Y-70524761D01*
X116022380Y-70620000D01*
X116022380Y-70715238D01*
X115974761Y-70810476D01*
X115927142Y-70858095D01*
X115831904Y-70905714D01*
X115641428Y-70953333D01*
X115403333Y-70953333D01*
X115212857Y-70905714D01*
X115117619Y-70858095D01*
X115070000Y-70810476D01*
X115022380Y-70715238D01*
X116022380Y-69381904D02*
X115546190Y-69715238D01*
X116022380Y-69953333D02*
X115022380Y-69953333D01*
X115022380Y-69572380D01*
X115070000Y-69477142D01*
X115117619Y-69429523D01*
X115212857Y-69381904D01*
X115355714Y-69381904D01*
X115450952Y-69429523D01*
X115498571Y-69477142D01*
X115546190Y-69572380D01*
X115546190Y-69953333D01*
%TO.C,Photo GL*%
X103489523Y-77922380D02*
X103489523Y-76922380D01*
X103870476Y-76922380D01*
X103965714Y-76970000D01*
X104013333Y-77017619D01*
X104060952Y-77112857D01*
X104060952Y-77255714D01*
X104013333Y-77350952D01*
X103965714Y-77398571D01*
X103870476Y-77446190D01*
X103489523Y-77446190D01*
X104489523Y-77922380D02*
X104489523Y-76922380D01*
X104918095Y-77922380D02*
X104918095Y-77398571D01*
X104870476Y-77303333D01*
X104775238Y-77255714D01*
X104632380Y-77255714D01*
X104537142Y-77303333D01*
X104489523Y-77350952D01*
X105537142Y-77922380D02*
X105441904Y-77874761D01*
X105394285Y-77827142D01*
X105346666Y-77731904D01*
X105346666Y-77446190D01*
X105394285Y-77350952D01*
X105441904Y-77303333D01*
X105537142Y-77255714D01*
X105680000Y-77255714D01*
X105775238Y-77303333D01*
X105822857Y-77350952D01*
X105870476Y-77446190D01*
X105870476Y-77731904D01*
X105822857Y-77827142D01*
X105775238Y-77874761D01*
X105680000Y-77922380D01*
X105537142Y-77922380D01*
X106156190Y-77255714D02*
X106537142Y-77255714D01*
X106299047Y-76922380D02*
X106299047Y-77779523D01*
X106346666Y-77874761D01*
X106441904Y-77922380D01*
X106537142Y-77922380D01*
X107013333Y-77922380D02*
X106918095Y-77874761D01*
X106870476Y-77827142D01*
X106822857Y-77731904D01*
X106822857Y-77446190D01*
X106870476Y-77350952D01*
X106918095Y-77303333D01*
X107013333Y-77255714D01*
X107156190Y-77255714D01*
X107251428Y-77303333D01*
X107299047Y-77350952D01*
X107346666Y-77446190D01*
X107346666Y-77731904D01*
X107299047Y-77827142D01*
X107251428Y-77874761D01*
X107156190Y-77922380D01*
X107013333Y-77922380D01*
X109060952Y-76970000D02*
X108965714Y-76922380D01*
X108822857Y-76922380D01*
X108680000Y-76970000D01*
X108584761Y-77065238D01*
X108537142Y-77160476D01*
X108489523Y-77350952D01*
X108489523Y-77493809D01*
X108537142Y-77684285D01*
X108584761Y-77779523D01*
X108680000Y-77874761D01*
X108822857Y-77922380D01*
X108918095Y-77922380D01*
X109060952Y-77874761D01*
X109108571Y-77827142D01*
X109108571Y-77493809D01*
X108918095Y-77493809D01*
X110013333Y-77922380D02*
X109537142Y-77922380D01*
X109537142Y-76922380D01*
%TO.C,310R*%
X97242380Y-72905714D02*
X97242380Y-72286666D01*
X97623333Y-72620000D01*
X97623333Y-72477142D01*
X97670952Y-72381904D01*
X97718571Y-72334285D01*
X97813809Y-72286666D01*
X98051904Y-72286666D01*
X98147142Y-72334285D01*
X98194761Y-72381904D01*
X98242380Y-72477142D01*
X98242380Y-72762857D01*
X98194761Y-72858095D01*
X98147142Y-72905714D01*
X98242380Y-71334285D02*
X98242380Y-71905714D01*
X98242380Y-71620000D02*
X97242380Y-71620000D01*
X97385238Y-71715238D01*
X97480476Y-71810476D01*
X97528095Y-71905714D01*
X97242380Y-70715238D02*
X97242380Y-70620000D01*
X97290000Y-70524761D01*
X97337619Y-70477142D01*
X97432857Y-70429523D01*
X97623333Y-70381904D01*
X97861428Y-70381904D01*
X98051904Y-70429523D01*
X98147142Y-70477142D01*
X98194761Y-70524761D01*
X98242380Y-70620000D01*
X98242380Y-70715238D01*
X98194761Y-70810476D01*
X98147142Y-70858095D01*
X98051904Y-70905714D01*
X97861428Y-70953333D01*
X97623333Y-70953333D01*
X97432857Y-70905714D01*
X97337619Y-70858095D01*
X97290000Y-70810476D01*
X97242380Y-70715238D01*
X98242380Y-69381904D02*
X97766190Y-69715238D01*
X98242380Y-69953333D02*
X97242380Y-69953333D01*
X97242380Y-69572380D01*
X97290000Y-69477142D01*
X97337619Y-69429523D01*
X97432857Y-69381904D01*
X97575714Y-69381904D01*
X97670952Y-69429523D01*
X97718571Y-69477142D01*
X97766190Y-69572380D01*
X97766190Y-69953333D01*
%TO.C,4\u002C7k*%
X154725714Y-107608571D02*
X155392380Y-107608571D01*
X154344761Y-107846666D02*
X155059047Y-108084761D01*
X155059047Y-107465714D01*
X155344761Y-107037142D02*
X155392380Y-107037142D01*
X155487619Y-107084761D01*
X155535238Y-107132380D01*
X154392380Y-106703809D02*
X154392380Y-106037142D01*
X155392380Y-106465714D01*
X155392380Y-105656190D02*
X154392380Y-105656190D01*
X155011428Y-105560952D02*
X155392380Y-105275238D01*
X154725714Y-105275238D02*
X155106666Y-105656190D01*
%TO.C,DC_Motor*%
X97115714Y-114752380D02*
X97115714Y-113752380D01*
X97353809Y-113752380D01*
X97496666Y-113800000D01*
X97591904Y-113895238D01*
X97639523Y-113990476D01*
X97687142Y-114180952D01*
X97687142Y-114323809D01*
X97639523Y-114514285D01*
X97591904Y-114609523D01*
X97496666Y-114704761D01*
X97353809Y-114752380D01*
X97115714Y-114752380D01*
X98687142Y-114657142D02*
X98639523Y-114704761D01*
X98496666Y-114752380D01*
X98401428Y-114752380D01*
X98258571Y-114704761D01*
X98163333Y-114609523D01*
X98115714Y-114514285D01*
X98068095Y-114323809D01*
X98068095Y-114180952D01*
X98115714Y-113990476D01*
X98163333Y-113895238D01*
X98258571Y-113800000D01*
X98401428Y-113752380D01*
X98496666Y-113752380D01*
X98639523Y-113800000D01*
X98687142Y-113847619D01*
X98877619Y-114847619D02*
X99639523Y-114847619D01*
X99877619Y-114752380D02*
X99877619Y-113752380D01*
X100210952Y-114466666D01*
X100544285Y-113752380D01*
X100544285Y-114752380D01*
X101163333Y-114752380D02*
X101068095Y-114704761D01*
X101020476Y-114657142D01*
X100972857Y-114561904D01*
X100972857Y-114276190D01*
X101020476Y-114180952D01*
X101068095Y-114133333D01*
X101163333Y-114085714D01*
X101306190Y-114085714D01*
X101401428Y-114133333D01*
X101449047Y-114180952D01*
X101496666Y-114276190D01*
X101496666Y-114561904D01*
X101449047Y-114657142D01*
X101401428Y-114704761D01*
X101306190Y-114752380D01*
X101163333Y-114752380D01*
X101782380Y-114085714D02*
X102163333Y-114085714D01*
X101925238Y-113752380D02*
X101925238Y-114609523D01*
X101972857Y-114704761D01*
X102068095Y-114752380D01*
X102163333Y-114752380D01*
X102639523Y-114752380D02*
X102544285Y-114704761D01*
X102496666Y-114657142D01*
X102449047Y-114561904D01*
X102449047Y-114276190D01*
X102496666Y-114180952D01*
X102544285Y-114133333D01*
X102639523Y-114085714D01*
X102782380Y-114085714D01*
X102877619Y-114133333D01*
X102925238Y-114180952D01*
X102972857Y-114276190D01*
X102972857Y-114561904D01*
X102925238Y-114657142D01*
X102877619Y-114704761D01*
X102782380Y-114752380D01*
X102639523Y-114752380D01*
X103401428Y-114752380D02*
X103401428Y-114085714D01*
X103401428Y-114276190D02*
X103449047Y-114180952D01*
X103496666Y-114133333D01*
X103591904Y-114085714D01*
X103687142Y-114085714D01*
%TO.C,100nF*%
X150852380Y-98242380D02*
X150280952Y-98242380D01*
X150566666Y-98242380D02*
X150566666Y-97242380D01*
X150471428Y-97385238D01*
X150376190Y-97480476D01*
X150280952Y-97528095D01*
X151471428Y-97242380D02*
X151566666Y-97242380D01*
X151661904Y-97290000D01*
X151709523Y-97337619D01*
X151757142Y-97432857D01*
X151804761Y-97623333D01*
X151804761Y-97861428D01*
X151757142Y-98051904D01*
X151709523Y-98147142D01*
X151661904Y-98194761D01*
X151566666Y-98242380D01*
X151471428Y-98242380D01*
X151376190Y-98194761D01*
X151328571Y-98147142D01*
X151280952Y-98051904D01*
X151233333Y-97861428D01*
X151233333Y-97623333D01*
X151280952Y-97432857D01*
X151328571Y-97337619D01*
X151376190Y-97290000D01*
X151471428Y-97242380D01*
X152423809Y-97242380D02*
X152519047Y-97242380D01*
X152614285Y-97290000D01*
X152661904Y-97337619D01*
X152709523Y-97432857D01*
X152757142Y-97623333D01*
X152757142Y-97861428D01*
X152709523Y-98051904D01*
X152661904Y-98147142D01*
X152614285Y-98194761D01*
X152519047Y-98242380D01*
X152423809Y-98242380D01*
X152328571Y-98194761D01*
X152280952Y-98147142D01*
X152233333Y-98051904D01*
X152185714Y-97861428D01*
X152185714Y-97623333D01*
X152233333Y-97432857D01*
X152280952Y-97337619D01*
X152328571Y-97290000D01*
X152423809Y-97242380D01*
X153185714Y-97575714D02*
X153185714Y-98242380D01*
X153185714Y-97670952D02*
X153233333Y-97623333D01*
X153328571Y-97575714D01*
X153471428Y-97575714D01*
X153566666Y-97623333D01*
X153614285Y-97718571D01*
X153614285Y-98242380D01*
X154423809Y-97718571D02*
X154090476Y-97718571D01*
X154090476Y-98242380D02*
X154090476Y-97242380D01*
X154566666Y-97242380D01*
%TO.C,220uF*%
X141390952Y-97337619D02*
X141438571Y-97290000D01*
X141533809Y-97242380D01*
X141771904Y-97242380D01*
X141867142Y-97290000D01*
X141914761Y-97337619D01*
X141962380Y-97432857D01*
X141962380Y-97528095D01*
X141914761Y-97670952D01*
X141343333Y-98242380D01*
X141962380Y-98242380D01*
X142343333Y-97337619D02*
X142390952Y-97290000D01*
X142486190Y-97242380D01*
X142724285Y-97242380D01*
X142819523Y-97290000D01*
X142867142Y-97337619D01*
X142914761Y-97432857D01*
X142914761Y-97528095D01*
X142867142Y-97670952D01*
X142295714Y-98242380D01*
X142914761Y-98242380D01*
X143533809Y-97242380D02*
X143629047Y-97242380D01*
X143724285Y-97290000D01*
X143771904Y-97337619D01*
X143819523Y-97432857D01*
X143867142Y-97623333D01*
X143867142Y-97861428D01*
X143819523Y-98051904D01*
X143771904Y-98147142D01*
X143724285Y-98194761D01*
X143629047Y-98242380D01*
X143533809Y-98242380D01*
X143438571Y-98194761D01*
X143390952Y-98147142D01*
X143343333Y-98051904D01*
X143295714Y-97861428D01*
X143295714Y-97623333D01*
X143343333Y-97432857D01*
X143390952Y-97337619D01*
X143438571Y-97290000D01*
X143533809Y-97242380D01*
X144724285Y-97575714D02*
X144724285Y-98242380D01*
X144295714Y-97575714D02*
X144295714Y-98099523D01*
X144343333Y-98194761D01*
X144438571Y-98242380D01*
X144581428Y-98242380D01*
X144676666Y-98194761D01*
X144724285Y-98147142D01*
X145533809Y-97718571D02*
X145200476Y-97718571D01*
X145200476Y-98242380D02*
X145200476Y-97242380D01*
X145676666Y-97242380D01*
%TD*%
M02*
